G04 start of page 2 for group 0 idx 0 *
G04 Title: (unknown), solder *
G04 Creator: pcb 20110918 *
G04 CreationDate: Tue Oct  7 19:52:02 2014 UTC *
G04 For: fosse *
G04 Format: Gerber/RS-274X *
G04 PCB-Dimensions: 470000 250000 *
G04 PCB-Coordinate-Origin: lower left *
%MOIN*%
%FSLAX25Y25*%
%LNTOP*%
%ADD31C,0.0710*%
%ADD30C,0.0650*%
%ADD29C,0.0790*%
%ADD28C,0.0320*%
%ADD27C,0.0200*%
%ADD26C,0.0420*%
%ADD25C,0.0380*%
%ADD24C,0.0280*%
%ADD23C,0.0300*%
%ADD22C,0.0720*%
%ADD21C,0.1050*%
%ADD20C,0.2000*%
%ADD19C,0.0800*%
%ADD18C,0.0500*%
%ADD17C,0.0550*%
%ADD16C,0.0450*%
%ADD15C,0.0400*%
%ADD14C,0.0060*%
%ADD13C,0.0250*%
%ADD12C,0.0600*%
%ADD11C,0.0001*%
G54D11*G36*
X149600Y163800D02*X130200D01*
Y166500D01*
X149600D01*
Y163800D01*
G37*
G54D12*X312500Y133500D02*X327500D01*
X310000Y121000D02*X345000D01*
X357500Y133500D01*
X345000Y121000D02*Y88500D01*
X350000Y83500D01*
X302500Y133500D02*Y128500D01*
X310000Y121000D01*
X322500Y178500D02*X327500Y163500D01*
X321500Y193500D02*Y179500D01*
X322500Y178500D01*
X362500D02*X357500Y163500D01*
Y153500D02*X377500D01*
G54D13*X357500Y143500D02*X364000D01*
X367500Y140000D01*
G54D12*X361500Y193500D02*Y179500D01*
X362500Y178500D01*
X397500Y113500D02*X420000D01*
X430000Y118500D02*Y83500D01*
X360000D02*X375000D01*
X385000Y73500D01*
X410000D01*
X420000Y83500D01*
X395000Y153500D02*X430000Y118500D01*
X377500Y153500D02*Y133500D01*
X397500Y113500D01*
X387500Y153500D02*X395000D01*
X415000Y220000D02*X375000D01*
G54D13*X367500Y140000D02*Y101000D01*
X375000Y93500D01*
G54D12*X354000Y241000D02*X375000Y220000D01*
X326000Y220500D02*Y241000D01*
X217500Y133500D02*X237500D01*
G54D13*X217500Y113500D02*X232500D01*
Y123500D01*
X217500Y113500D02*Y123500D01*
X175000D02*X192000D01*
X196000Y127500D01*
X175000Y93500D02*X207500D01*
X217500Y103500D01*
G54D12*X237500Y133500D02*X255000Y151000D01*
X227500D02*X241000D01*
X245000Y155000D01*
G54D13*X196000Y159000D02*Y127500D01*
X227500Y163500D02*X235000D01*
G54D12*X187500Y133500D02*Y150500D01*
X270000Y133500D02*X302500D01*
X255000Y151000D02*Y163500D01*
X265000D01*
X275000Y158500D02*X265000Y148500D01*
X275000Y171000D02*Y158500D01*
X245000Y155000D02*Y163500D01*
X265000Y148500D02*Y138500D01*
X270000Y133500D01*
X275000Y143500D02*X282500D01*
Y148500D01*
X297500Y163500D01*
G54D13*X282500Y143500D02*X327500D01*
G54D12*X247500Y196000D02*Y191000D01*
X238500Y205000D02*X247500Y196000D01*
X237500Y220000D02*Y241000D01*
X247500Y191000D02*X262500Y176000D01*
X270000D01*
X275000Y171000D01*
X265000Y196000D02*X297500Y163500D01*
X257500Y196000D02*X282000D01*
X257500D02*X265000D01*
X282000D02*X297500Y211500D01*
Y226500D01*
X47500Y241000D02*X354000D01*
G54D14*X139100Y172100D02*X140700D01*
Y170200D01*
X139100D02*Y172100D01*
G54D12*X147500Y196000D02*Y200000D01*
X152500Y205000D01*
X238500D01*
G54D13*X187500Y163500D02*X191500D01*
X196000Y159000D01*
X187500Y173500D02*Y163500D01*
Y173500D02*X202500Y188500D01*
X212500D02*X227500Y173500D01*
Y163500D01*
X172500Y151000D02*X187500D01*
X157500Y101000D02*Y196000D01*
G54D14*X133300Y161200D02*X138800D01*
Y155500D01*
X137000Y161200D02*Y155500D01*
X138800Y154500D02*Y149400D01*
Y155500D02*X133300D01*
Y161200D01*
X135100D02*Y155500D01*
X138800Y157400D02*X133300D01*
Y159300D02*X138800D01*
Y149400D02*X133300D01*
X140000Y136300D02*X151000D01*
X151900Y135400D01*
Y134300D01*
X140500Y148900D03*
X133300Y154500D02*X138800D01*
X133300Y149400D02*Y154500D01*
G54D15*X135000Y123500D02*Y108500D01*
G54D13*Y93500D02*X150000D01*
X157500Y101000D01*
G54D14*X133300Y148400D02*X138800D01*
Y143300D01*
X133300D01*
Y148400D01*
Y142300D02*X138800D01*
Y137200D01*
X139900Y162300D02*Y136300D01*
X138800Y137200D02*X133300D01*
Y142300D01*
X148700Y168500D02*Y167100D01*
X149900Y166800D02*Y163500D01*
X151000D02*Y136300D01*
X152300Y166800D02*Y163500D01*
X148800D02*Y136300D01*
X134000Y153700D02*X138000D01*
X135200Y152800D02*X137000D01*
X134600Y152000D02*X137600D01*
X134000Y150300D02*X138100D01*
X134000Y151200D02*X138100D01*
X141000Y161200D02*X146500D01*
X141000D02*Y155500D01*
G54D12*X39500Y77500D02*Y153500D01*
X27000Y166000D01*
X49500Y77500D02*Y168000D01*
X59500Y77500D02*Y174000D01*
X69500Y77500D02*Y101500D01*
X100500Y132500D01*
X277500Y220000D02*Y241000D01*
X137500Y220000D02*Y241000D01*
X177500Y220000D02*Y241000D01*
X27000Y220500D02*X47500Y241000D01*
X27000Y166000D02*Y220500D01*
G54D16*X48500Y182000D02*X57500Y191000D01*
X48500Y169000D02*Y182000D01*
G54D12*X49500Y168000D02*X48500Y169000D01*
X114000Y162500D02*X147500Y196000D01*
X59500Y174000D02*X57500Y176000D01*
X110500Y162500D02*X114000D01*
X100500Y172500D02*Y162500D01*
X76000Y191000D02*X82000D01*
X100500Y172500D01*
X76000Y176000D02*Y173500D01*
G54D14*X131900Y170200D02*X147900D01*
X131900Y168500D02*Y170200D01*
X131100Y168500D02*Y167100D01*
X148700D01*
G54D12*X76000Y173500D02*X110500Y139000D01*
G54D14*X128800Y163500D02*Y136300D01*
X131000Y163500D02*Y136300D01*
X132100Y162300D02*Y136300D01*
X141000Y155500D02*X146500D01*
Y161200D02*Y155500D01*
X144700Y161200D02*Y155500D01*
X142800Y161200D02*Y155500D01*
X141000Y157400D02*X146500D01*
X141000Y159300D02*X146500D01*
X141000Y154500D02*X146500D01*
X141000D02*Y149400D01*
X146500Y154500D02*Y149400D01*
Y148400D02*Y143300D01*
X147700Y162300D02*Y136300D01*
X141000Y142300D02*X146500D01*
X141000D02*Y137200D01*
X146500D01*
Y142300D02*Y137200D01*
X139800Y136300D02*X128800D01*
G54D12*X110500Y139000D02*Y94500D01*
X119000Y86000D01*
X187500D01*
G54D14*X141000Y149400D02*X146500D01*
X141000Y148400D02*X146500D01*
X141000D02*Y143300D01*
X146500D01*
X128800Y136300D02*X127900Y135400D01*
Y134300D01*
X151900D01*
X127900Y135400D02*X151900D01*
X131100Y168500D02*X148700D01*
X129900Y163500D02*Y166800D01*
X152300Y163500D02*X127500D01*
X152300Y166800D02*X127500D01*
Y163500D01*
X132100Y162300D02*X147700D01*
X147900Y170200D02*Y168500D01*
G54D11*G36*
X132250Y111250D02*Y105750D01*
X137750D01*
Y111250D01*
X132250D01*
G37*
G36*
Y126250D02*Y120750D01*
X137750D01*
Y126250D01*
X132250D01*
G37*
G54D12*X135000Y78500D03*
G54D11*G36*
X132250Y96250D02*Y90750D01*
X137750D01*
Y96250D01*
X132250D01*
G37*
G54D17*X175000Y108500D03*
G54D11*G36*
X172000Y81500D02*Y75500D01*
X178000D01*
Y81500D01*
X172000D01*
G37*
G54D17*X175000Y93500D03*
Y123500D03*
G54D11*G36*
X184500Y136500D02*Y130500D01*
X190500D01*
Y136500D01*
X184500D01*
G37*
G54D12*X187500Y123500D03*
Y113500D03*
Y103500D03*
G54D11*G36*
X97500Y135500D02*Y129500D01*
X103500D01*
Y135500D01*
X97500D01*
G37*
G36*
X36500Y80500D02*Y74500D01*
X42500D01*
Y80500D01*
X36500D01*
G37*
G54D12*X49500Y77500D03*
X59500D03*
X69500D03*
X110500Y132500D03*
G54D11*G36*
X107000Y102000D02*Y96000D01*
X113000D01*
Y102000D01*
X107000D01*
G37*
G36*
X231400Y167100D02*Y159900D01*
X238600D01*
Y167100D01*
X231400D01*
G37*
G36*
X225000Y153500D02*Y148500D01*
X230000D01*
Y153500D01*
X225000D01*
G37*
G54D18*X187500Y151000D03*
G54D11*G36*
X184750Y166250D02*Y160750D01*
X190250D01*
Y166250D01*
X184750D01*
G37*
G54D17*X227500Y163500D03*
G54D11*G36*
X199500Y191500D02*Y185500D01*
X205500D01*
Y191500D01*
X199500D01*
G37*
G36*
X184750Y176250D02*Y170750D01*
X190250D01*
Y176250D01*
X184750D01*
G37*
G54D19*X147500Y196000D03*
X157500D03*
G54D20*X137500Y220000D03*
X177500D03*
G54D11*G36*
X169500Y154000D02*Y148000D01*
X175500D01*
Y154000D01*
X169500D01*
G37*
G36*
X97500Y165500D02*Y159500D01*
X103500D01*
Y165500D01*
X97500D01*
G37*
G54D12*X110500Y162500D03*
G54D21*X47500Y241000D03*
X67500D03*
G54D11*G36*
X52250Y196250D02*Y185750D01*
X62750D01*
Y196250D01*
X52250D01*
G37*
G54D21*X39000Y191000D03*
X76000D03*
X39000Y176000D03*
X57500D03*
X76000D03*
G54D11*G36*
X111500Y191000D02*Y185000D01*
X117500D01*
Y191000D01*
X111500D01*
G37*
G54D19*X247500Y196000D03*
G54D20*X237500Y220000D03*
G54D19*X257500Y196000D03*
G54D20*X277500Y220000D03*
G54D12*X212500Y188500D03*
G54D17*X227500Y173500D03*
G54D11*G36*
X294750Y229250D02*Y223750D01*
X300250D01*
Y229250D01*
X294750D01*
G37*
G54D17*X297500Y186500D03*
G54D11*G36*
X318750Y196250D02*Y190750D01*
X324250D01*
Y196250D01*
X318750D01*
G37*
G36*
X323000Y223500D02*Y217500D01*
X329000D01*
Y223500D01*
X323000D01*
G37*
G36*
X417000Y86500D02*Y80500D01*
X423000D01*
Y86500D01*
X417000D01*
G37*
G54D12*X430000Y83500D03*
G54D11*G36*
X417000Y116500D02*Y110500D01*
X423000D01*
Y116500D01*
X417000D01*
G37*
G54D12*X430000Y113500D03*
G54D11*G36*
X372000Y116500D02*Y110500D01*
X378000D01*
Y116500D01*
X372000D01*
G37*
G54D12*X405000Y113500D03*
X375000Y103500D03*
X405000D03*
X375000Y93500D03*
Y83500D03*
X405000D03*
Y93500D03*
G54D11*G36*
X229750Y116250D02*Y110750D01*
X235250D01*
Y116250D01*
X229750D01*
G37*
G54D22*X245000Y163500D03*
X255000D03*
G54D11*G36*
X262000Y166500D02*Y160500D01*
X268000D01*
Y166500D01*
X262000D01*
G37*
G54D17*X235000Y143500D03*
G54D11*G36*
X229500Y126500D02*Y120500D01*
X235500D01*
Y126500D01*
X229500D01*
G37*
G54D17*X272500Y113500D03*
G54D12*X275000Y163500D03*
G54D11*G36*
X272250Y146250D02*Y140750D01*
X277750D01*
Y146250D01*
X272250D01*
G37*
G36*
X279750D02*Y140750D01*
X285250D01*
Y146250D01*
X279750D01*
G37*
G36*
X299500Y136500D02*Y130500D01*
X305500D01*
Y136500D01*
X299500D01*
G37*
G54D12*X312500Y133500D03*
G54D17*X282500Y103500D03*
G54D11*G36*
X294500Y166500D02*Y160500D01*
X300500D01*
Y166500D01*
X294500D01*
G37*
G36*
X319750Y181250D02*Y175750D01*
X325250D01*
Y181250D01*
X319750D01*
G37*
G36*
X324500Y166500D02*Y160500D01*
X330500D01*
Y166500D01*
X324500D01*
G37*
G54D12*X327500Y153500D03*
Y143500D03*
Y133500D03*
X217500Y103500D03*
Y113500D03*
Y123500D03*
Y133500D03*
G54D20*X375000Y220000D03*
X415000D03*
G54D17*X362500Y178500D03*
X361500Y193500D03*
G54D19*X385000Y196000D03*
X395000D03*
G54D12*X387500Y153500D03*
G54D11*G36*
X397450Y178750D02*Y173250D01*
X402950D01*
Y178750D01*
X397450D01*
G37*
G54D17*X400200Y136000D03*
G54D11*G36*
X374500Y156500D02*Y150500D01*
X380500D01*
Y156500D01*
X374500D01*
G37*
G54D12*X357500Y133500D03*
Y143500D03*
Y153500D03*
Y163500D03*
G54D11*G36*
X347000Y86500D02*Y80500D01*
X353000D01*
Y86500D01*
X347000D01*
G37*
G54D12*X360000Y83500D03*
G54D11*G36*
X342000Y109500D02*Y103500D01*
X348000D01*
Y109500D01*
X342000D01*
G37*
G54D19*X187500Y86000D03*
G54D18*G54D23*G54D24*G54D23*G54D25*G54D23*G54D25*G54D26*G54D27*G54D23*G54D28*G54D29*G54D25*G54D23*G54D30*G54D31*G54D25*G54D28*G54D29*G54D28*G54D29*G54D23*G54D25*G54D23*G54D24*G54D23*G54D26*G54D23*G54D25*G54D23*G54D25*G54D23*G54D24*G54D29*G54D23*G54D28*G54D23*G54D24*G54D23*G54D25*M02*
