G04 start of page 8 for group -4079 idx -4079 *
G04 Title: (unknown), topsilk *
G04 Creator: pcb 20110918 *
G04 CreationDate: Tue Oct  7 19:52:02 2014 UTC *
G04 For: fosse *
G04 Format: Gerber/RS-274X *
G04 PCB-Dimensions: 470000 250000 *
G04 PCB-Coordinate-Origin: lower left *
%MOIN*%
%FSLAX25Y25*%
%LNTOPSILK*%
%ADD82C,0.0400*%
%ADD81C,0.0100*%
%ADD80C,0.0001*%
G54D80*G36*
X133600Y160900D02*X134800D01*
Y159600D01*
X133600D01*
Y160900D01*
G37*
G36*
X135400D02*X136700D01*
Y159600D01*
X135400D01*
Y160900D01*
G37*
G36*
Y159000D02*X136700D01*
Y157700D01*
X135400D01*
Y159000D01*
G37*
G36*
X133600D02*X134800D01*
Y157700D01*
X133600D01*
Y159000D01*
G37*
G36*
X134800Y157100D02*Y155800D01*
X133600D01*
Y157100D01*
X134800D01*
G37*
G36*
X135400Y155800D02*Y157100D01*
X136700D01*
Y155800D01*
X135400D01*
G37*
G36*
X139400Y171800D02*X140400D01*
Y170500D01*
X139400D01*
Y171800D01*
G37*
G36*
X137300Y157100D02*X138500D01*
Y155800D01*
X137300D01*
Y157100D01*
G37*
G36*
X138500Y157700D02*X137300D01*
Y159000D01*
X138500D01*
Y157700D01*
G37*
G36*
X144400D02*X143100D01*
Y159000D01*
X144400D01*
Y157700D01*
G37*
G36*
X141300Y159000D02*X142500D01*
Y157700D01*
X141300D01*
Y159000D01*
G37*
G36*
X145000Y157700D02*Y159000D01*
X146200D01*
Y157700D01*
X145000D01*
G37*
G36*
X137300Y159600D02*Y160900D01*
X138500D01*
Y159600D01*
X137300D01*
G37*
G36*
X142500D02*X141300D01*
Y160900D01*
X142500D01*
Y159600D01*
G37*
G36*
X146200D02*X145000D01*
Y160900D01*
X146200D01*
Y159600D01*
G37*
G36*
X144400D02*X143100D01*
Y160900D01*
X144400D01*
Y159600D01*
G37*
G36*
X146200Y155800D02*X145000D01*
Y157100D01*
X146200D01*
Y155800D01*
G37*
G36*
X143100Y157100D02*X144400D01*
Y155800D01*
X143100D01*
Y157100D01*
G37*
G36*
X142500Y155800D02*X141300D01*
Y157100D01*
X142500D01*
Y155800D01*
G37*
G54D81*X270000Y187000D02*Y184000D01*
Y187000D02*X270500Y187500D01*
X271500D01*
X272000Y187000D01*
Y184000D01*
X271500Y183500D02*X272000Y184000D01*
X270500Y183500D02*X271500D01*
X270000Y184000D02*X270500Y183500D01*
X273200Y185500D02*Y184000D01*
X273700Y183500D01*
X274700D01*
X275200Y184000D01*
Y185500D02*Y184000D01*
X276900Y187500D02*Y184000D01*
X277400Y183500D01*
X276400Y186000D02*X277400D01*
X278900Y185000D02*Y182000D01*
X278400Y185500D02*X278900Y185000D01*
X279400Y185500D01*
X280400D01*
X280900Y185000D01*
Y184000D01*
X280400Y183500D02*X280900Y184000D01*
X279400Y183500D02*X280400D01*
X278900Y184000D02*X279400Y183500D01*
X282100Y185500D02*Y184000D01*
X282600Y183500D01*
X283600D01*
X284100Y184000D01*
Y185500D02*Y184000D01*
X285800Y187500D02*Y184000D01*
X286300Y183500D01*
X285300Y186000D02*X286300D01*
X289000Y175000D02*Y172000D01*
Y175000D02*X289500Y175500D01*
X290500D01*
X291000Y175000D01*
Y172000D01*
X290500Y171500D02*X291000Y172000D01*
X289500Y171500D02*X290500D01*
X289000Y172000D02*X289500Y171500D01*
X292200Y173500D02*Y172000D01*
X292700Y171500D01*
X293700D01*
X294200Y172000D01*
Y173500D02*Y172000D01*
X295900Y175500D02*Y172000D01*
X296400Y171500D01*
X295400Y174000D02*X296400D01*
X297900Y173000D02*Y170000D01*
X297400Y173500D02*X297900Y173000D01*
X298400Y173500D01*
X299400D01*
X299900Y173000D01*
Y172000D01*
X299400Y171500D02*X299900Y172000D01*
X298400Y171500D02*X299400D01*
X297900Y172000D02*X298400Y171500D01*
X301100Y173500D02*Y172000D01*
X301600Y171500D01*
X302600D01*
X303100Y172000D01*
Y173500D02*Y172000D01*
X304800Y175500D02*Y172000D01*
X305300Y171500D01*
X304300Y174000D02*X305300D01*
X405000Y188000D02*Y184000D01*
Y188000D02*X406500Y186500D01*
X408000Y188000D01*
Y184000D01*
X409200Y185500D02*Y184500D01*
Y185500D02*X409700Y186000D01*
X410700D01*
X411200Y185500D01*
Y184500D01*
X410700Y184000D02*X411200Y184500D01*
X409700Y184000D02*X410700D01*
X409200Y184500D02*X409700Y184000D01*
X412900Y185500D02*Y184000D01*
Y185500D02*X413400Y186000D01*
X413900D01*
X414400Y185500D01*
Y184000D01*
X412400Y186000D02*X412900Y185500D01*
X415600Y187000D02*Y186500D01*
Y185500D02*Y184000D01*
X417100Y188000D02*Y184500D01*
X417600Y184000D01*
X416600Y186500D02*X417600D01*
X418600Y185500D02*Y184500D01*
Y185500D02*X419100Y186000D01*
X420100D01*
X420600Y185500D01*
Y184500D01*
X420100Y184000D02*X420600Y184500D01*
X419100Y184000D02*X420100D01*
X418600Y184500D02*X419100Y184000D01*
X422300Y185500D02*Y184000D01*
Y185500D02*X422800Y186000D01*
X423800D01*
X421800D02*X422300Y185500D01*
X342000Y116000D02*X342500Y115500D01*
X340500Y116000D02*X342000D01*
X340000Y115500D02*X340500Y116000D01*
X340000Y115500D02*Y112500D01*
X340500Y112000D01*
X342000D01*
X342500Y112500D01*
Y113500D02*Y112500D01*
X342000Y114000D02*X342500Y113500D01*
X341000Y114000D02*X342000D01*
X343700Y116000D02*Y112000D01*
Y116000D02*Y115500D01*
X346200Y113000D01*
Y116000D02*Y112000D01*
X347900Y116000D02*Y112000D01*
X349400Y116000D02*X349900Y115500D01*
Y112500D01*
X349400Y112000D02*X349900Y112500D01*
X347400Y112000D02*X349400D01*
X347400Y116000D02*X349400D01*
X238500Y135000D02*X239500Y136000D01*
X238500Y135000D02*X239500Y134000D01*
X240700Y135000D02*X242700D01*
X243900Y137000D02*Y133500D01*
X244400Y133000D01*
X245400D01*
X245900Y133500D01*
Y137000D02*Y133500D01*
X247600Y134500D02*Y133000D01*
Y134500D02*X248100Y135000D01*
X248600D01*
X249100Y134500D01*
Y133000D01*
X247100Y135000D02*X247600Y134500D01*
X250300Y136000D02*Y135500D01*
Y134500D02*Y133000D01*
X251800Y137000D02*Y133500D01*
X252300Y133000D01*
X251300Y135500D02*X252300D01*
X253300Y135000D02*Y133500D01*
X253800Y133000D01*
X255300Y135000D02*Y132000D01*
X254800Y131500D02*X255300Y132000D01*
X253800Y131500D02*X254800D01*
X253300Y132000D02*X253800Y131500D01*
Y133000D02*X254800D01*
X255300Y133500D01*
X202000Y73500D02*Y69500D01*
X204500Y73500D02*Y69500D01*
X202000Y71500D02*X204500D01*
X205700Y71000D02*Y70000D01*
Y71000D02*X206200Y71500D01*
X207200D01*
X207700Y71000D01*
Y70000D01*
X207200Y69500D02*X207700Y70000D01*
X206200Y69500D02*X207200D01*
X205700Y70000D02*X206200Y69500D01*
X208900Y71500D02*Y70000D01*
X209400Y69500D01*
X209900D01*
X210400Y70000D01*
Y71500D02*Y70000D01*
X210900Y69500D01*
X211400D01*
X211900Y70000D01*
Y71500D02*Y70000D01*
X213100Y73500D02*Y70000D01*
X213600Y69500D01*
X216100Y71500D02*X216600Y71000D01*
X215100Y71500D02*X216100D01*
X214600Y71000D02*X215100Y71500D01*
X214600Y71000D02*Y70000D01*
X215100Y69500D01*
X216600Y71500D02*Y70000D01*
X217100Y69500D01*
X215100D02*X216100D01*
X216600Y70000D01*
X218800Y71000D02*Y69500D01*
Y71000D02*X219300Y71500D01*
X219800D01*
X220300Y71000D01*
Y69500D01*
X218300Y71500D02*X218800Y71000D01*
X223500Y73500D02*Y69500D01*
X223000D02*X223500Y70000D01*
X222000Y69500D02*X223000D01*
X221500Y70000D02*X222000Y69500D01*
X221500Y71000D02*Y70000D01*
Y71000D02*X222000Y71500D01*
X223000D01*
X223500Y71000D01*
X227000D02*Y69500D01*
Y71000D02*X227500Y71500D01*
X228500D01*
X226500D02*X227000Y71000D01*
X230200Y69500D02*X231700D01*
X229700Y70000D02*X230200Y69500D01*
X229700Y71000D02*Y70000D01*
Y71000D02*X230200Y71500D01*
X231200D01*
X231700Y71000D01*
X229700Y70500D02*X231700D01*
Y71000D02*Y70500D01*
X234900Y73500D02*Y69500D01*
X234400D02*X234900Y70000D01*
X233400Y69500D02*X234400D01*
X232900Y70000D02*X233400Y69500D01*
X232900Y71000D02*Y70000D01*
Y71000D02*X233400Y71500D01*
X234400D01*
X234900Y71000D01*
X236600Y69500D02*X238100D01*
X236100Y70000D02*X236600Y69500D01*
X236100Y71000D02*Y70000D01*
Y71000D02*X236600Y71500D01*
X237600D01*
X238100Y71000D01*
X236100Y70500D02*X238100D01*
Y71000D02*Y70500D01*
X239800Y69500D02*X241300D01*
X241800Y70000D01*
X241300Y70500D02*X241800Y70000D01*
X239800Y70500D02*X241300D01*
X239300Y71000D02*X239800Y70500D01*
X239300Y71000D02*X239800Y71500D01*
X241300D01*
X241800Y71000D01*
X239300Y70000D02*X239800Y69500D01*
X243000Y72500D02*Y72000D01*
Y71000D02*Y69500D01*
X245500Y71500D02*X246000Y71000D01*
X244500Y71500D02*X245500D01*
X244000Y71000D02*X244500Y71500D01*
X244000Y71000D02*Y70000D01*
X244500Y69500D01*
X245500D01*
X246000Y70000D01*
X244000Y68500D02*X244500Y68000D01*
X245500D01*
X246000Y68500D01*
Y71500D02*Y68500D01*
X247700Y71000D02*Y69500D01*
Y71000D02*X248200Y71500D01*
X248700D01*
X249200Y71000D01*
Y69500D01*
X247200Y71500D02*X247700Y71000D01*
X250400Y68500D02*X251400Y69500D01*
X254900Y71000D02*Y69500D01*
Y71000D02*X255400Y71500D01*
X255900D01*
X256400Y71000D01*
Y69500D01*
Y71000D02*X256900Y71500D01*
X257400D01*
X257900Y71000D01*
Y69500D01*
X254400Y71500D02*X254900Y71000D01*
X259100D02*Y70000D01*
Y71000D02*X259600Y71500D01*
X260600D01*
X261100Y71000D01*
Y70000D01*
X260600Y69500D02*X261100Y70000D01*
X259600Y69500D02*X260600D01*
X259100Y70000D02*X259600Y69500D01*
X262800Y71000D02*Y69500D01*
Y71000D02*X263300Y71500D01*
X263800D01*
X264300Y71000D01*
Y69500D01*
X262300Y71500D02*X262800Y71000D01*
X265500Y72500D02*Y72000D01*
Y71000D02*Y69500D01*
X267000Y73500D02*Y70000D01*
X267500Y69500D01*
X266500Y72000D02*X267500D01*
X268500Y71000D02*Y70000D01*
Y71000D02*X269000Y71500D01*
X270000D01*
X270500Y71000D01*
Y70000D01*
X270000Y69500D02*X270500Y70000D01*
X269000Y69500D02*X270000D01*
X268500Y70000D02*X269000Y69500D01*
X272200Y71000D02*Y69500D01*
Y71000D02*X272700Y71500D01*
X273700D01*
X271700D02*X272200Y71000D01*
X278200Y71500D02*X278700Y71000D01*
X277200Y71500D02*X278200D01*
X276700Y71000D02*X277200Y71500D01*
X276700Y71000D02*Y70000D01*
X277200Y69500D01*
X278700Y71500D02*Y70000D01*
X279200Y69500D01*
X277200D02*X278200D01*
X278700Y70000D01*
X280900Y71000D02*Y69500D01*
Y71000D02*X281400Y71500D01*
X281900D01*
X282400Y71000D01*
Y69500D01*
X280400Y71500D02*X280900Y71000D01*
X285600Y73500D02*Y69500D01*
X285100D02*X285600Y70000D01*
X284100Y69500D02*X285100D01*
X283600Y70000D02*X284100Y69500D01*
X283600Y71000D02*Y70000D01*
Y71000D02*X284100Y71500D01*
X285100D01*
X285600Y71000D01*
X289100Y73500D02*Y69500D01*
X288600Y73500D02*X290600D01*
X291100Y73000D01*
Y72000D01*
X290600Y71500D02*X291100Y72000D01*
X289100Y71500D02*X290600D01*
X292800Y69500D02*X294300D01*
X292300Y70000D02*X292800Y69500D01*
X292300Y73000D02*Y70000D01*
Y73000D02*X292800Y73500D01*
X294300D01*
X295500Y69500D02*X297500D01*
X298000Y70000D01*
Y71000D02*Y70000D01*
X297500Y71500D02*X298000Y71000D01*
X296000Y71500D02*X297500D01*
X296000Y73500D02*Y69500D01*
X295500Y73500D02*X297500D01*
X298000Y73000D01*
Y72000D01*
X297500Y71500D02*X298000Y72000D01*
X302500Y71500D02*X303000Y71000D01*
X301500Y71500D02*X302500D01*
X301000Y71000D02*X301500Y71500D01*
X301000Y71000D02*Y70000D01*
X301500Y69500D01*
X303000Y71500D02*Y70000D01*
X303500Y69500D01*
X301500D02*X302500D01*
X303000Y70000D01*
X305200Y71000D02*Y69500D01*
Y71000D02*X305700Y71500D01*
X306700D01*
X304700D02*X305200Y71000D01*
X308400Y73500D02*Y70000D01*
X308900Y69500D01*
X307900Y72000D02*X308900D01*
X309900Y71500D02*Y70000D01*
X310400Y69500D01*
X310900D01*
X311400Y70000D01*
Y71500D02*Y70000D01*
X311900Y69500D01*
X312400D01*
X312900Y70000D01*
Y71500D02*Y70000D01*
X314100Y71000D02*Y70000D01*
Y71000D02*X314600Y71500D01*
X315600D01*
X316100Y71000D01*
Y70000D01*
X315600Y69500D02*X316100Y70000D01*
X314600Y69500D02*X315600D01*
X314100Y70000D02*X314600Y69500D01*
X317800Y71000D02*Y69500D01*
Y71000D02*X318300Y71500D01*
X319300D01*
X317300D02*X317800Y71000D01*
X320500Y73500D02*Y69500D01*
Y71000D02*X322000Y69500D01*
X320500Y71000D02*X321500Y72000D01*
X325000Y73500D02*Y69500D01*
Y70000D02*X325500Y69500D01*
X326500D01*
X327000Y70000D01*
Y71000D02*Y70000D01*
X326500Y71500D02*X327000Y71000D01*
X325500Y71500D02*X326500D01*
X325000Y71000D02*X325500Y71500D01*
X328200D02*Y70000D01*
X328700Y69500D01*
X330200Y71500D02*Y68500D01*
X329700Y68000D02*X330200Y68500D01*
X328700Y68000D02*X329700D01*
X328200Y68500D02*X328700Y68000D01*
Y69500D02*X329700D01*
X330200Y70000D01*
X333200Y72000D02*X333700D01*
X333200Y71000D02*X333700D01*
X336700Y71500D02*X338200D01*
X336700Y69500D02*X338700D01*
X336700Y73500D02*Y69500D01*
Y73500D02*X338700D01*
X339900Y71500D02*X341400D01*
X339900Y69500D02*X341900D01*
X339900Y73500D02*Y69500D01*
Y73500D02*X341900D01*
X343100D02*Y69500D01*
Y73500D02*X345100D01*
X343100Y71500D02*X344600D01*
X204000Y94500D02*X204500Y94000D01*
X202500Y94500D02*X204000D01*
X202000Y94000D02*X202500Y94500D01*
X202000Y94000D02*Y93000D01*
X202500Y92500D01*
X204000D01*
X204500Y92000D01*
Y91000D01*
X204000Y90500D02*X204500Y91000D01*
X202500Y90500D02*X204000D01*
X202000Y91000D02*X202500Y90500D01*
X206200Y94500D02*Y91000D01*
X206700Y90500D01*
X205700Y93000D02*X206700D01*
X209200Y92500D02*X209700Y92000D01*
X208200Y92500D02*X209200D01*
X207700Y92000D02*X208200Y92500D01*
X207700Y92000D02*Y91000D01*
X208200Y90500D01*
X209700Y92500D02*Y91000D01*
X210200Y90500D01*
X208200D02*X209200D01*
X209700Y91000D01*
X211900Y92000D02*Y90500D01*
Y92000D02*X212400Y92500D01*
X213400D01*
X211400D02*X211900Y92000D01*
X215100Y94500D02*Y91000D01*
X215600Y90500D01*
X214600Y93000D02*X215600D01*
X216600Y94500D02*Y91000D01*
X217100Y90500D01*
X218600D02*X220100D01*
X218100Y91000D02*X218600Y90500D01*
X218100Y92000D02*Y91000D01*
Y92000D02*X218600Y92500D01*
X219600D01*
X220100Y92000D01*
X218100Y91500D02*X220100D01*
Y92000D02*Y91500D01*
X223100Y94000D02*Y91000D01*
Y94000D02*X223600Y94500D01*
X224600D01*
X225100Y94000D01*
Y91000D01*
X224600Y90500D02*X225100Y91000D01*
X223600Y90500D02*X224600D01*
X223100Y91000D02*X223600Y90500D01*
X226800Y92000D02*Y89000D01*
X226300Y92500D02*X226800Y92000D01*
X227300Y92500D01*
X228300D01*
X228800Y92000D01*
Y91000D01*
X228300Y90500D02*X228800Y91000D01*
X227300Y90500D02*X228300D01*
X226800Y91000D02*X227300Y90500D01*
X230500Y94500D02*Y91000D01*
X231000Y90500D01*
X230000Y93000D02*X231000D01*
X232000Y93500D02*Y93000D01*
Y92000D02*Y90500D01*
X233500Y92500D02*X235000D01*
X233000Y92000D02*X233500Y92500D01*
X233000Y92000D02*Y91000D01*
X233500Y90500D01*
X235000D01*
X237700Y92500D02*X238200Y92000D01*
X236700Y92500D02*X237700D01*
X236200Y92000D02*X236700Y92500D01*
X236200Y92000D02*Y91000D01*
X236700Y90500D01*
X238200Y92500D02*Y91000D01*
X238700Y90500D01*
X236700D02*X237700D01*
X238200Y91000D01*
X239900Y94500D02*Y91000D01*
X240400Y90500D01*
X245200Y94500D02*X245700Y94000D01*
X243700Y94500D02*X245200D01*
X243200Y94000D02*X243700Y94500D01*
X243200Y94000D02*Y93000D01*
X243700Y92500D01*
X245200D01*
X245700Y92000D01*
Y91000D01*
X245200Y90500D02*X245700Y91000D01*
X243700Y90500D02*X245200D01*
X243200Y91000D02*X243700Y90500D01*
X247400Y94500D02*Y91000D01*
X247900Y90500D01*
X246900Y93000D02*X247900D01*
X248900Y93500D02*Y93000D01*
Y92000D02*Y90500D01*
X250400Y92000D02*Y90500D01*
Y92000D02*X250900Y92500D01*
X251400D01*
X251900Y92000D01*
Y90500D01*
Y92000D02*X252400Y92500D01*
X252900D01*
X253400Y92000D01*
Y90500D01*
X249900Y92500D02*X250400Y92000D01*
X254600Y92500D02*Y91000D01*
X255100Y90500D01*
X256100D01*
X256600Y91000D01*
Y92500D02*Y91000D01*
X257800Y94500D02*Y91000D01*
X258300Y90500D01*
X260800Y92500D02*X261300Y92000D01*
X259800Y92500D02*X260800D01*
X259300Y92000D02*X259800Y92500D01*
X259300Y92000D02*Y91000D01*
X259800Y90500D01*
X261300Y92500D02*Y91000D01*
X261800Y90500D01*
X259800D02*X260800D01*
X261300Y91000D01*
X263500Y94500D02*Y91000D01*
X264000Y90500D01*
X263000Y93000D02*X264000D01*
X265000Y92000D02*Y91000D01*
Y92000D02*X265500Y92500D01*
X266500D01*
X267000Y92000D01*
Y91000D01*
X266500Y90500D02*X267000Y91000D01*
X265500Y90500D02*X266500D01*
X265000Y91000D02*X265500Y90500D01*
X268700Y92000D02*Y90500D01*
Y92000D02*X269200Y92500D01*
X270200D01*
X268200D02*X268700Y92000D01*
X202000Y76500D02*X204000D01*
X204500Y77000D01*
Y78000D02*Y77000D01*
X204000Y78500D02*X204500Y78000D01*
X202500Y78500D02*X204000D01*
X202500Y80500D02*Y76500D01*
X202000Y80500D02*X204000D01*
X204500Y80000D01*
Y79000D01*
X204000Y78500D02*X204500Y79000D01*
X205700Y78500D02*Y77000D01*
X206200Y76500D01*
X207200D01*
X207700Y77000D01*
Y78500D02*Y77000D01*
X208900Y79500D02*Y79000D01*
Y78000D02*Y76500D01*
X209900Y80500D02*Y77000D01*
X210400Y76500D01*
X211900Y80500D02*Y77000D01*
X212400Y76500D01*
X211400Y79000D02*X212400D01*
X216700Y78500D02*X217200Y78000D01*
X215700Y78500D02*X216700D01*
X215200Y78000D02*X215700Y78500D01*
X215200Y78000D02*Y77000D01*
X215700Y76500D01*
X217200Y78500D02*Y77000D01*
X217700Y76500D01*
X215700D02*X216700D01*
X217200Y77000D01*
X219400Y78000D02*Y76500D01*
Y78000D02*X219900Y78500D01*
X220900D01*
X218900D02*X219400Y78000D01*
X222100D02*Y77000D01*
Y78000D02*X222600Y78500D01*
X223600D01*
X224100Y78000D01*
Y77000D01*
X223600Y76500D02*X224100Y77000D01*
X222600Y76500D02*X223600D01*
X222100Y77000D02*X222600Y76500D01*
X225300Y78500D02*Y77000D01*
X225800Y76500D01*
X226800D01*
X227300Y77000D01*
Y78500D02*Y77000D01*
X229000Y78000D02*Y76500D01*
Y78000D02*X229500Y78500D01*
X230000D01*
X230500Y78000D01*
Y76500D01*
X228500Y78500D02*X229000Y78000D01*
X233700Y80500D02*Y76500D01*
X233200D02*X233700Y77000D01*
X232200Y76500D02*X233200D01*
X231700Y77000D02*X232200Y76500D01*
X231700Y78000D02*Y77000D01*
Y78000D02*X232200Y78500D01*
X233200D01*
X233700Y78000D01*
X237200Y80500D02*Y77000D01*
X237700Y76500D01*
X236700Y79000D02*X237700D01*
X238700Y80500D02*Y76500D01*
Y78000D02*X239200Y78500D01*
X240200D01*
X240700Y78000D01*
Y76500D01*
X242400D02*X243900D01*
X241900Y77000D02*X242400Y76500D01*
X241900Y78000D02*Y77000D01*
Y78000D02*X242400Y78500D01*
X243400D01*
X243900Y78000D01*
X241900Y77500D02*X243900D01*
Y78000D02*Y77500D01*
X246900Y80000D02*X247400Y80500D01*
X248400D01*
X248900Y80000D01*
Y77000D01*
X248400Y76500D02*X248900Y77000D01*
X247400Y76500D02*X248400D01*
X246900Y77000D02*X247400Y76500D01*
Y78500D02*X248900D01*
X250100Y77000D02*X250600Y76500D01*
X250100Y80000D02*Y77000D01*
Y80000D02*X250600Y80500D01*
X251600D01*
X252100Y80000D01*
Y77000D01*
X251600Y76500D02*X252100Y77000D01*
X250600Y76500D02*X251600D01*
X250100Y77500D02*X252100Y79500D01*
X253800Y78000D02*Y76500D01*
Y78000D02*X254300Y78500D01*
X254800D01*
X255300Y78000D01*
Y76500D01*
Y78000D02*X255800Y78500D01*
X256300D01*
X256800Y78000D01*
Y76500D01*
X253300Y78500D02*X253800Y78000D01*
X258000Y80000D02*Y76500D01*
Y80000D02*X258500Y80500D01*
X260000D01*
X260500Y80000D01*
Y76500D01*
X258000Y78500D02*X260500D01*
X263500Y80500D02*Y76500D01*
Y78000D02*X264000Y78500D01*
X265000D01*
X265500Y78000D01*
Y76500D01*
X266700Y78000D02*Y77000D01*
Y78000D02*X267200Y78500D01*
X268200D01*
X268700Y78000D01*
Y77000D01*
X268200Y76500D02*X268700Y77000D01*
X267200Y76500D02*X268200D01*
X266700Y77000D02*X267200Y76500D01*
X269900Y78500D02*Y77000D01*
X270400Y76500D01*
X270900D01*
X271400Y77000D01*
Y78500D02*Y77000D01*
X271900Y76500D01*
X272400D01*
X272900Y77000D01*
Y78500D02*Y77000D01*
X274100Y80500D02*Y77000D01*
X274600Y76500D01*
X277100Y78500D02*X277600Y78000D01*
X276100Y78500D02*X277100D01*
X275600Y78000D02*X276100Y78500D01*
X275600Y78000D02*Y77000D01*
X276100Y76500D01*
X277600Y78500D02*Y77000D01*
X278100Y76500D01*
X276100D02*X277100D01*
X277600Y77000D01*
X279800Y78000D02*Y76500D01*
Y78000D02*X280300Y78500D01*
X280800D01*
X281300Y78000D01*
Y76500D01*
X279300Y78500D02*X279800Y78000D01*
X284500Y80500D02*Y76500D01*
X284000D02*X284500Y77000D01*
X283000Y76500D02*X284000D01*
X282500Y77000D02*X283000Y76500D01*
X282500Y78000D02*Y77000D01*
Y78000D02*X283000Y78500D01*
X284000D01*
X284500Y78000D01*
X287500Y76500D02*X289500D01*
X290000Y77000D01*
Y78000D02*Y77000D01*
X289500Y78500D02*X290000Y78000D01*
X288000Y78500D02*X289500D01*
X288000Y80500D02*Y76500D01*
X287500Y80500D02*X289500D01*
X290000Y80000D01*
Y79000D01*
X289500Y78500D02*X290000Y79000D01*
X291200Y78500D02*Y77000D01*
X291700Y76500D01*
X293200Y78500D02*Y75500D01*
X292700Y75000D02*X293200Y75500D01*
X291700Y75000D02*X292700D01*
X291200Y75500D02*X291700Y75000D01*
Y76500D02*X292700D01*
X293200Y77000D01*
X294400Y79000D02*X294900D01*
X294400Y78000D02*X294900D01*
X297900Y80500D02*X298900D01*
X298400D02*Y76500D01*
X297900D02*X298900D01*
X300100Y80500D02*X301600D01*
Y77000D01*
X301100Y76500D02*X301600Y77000D01*
X300600Y76500D02*X301100D01*
X300100Y77000D02*X300600Y76500D01*
X304800Y80500D02*X305300Y80000D01*
X303300Y80500D02*X304800D01*
X302800Y80000D02*X303300Y80500D01*
X302800Y80000D02*Y79000D01*
X303300Y78500D01*
X304800D01*
X305300Y78000D01*
Y77000D01*
X304800Y76500D02*X305300Y77000D01*
X303300Y76500D02*X304800D01*
X302800Y77000D02*X303300Y76500D01*
X202500Y83500D02*X204000D01*
X202000Y84000D02*X202500Y83500D01*
X202000Y87000D02*Y84000D01*
Y87000D02*X202500Y87500D01*
X204000D01*
X205200Y86500D02*Y86000D01*
Y85000D02*Y83500D01*
X206700Y85000D02*Y83500D01*
Y85000D02*X207200Y85500D01*
X208200D01*
X206200D02*X206700Y85000D01*
X209900Y85500D02*X211400D01*
X209400Y85000D02*X209900Y85500D01*
X209400Y85000D02*Y84000D01*
X209900Y83500D01*
X211400D01*
X212600Y85500D02*Y84000D01*
X213100Y83500D01*
X214100D01*
X214600Y84000D01*
Y85500D02*Y84000D01*
X215800Y86500D02*Y86000D01*
Y85000D02*Y83500D01*
X217300Y87500D02*Y84000D01*
X217800Y83500D01*
X216800Y86000D02*X217800D01*
X218800D02*X219300D01*
X218800Y85000D02*X219300D01*
X222300Y87500D02*Y83500D01*
Y87500D02*Y87000D01*
X224800Y84500D01*
Y87500D02*Y83500D01*
X226000Y85000D02*Y84000D01*
Y85000D02*X226500Y85500D01*
X227500D01*
X228000Y85000D01*
Y84000D01*
X227500Y83500D02*X228000Y84000D01*
X226500Y83500D02*X227500D01*
X226000Y84000D02*X226500Y83500D01*
X229700Y87500D02*Y84000D01*
X230200Y83500D01*
X229200Y86000D02*X230200D01*
X233500Y83500D02*X235000D01*
X235500Y84000D01*
X235000Y84500D02*X235500Y84000D01*
X233500Y84500D02*X235000D01*
X233000Y85000D02*X233500Y84500D01*
X233000Y85000D02*X233500Y85500D01*
X235000D01*
X235500Y85000D01*
X233000Y84000D02*X233500Y83500D01*
X236700Y85000D02*Y84000D01*
Y85000D02*X237200Y85500D01*
X238200D01*
X238700Y85000D01*
Y84000D01*
X238200Y83500D02*X238700Y84000D01*
X237200Y83500D02*X238200D01*
X236700Y84000D02*X237200Y83500D01*
X242200D02*X243700D01*
X244200Y84000D01*
X243700Y84500D02*X244200Y84000D01*
X242200Y84500D02*X243700D01*
X241700Y85000D02*X242200Y84500D01*
X241700Y85000D02*X242200Y85500D01*
X243700D01*
X244200Y85000D01*
X241700Y84000D02*X242200Y83500D01*
X245400Y86500D02*Y86000D01*
Y85000D02*Y83500D01*
X246900Y85000D02*Y83500D01*
Y85000D02*X247400Y85500D01*
X247900D01*
X248400Y85000D01*
Y83500D01*
Y85000D02*X248900Y85500D01*
X249400D01*
X249900Y85000D01*
Y83500D01*
X246400Y85500D02*X246900Y85000D01*
X251600D02*Y82000D01*
X251100Y85500D02*X251600Y85000D01*
X252100Y85500D01*
X253100D01*
X253600Y85000D01*
Y84000D01*
X253100Y83500D02*X253600Y84000D01*
X252100Y83500D02*X253100D01*
X251600Y84000D02*X252100Y83500D01*
X254800Y87500D02*Y84000D01*
X255300Y83500D01*
X256800D02*X258300D01*
X256300Y84000D02*X256800Y83500D01*
X256300Y85000D02*Y84000D01*
Y85000D02*X256800Y85500D01*
X257800D01*
X258300Y85000D01*
X256300Y84500D02*X258300D01*
Y85000D02*Y84500D01*
X261800Y83500D02*X262800D01*
X262300Y87500D02*Y83500D01*
X261300Y86500D02*X262300Y87500D01*
X264000Y84000D02*X264500Y83500D01*
X264000Y87000D02*Y84000D01*
Y87000D02*X264500Y87500D01*
X265500D01*
X266000Y87000D01*
Y84000D01*
X265500Y83500D02*X266000Y84000D01*
X264500Y83500D02*X265500D01*
X264000Y84500D02*X266000Y86500D01*
X267700Y85000D02*Y83500D01*
Y85000D02*X268200Y85500D01*
X268700D01*
X269200Y85000D01*
Y83500D01*
Y85000D02*X269700Y85500D01*
X270200D01*
X270700Y85000D01*
Y83500D01*
X267200Y85500D02*X267700Y85000D01*
X271900Y87000D02*Y83500D01*
Y87000D02*X272400Y87500D01*
X273900D01*
X274400Y87000D01*
Y83500D01*
X271900Y85500D02*X274400D01*
X277400Y87500D02*X279400D01*
X279900Y87000D01*
Y86000D01*
X279400Y85500D02*X279900Y86000D01*
X277900Y85500D02*X279400D01*
X277900Y87500D02*Y83500D01*
Y85500D02*X279900Y83500D01*
X281600D02*X283100D01*
X281100Y84000D02*X281600Y83500D01*
X281100Y85000D02*Y84000D01*
Y85000D02*X281600Y85500D01*
X282600D01*
X283100Y85000D01*
X281100Y84500D02*X283100D01*
Y85000D02*Y84500D01*
X284300Y85500D02*Y84500D01*
X285300Y83500D01*
X286300Y84500D01*
Y85500D02*Y84500D01*
X287500Y83500D02*X288000D01*
X289200Y86000D02*X289700D01*
X289200Y85000D02*X289700D01*
X292700Y87000D02*X293200Y87500D01*
X294700D01*
X295200Y87000D01*
Y86000D01*
X292700Y83500D02*X295200Y86000D01*
X292700Y83500D02*X295200D01*
X296400Y84000D02*X296900Y83500D01*
X296400Y87000D02*Y84000D01*
Y87000D02*X296900Y87500D01*
X297900D01*
X298400Y87000D01*
Y84000D01*
X297900Y83500D02*X298400Y84000D01*
X296900Y83500D02*X297900D01*
X296400Y84500D02*X298400Y86500D01*
X300100Y83500D02*X301100D01*
X300600Y87500D02*Y83500D01*
X299600Y86500D02*X300600Y87500D01*
X302300Y85500D02*X304300Y87500D01*
X302300Y85500D02*X304800D01*
X304300Y87500D02*Y83500D01*
X306000D02*X306500D01*
X307700Y84000D02*X308200Y83500D01*
X307700Y87000D02*Y84000D01*
Y87000D02*X308200Y87500D01*
X309200D01*
X309700Y87000D01*
Y84000D01*
X309200Y83500D02*X309700Y84000D01*
X308200Y83500D02*X309200D01*
X307700Y84500D02*X309700Y86500D01*
X310900Y83500D02*X312900Y85500D01*
Y87000D02*Y85500D01*
X312400Y87500D02*X312900Y87000D01*
X311400Y87500D02*X312400D01*
X310900Y87000D02*X311400Y87500D01*
X310900Y87000D02*Y86000D01*
X311400Y85500D01*
X312900D01*
X314100Y83500D02*X314600D01*
X315800Y87000D02*X316300Y87500D01*
X317800D01*
X318300Y87000D01*
Y86000D01*
X315800Y83500D02*X318300Y86000D01*
X315800Y83500D02*X318300D01*
X319500Y87500D02*X321500D01*
X319500D02*Y85500D01*
X320000Y86000D01*
X321000D01*
X321500Y85500D01*
Y84000D01*
X321000Y83500D02*X321500Y84000D01*
X320000Y83500D02*X321000D01*
X319500Y84000D02*X320000Y83500D01*
X109000Y196500D02*X111000D01*
X110000Y197500D02*Y195500D01*
X112700Y194500D02*X113700D01*
X113200Y198500D02*Y194500D01*
X112200Y197500D02*X113200Y198500D01*
X114900D02*X116900D01*
X114900D02*Y196500D01*
X115400Y197000D01*
X116400D01*
X116900Y196500D01*
Y195000D01*
X116400Y194500D02*X116900Y195000D01*
X115400Y194500D02*X116400D01*
X114900Y195000D02*X115400Y194500D01*
X118100Y198500D02*Y195500D01*
X119100Y194500D01*
X120100Y195500D01*
Y198500D02*Y195500D01*
X317000Y228500D02*X318500D01*
X316500Y229000D02*X317000Y228500D01*
X316500Y232000D02*Y229000D01*
Y232000D02*X317000Y232500D01*
X318500D01*
X319700D02*Y228500D01*
Y230000D02*X320200Y230500D01*
X321200D01*
X321700Y230000D01*
Y228500D01*
X324400Y230500D02*X324900Y230000D01*
X323400Y230500D02*X324400D01*
X322900Y230000D02*X323400Y230500D01*
X322900Y230000D02*Y229000D01*
X323400Y228500D01*
X324900Y230500D02*Y229000D01*
X325400Y228500D01*
X323400D02*X324400D01*
X324900Y229000D01*
X327100Y228500D02*X328600D01*
X329100Y229000D01*
X328600Y229500D02*X329100Y229000D01*
X327100Y229500D02*X328600D01*
X326600Y230000D02*X327100Y229500D01*
X326600Y230000D02*X327100Y230500D01*
X328600D01*
X329100Y230000D01*
X326600Y229000D02*X327100Y228500D01*
X330800D02*X332300D01*
X332800Y229000D01*
X332300Y229500D02*X332800Y229000D01*
X330800Y229500D02*X332300D01*
X330300Y230000D02*X330800Y229500D01*
X330300Y230000D02*X330800Y230500D01*
X332300D01*
X332800Y230000D01*
X330300Y229000D02*X330800Y228500D01*
X334000Y231500D02*Y231000D01*
Y230000D02*Y228500D01*
X335500D02*X337000D01*
X337500Y229000D01*
X337000Y229500D02*X337500Y229000D01*
X335500Y229500D02*X337000D01*
X335000Y230000D02*X335500Y229500D01*
X335000Y230000D02*X335500Y230500D01*
X337000D01*
X337500Y230000D01*
X335000Y229000D02*X335500Y228500D01*
X163500Y161500D02*Y158500D01*
X164500Y157500D01*
X165500Y158500D01*
Y161500D02*Y158500D01*
X167200Y161500D02*Y157500D01*
X168700Y161500D02*X169200Y161000D01*
Y158000D01*
X168700Y157500D02*X169200Y158000D01*
X166700Y157500D02*X168700D01*
X166700Y161500D02*X168700D01*
X170400D02*X172400D01*
X172900Y161000D01*
Y160000D01*
X172400Y159500D02*X172900Y160000D01*
X170900Y159500D02*X172400D01*
X170900Y161500D02*Y157500D01*
Y159500D02*X172900Y157500D01*
X174100Y161500D02*X175100D01*
X174600D02*Y157500D01*
X174100D02*X175100D01*
X176300Y161500D02*Y158500D01*
X177300Y157500D01*
X178300Y158500D01*
Y161500D02*Y158500D01*
X179500Y159500D02*X181000D01*
X179500Y157500D02*X181500D01*
X179500Y161500D02*Y157500D01*
Y161500D02*X181500D01*
X173000Y187500D02*X174000D01*
X173500D02*Y183500D01*
X173000D02*X174000D01*
X175700Y185000D02*Y183500D01*
Y185000D02*X176200Y185500D01*
X176700D01*
X177200Y185000D01*
Y183500D01*
X175200Y185500D02*X175700Y185000D01*
X178900D02*Y182000D01*
X178400Y185500D02*X178900Y185000D01*
X179400Y185500D01*
X180400D01*
X180900Y185000D01*
Y184000D01*
X180400Y183500D02*X180900Y184000D01*
X179400Y183500D02*X180400D01*
X178900Y184000D02*X179400Y183500D01*
X182100Y185500D02*Y184000D01*
X182600Y183500D01*
X183600D01*
X184100Y184000D01*
Y185500D02*Y184000D01*
X185800Y187500D02*Y184000D01*
X186300Y183500D01*
X185300Y186000D02*X186300D01*
X143300Y164750D02*X143800D01*
X143925Y164875D01*
Y165125D02*Y164875D01*
X143800Y165250D02*X143925Y165125D01*
X143425Y165250D02*X143800D01*
X143425Y165750D02*Y164750D01*
X143300Y165750D02*X143800D01*
X143925Y165625D01*
Y165375D01*
X143800Y165250D02*X143925Y165375D01*
X144225Y165125D02*Y164875D01*
Y165125D02*X144350Y165250D01*
X144600D01*
X144725Y165125D01*
Y164875D01*
X144600Y164750D02*X144725Y164875D01*
X144350Y164750D02*X144600D01*
X144225Y164875D02*X144350Y164750D01*
X145025Y165250D02*X145525Y164750D01*
X145025D02*X145525Y165250D01*
X139750Y164600D02*X139900D01*
X139700Y164650D02*X139750Y164600D01*
X139700Y164950D02*Y164650D01*
Y164950D02*X139750Y165000D01*
X139900D01*
X140170Y164800D02*X140220Y164750D01*
X140070Y164800D02*X140170D01*
X140020Y164750D02*X140070Y164800D01*
X140020Y164750D02*Y164650D01*
X140070Y164600D01*
X140220Y164800D02*Y164650D01*
X140270Y164600D01*
X140070D02*X140170D01*
X140220Y164650D01*
X140390Y165000D02*Y164650D01*
X140440Y164600D01*
X140540Y165000D02*Y164650D01*
X140590Y164600D01*
X139450Y165800D02*Y165400D01*
X139400Y165800D02*X139600D01*
X139650Y165750D01*
Y165650D01*
X139600Y165600D02*X139650Y165650D01*
X139450Y165600D02*X139600D01*
X139770D02*Y165450D01*
X139820Y165400D01*
X139920D01*
X139970Y165450D01*
Y165600D02*Y165450D01*
X140090Y165800D02*Y165400D01*
Y165450D02*X140140Y165400D01*
X140240D01*
X140290Y165450D01*
Y165550D02*Y165450D01*
X140240Y165600D02*X140290Y165550D01*
X140140Y165600D02*X140240D01*
X140090Y165550D02*X140140Y165600D01*
X140410Y165800D02*Y165450D01*
X140460Y165400D01*
X140560Y165700D02*Y165650D01*
Y165550D02*Y165400D01*
X140710Y165600D02*X140860D01*
X140660Y165550D02*X140710Y165600D01*
X140660Y165550D02*Y165450D01*
X140710Y165400D01*
X140860D01*
X132750Y165900D02*Y164700D01*
X132600Y165900D02*X133200D01*
X133350Y165750D01*
Y165450D01*
X133200Y165300D02*X133350Y165450D01*
X132750Y165300D02*X133200D01*
X133710Y165150D02*Y164850D01*
Y165150D02*X133860Y165300D01*
X134160D01*
X134310Y165150D01*
Y164850D01*
X134160Y164700D02*X134310Y164850D01*
X133860Y164700D02*X134160D01*
X133710Y164850D02*X133860Y164700D01*
X134670Y165900D02*Y164850D01*
X134820Y164700D01*
X135120Y165600D02*Y165450D01*
Y165150D02*Y164700D01*
X135570Y165300D02*X136020D01*
X135420Y165150D02*X135570Y165300D01*
X135420Y165150D02*Y164850D01*
X135570Y164700D01*
X136020D01*
X136530D02*X136980D01*
X136380Y164850D02*X136530Y164700D01*
X136380Y165150D02*Y164850D01*
Y165150D02*X136530Y165300D01*
X136830D01*
X136980Y165150D01*
X136380Y165000D02*X136980D01*
Y165150D02*Y165000D01*
X59500Y93000D02*Y91000D01*
X61500Y95700D02*Y94700D01*
X57500Y95200D02*X61500D01*
X58500Y94200D02*X57500Y95200D01*
Y98900D02*Y96900D01*
X59500D01*
X59000Y97400D01*
Y98400D02*Y97400D01*
Y98400D02*X59500Y98900D01*
X61000D01*
X61500Y98400D02*X61000Y98900D01*
X61500Y98400D02*Y97400D01*
X61000Y96900D02*X61500Y97400D01*
X57500Y100100D02*X60500D01*
X61500Y101100D01*
X60500Y102100D01*
X57500D02*X60500D01*
X41500Y93000D02*Y91500D01*
X41000Y91000D02*X41500Y91500D01*
X38000Y91000D02*X41000D01*
X38000D02*X37500Y91500D01*
Y93000D02*Y91500D01*
Y94200D02*X41500D01*
X40000D02*X39500Y94700D01*
Y95700D02*Y94700D01*
Y95700D02*X40000Y96200D01*
X41500D01*
X39500Y98900D02*X40000Y99400D01*
X39500Y98900D02*Y97900D01*
X40000Y97400D02*X39500Y97900D01*
X40000Y97400D02*X41000D01*
X41500Y97900D01*
X39500Y99400D02*X41000D01*
X41500Y99900D01*
Y98900D02*Y97900D01*
Y98900D02*X41000Y99400D01*
X41500Y103100D02*Y101600D01*
Y103100D02*X41000Y103600D01*
X40500Y103100D02*X41000Y103600D01*
X40500Y103100D02*Y101600D01*
X40000Y101100D02*X40500Y101600D01*
X40000Y101100D02*X39500Y101600D01*
Y103100D02*Y101600D01*
Y103100D02*X40000Y103600D01*
X41000Y101100D02*X41500Y101600D01*
Y106800D02*Y105300D01*
Y106800D02*X41000Y107300D01*
X40500Y106800D02*X41000Y107300D01*
X40500Y106800D02*Y105300D01*
X40000Y104800D02*X40500Y105300D01*
X40000Y104800D02*X39500Y105300D01*
Y106800D02*Y105300D01*
Y106800D02*X40000Y107300D01*
X41000Y104800D02*X41500Y105300D01*
X38500Y108500D02*X39000D01*
X40000D02*X41500D01*
Y111500D02*Y110000D01*
Y111500D02*X41000Y112000D01*
X40500Y111500D02*X41000Y112000D01*
X40500Y111500D02*Y110000D01*
X40000Y109500D02*X40500Y110000D01*
X40000Y109500D02*X39500Y110000D01*
Y111500D02*Y110000D01*
Y111500D02*X40000Y112000D01*
X41000Y109500D02*X41500Y110000D01*
X49500Y93000D02*Y91000D01*
X48500Y92000D02*X50500D01*
X51500Y95700D02*Y94700D01*
X47500Y95200D02*X51500D01*
X48500Y94200D02*X47500Y95200D01*
Y98900D02*Y96900D01*
X49500D01*
X49000Y97400D01*
Y98400D02*Y97400D01*
Y98400D02*X49500Y98900D01*
X51000D01*
X51500Y98400D02*X51000Y98900D01*
X51500Y98400D02*Y97400D01*
X51000Y96900D02*X51500Y97400D01*
X47500Y100100D02*X50500D01*
X51500Y101100D01*
X50500Y102100D01*
X47500D02*X50500D01*
X67500Y93000D02*X68000Y93500D01*
X67500Y93000D02*Y91500D01*
X68000Y91000D02*X67500Y91500D01*
X68000Y91000D02*X71000D01*
X71500Y91500D01*
Y93000D02*Y91500D01*
Y93000D02*X71000Y93500D01*
X70000D02*X71000D01*
X69500Y93000D02*X70000Y93500D01*
X69500Y93000D02*Y92000D01*
X67500Y94700D02*X71500D01*
X67500D02*X68000D01*
X70500Y97200D01*
X67500D02*X71500D01*
X67500Y98900D02*X71500D01*
X67500Y100400D02*X68000Y100900D01*
X71000D01*
X71500Y100400D02*X71000Y100900D01*
X71500Y100400D02*Y98400D01*
X67500Y100400D02*Y98400D01*
X48500Y167500D02*Y164500D01*
Y167500D02*X49000Y168000D01*
X50000D01*
X50500Y167500D01*
Y164500D01*
X50000Y164000D02*X50500Y164500D01*
X49000Y164000D02*X50000D01*
X48500Y164500D02*X49000Y164000D01*
X51700Y168000D02*Y164000D01*
Y168000D02*Y167500D01*
X54200Y165000D01*
Y168000D02*Y164000D01*
X55400Y164500D02*X58400Y167500D01*
X59600D02*Y164500D01*
Y167500D02*X60100Y168000D01*
X61100D01*
X61600Y167500D01*
Y164500D01*
X61100Y164000D02*X61600Y164500D01*
X60100Y164000D02*X61100D01*
X59600Y164500D02*X60100Y164000D01*
X62800Y168000D02*Y164000D01*
Y168000D02*X64800D01*
X62800Y166000D02*X64300D01*
X66000Y168000D02*Y164000D01*
Y168000D02*X68000D01*
X66000Y166000D02*X67500D01*
X104000Y107500D02*X106000D01*
X107700Y105500D02*X108700D01*
X108200Y109500D02*Y105500D01*
X107200Y108500D02*X108200Y109500D01*
X109900D02*X111900D01*
X109900D02*Y107500D01*
X110400Y108000D01*
X111400D01*
X111900Y107500D01*
Y106000D01*
X111400Y105500D02*X111900Y106000D01*
X110400Y105500D02*X111400D01*
X109900Y106000D02*X110400Y105500D01*
X113100Y109500D02*Y106500D01*
X114100Y105500D01*
X115100Y106500D01*
Y109500D02*Y106500D01*
X415000Y83500D02*G75*G03X415000Y83500I10000J0D01*G01*
X372500Y153500D02*G75*G03X372500Y153500I10000J0D01*G01*
X345000Y83500D02*G75*G03X345000Y83500I10000J0D01*G01*
X415000Y113500D02*G75*G03X415000Y113500I10000J0D01*G01*
X370000Y118500D02*Y78500D01*
X410000D02*X370000D01*
X410000Y118500D02*Y78500D01*
X385000Y118500D02*X370000D01*
X410000D02*X395000D01*
X385000D02*G75*G03X395000Y118500I5000J0D01*G01*
X400200Y176000D02*Y166000D01*
Y146000D02*Y136000D01*
X403500Y166000D02*Y146000D01*
X396900D02*X403500D01*
X396900Y166000D02*Y146000D01*
Y166000D02*X403500D01*
X228500Y229000D02*Y247320D01*
X286500Y190150D02*Y211000D01*
X228500Y190150D02*X286500D01*
X228500Y247350D02*X286500D01*
Y229000D02*Y247350D01*
X228500Y190150D02*Y211000D01*
X248000Y230000D02*X251000D01*
X250000Y235000D02*X251000Y234000D01*
Y233000D01*
X248000Y230000D01*
X256000Y235000D02*X253000D01*
Y233000D01*
X255000D01*
X256000Y232000D01*
Y231000D01*
X255000Y230000D01*
X254000D01*
X253000Y231000D01*
X248000Y234000D02*X249000Y235000D01*
X250000D01*
X267500D02*Y230000D01*
X265500Y232000D02*Y230000D01*
Y234000D02*Y235000D01*
X264000Y230000D02*Y232500D01*
X262500Y231000D01*
X261000Y232500D01*
Y230000D01*
X231000Y245500D02*Y239500D01*
Y245500D02*X233000D01*
X234000Y244500D01*
Y243500D01*
X233000Y242500D01*
X231000D01*
X236000D02*X235000Y241500D01*
Y240500D01*
X236000Y239500D01*
X237000D01*
X238000Y240500D01*
Y241500D01*
X237000Y242500D01*
X236000D01*
X238000Y240500D02*X239000Y239500D01*
X244000Y241500D02*X243000Y242500D01*
X242000D01*
X241000Y241500D01*
Y239500D02*Y242500D01*
X247000Y245500D02*Y239500D01*
X248000Y243500D02*X246000D01*
X252000Y239500D02*X251000Y240500D01*
Y241500D01*
X252000Y242500D01*
X253000D01*
X254000Y241500D01*
Y240500D01*
X253000Y239500D01*
X252000D01*
X256000Y242500D02*Y240500D01*
X257000Y239500D01*
X258000Y240500D01*
Y242500D01*
X260000Y239500D02*X262000D01*
Y242500D02*X260000D01*
Y239500D01*
X266000Y242500D02*X265000D01*
X264000Y241500D01*
Y239500D02*Y242500D01*
X267000Y241500D02*X266000Y242500D01*
X270000Y239500D02*X272000D01*
Y242500D02*X270000D01*
Y239500D01*
X276000Y242500D02*X275000D01*
X274000Y241500D01*
Y240500D01*
X275000Y239500D01*
X276000D01*
Y245500D01*
X280000Y242500D02*X279000D01*
X278000Y241500D01*
Y240500D01*
X279000Y239500D01*
X280000D01*
Y242500D02*Y237500D01*
X279000Y236500D01*
X278000Y237500D01*
X282000Y239500D02*X284000D01*
Y242500D02*X282000D01*
Y239500D01*
X283500Y241000D02*X282000D01*
X271500D02*X270000D01*
X261500D02*X260000D01*
X271000Y246000D02*X270000Y245000D01*
X271000Y246000D02*X272000Y245000D01*
X271000Y244000D02*Y246000D01*
X366000Y229000D02*Y247320D01*
X424000Y190150D02*Y211000D01*
X366000Y190150D02*X424000D01*
X366000Y247350D02*X424000D01*
Y229000D02*Y247350D01*
X366000Y190150D02*Y211000D01*
X385500Y230000D02*X388500D01*
X387500Y235000D02*X388500Y234000D01*
Y233000D01*
X385500Y230000D01*
X393500Y235000D02*X390500D01*
Y233000D01*
X392500D01*
X393500Y232000D01*
Y231000D01*
X392500Y230000D01*
X391500D01*
X390500Y231000D01*
X385500Y234000D02*X386500Y235000D01*
X387500D01*
X405000D02*Y230000D01*
X403000Y232000D02*Y230000D01*
Y234000D02*Y235000D01*
X401500Y230000D02*Y232500D01*
X400000Y231000D01*
X398500Y232500D01*
Y230000D01*
X368500Y245500D02*Y239500D01*
Y245500D02*X370500D01*
X371500Y244500D01*
Y243500D01*
X370500Y242500D01*
X368500D01*
X373500D02*X372500Y241500D01*
Y240500D01*
X373500Y239500D01*
X374500D01*
X375500Y240500D01*
Y241500D01*
X374500Y242500D01*
X373500D01*
X375500Y240500D02*X376500Y239500D01*
X381500Y241500D02*X380500Y242500D01*
X379500D01*
X378500Y241500D01*
Y239500D02*Y242500D01*
X384500Y245500D02*Y239500D01*
X385500Y243500D02*X383500D01*
X389500Y239500D02*X388500Y240500D01*
Y241500D01*
X389500Y242500D01*
X390500D01*
X391500Y241500D01*
Y240500D01*
X390500Y239500D01*
X389500D01*
X393500Y242500D02*Y240500D01*
X394500Y239500D01*
X395500Y240500D01*
Y242500D01*
X397500Y239500D02*X399500D01*
Y242500D02*X397500D01*
Y239500D01*
X403500Y242500D02*X402500D01*
X401500Y241500D01*
Y239500D02*Y242500D01*
X404500Y241500D02*X403500Y242500D01*
X407500Y239500D02*X409500D01*
Y242500D02*X407500D01*
Y239500D01*
X413500Y242500D02*X412500D01*
X411500Y241500D01*
Y240500D01*
X412500Y239500D01*
X413500D01*
Y245500D01*
X417500Y242500D02*X416500D01*
X415500Y241500D01*
Y240500D01*
X416500Y239500D01*
X417500D01*
Y242500D02*Y237500D01*
X416500Y236500D01*
X415500Y237500D01*
X419500Y239500D02*X421500D01*
Y242500D02*X419500D01*
Y239500D01*
X421000Y241000D02*X419500D01*
X409000D02*X407500D01*
X399000D02*X397500D01*
X408500Y246000D02*X407500Y245000D01*
X408500Y246000D02*X409500Y245000D01*
X408500Y244000D02*Y246000D01*
X321500Y193500D02*X331500D01*
X351500D02*X361500D01*
X331500Y196800D02*X351500D01*
Y190200D01*
X331500D01*
Y196800D01*
X321000Y215500D02*X331000D01*
Y225500D02*Y215500D01*
X321000Y225500D02*X331000D01*
X321000D02*Y215500D01*
X331000Y225500D02*Y215500D01*
X321000Y225500D02*X331000D01*
X322500Y178500D02*X332500D01*
X352500D02*X362500D01*
X332500Y181800D02*X352500D01*
Y175200D01*
X332500D01*
Y181800D01*
X128500Y229000D02*Y247320D01*
X186500Y190150D02*Y211000D01*
X128500Y190150D02*X186500D01*
X128500Y247350D02*X186500D01*
Y229000D02*Y247350D01*
X128500Y190150D02*Y211000D01*
X148000Y230000D02*X151000D01*
X150000Y235000D02*X151000Y234000D01*
Y233000D01*
X148000Y230000D01*
X156000Y235000D02*X153000D01*
Y233000D01*
X155000D01*
X156000Y232000D01*
Y231000D01*
X155000Y230000D01*
X154000D01*
X153000Y231000D01*
X148000Y234000D02*X149000Y235000D01*
X150000D01*
X167500D02*Y230000D01*
X165500Y232000D02*Y230000D01*
Y234000D02*Y235000D01*
X164000Y230000D02*Y232500D01*
X162500Y231000D01*
X161000Y232500D01*
Y230000D01*
X131000Y245500D02*Y239500D01*
Y245500D02*X133000D01*
X134000Y244500D01*
Y243500D01*
X133000Y242500D01*
X131000D01*
X136000D02*X135000Y241500D01*
Y240500D01*
X136000Y239500D01*
X137000D01*
X138000Y240500D01*
Y241500D01*
X137000Y242500D01*
X136000D01*
X138000Y240500D02*X139000Y239500D01*
X144000Y241500D02*X143000Y242500D01*
X142000D01*
X141000Y241500D01*
Y239500D02*Y242500D01*
X147000Y245500D02*Y239500D01*
X148000Y243500D02*X146000D01*
X152000Y239500D02*X151000Y240500D01*
Y241500D01*
X152000Y242500D01*
X153000D01*
X154000Y241500D01*
Y240500D01*
X153000Y239500D01*
X152000D01*
X156000Y242500D02*Y240500D01*
X157000Y239500D01*
X158000Y240500D01*
Y242500D01*
X160000Y239500D02*X162000D01*
Y242500D02*X160000D01*
Y239500D01*
X166000Y242500D02*X165000D01*
X164000Y241500D01*
Y239500D02*Y242500D01*
X167000Y241500D02*X166000Y242500D01*
X170000Y239500D02*X172000D01*
Y242500D02*X170000D01*
Y239500D01*
X176000Y242500D02*X175000D01*
X174000Y241500D01*
Y240500D01*
X175000Y239500D01*
X176000D01*
Y245500D01*
X180000Y242500D02*X179000D01*
X178000Y241500D01*
Y240500D01*
X179000Y239500D01*
X180000D01*
Y242500D02*Y237500D01*
X179000Y236500D01*
X178000Y237500D01*
X182000Y239500D02*X184000D01*
Y242500D02*X182000D01*
Y239500D01*
X183500Y241000D02*X182000D01*
X171500D02*X170000D01*
X161500D02*X160000D01*
X171000Y246000D02*X170000Y245000D01*
X171000Y246000D02*X172000Y245000D01*
X171000Y244000D02*Y246000D01*
X58500Y209000D02*X57500Y210000D01*
X57000Y199500D02*X57500D01*
X58500Y200500D01*
X56000D02*X57000Y199500D01*
Y203500D02*X56000Y202500D01*
X57500Y203500D02*X57000D01*
X58500Y202500D02*X57500Y203500D01*
Y210000D02*X57000D01*
Y206000D02*X57500D01*
X58500Y207000D01*
X56000D02*X57000Y206000D01*
Y210000D02*X56000Y209000D01*
Y207000D01*
Y202500D02*Y200500D01*
X63500Y216000D02*Y212000D01*
X62500Y216000D02*X64500D01*
X60500Y213000D02*Y215000D01*
X59500Y212000D02*X60500Y213000D01*
X58500Y212000D02*X59500D01*
X58500Y216000D02*Y212000D01*
X36000Y210000D02*X37500D01*
X36000D02*Y206000D01*
X40500Y203500D02*X41500D01*
X42000Y203000D01*
X40000D02*X40500Y203500D01*
X42000Y201500D02*X40000Y199500D01*
X73000Y203500D02*Y199500D01*
X78000Y210000D02*X77000Y209000D01*
X78000Y206000D02*Y210000D01*
X77000Y206000D02*X79000D01*
X73000D02*X75000D01*
X73000Y210000D02*Y206000D01*
X77000Y199500D02*X79000D01*
Y201500D02*X77000Y199500D01*
X79000Y203000D02*Y201500D01*
X78500Y203500D02*X79000Y203000D01*
X77000D02*X77500Y203500D01*
X78500D01*
X40000Y199500D02*X42000D01*
X73000D02*X75000D01*
X41000Y210000D02*X40000Y209000D01*
X41000Y206000D02*Y210000D01*
X40000Y206000D02*X42000D01*
X36000Y203500D02*Y199500D01*
X42000Y203000D02*Y201500D01*
X34500Y235000D02*X36500D01*
X34500Y239000D02*Y235000D01*
X80000Y236500D02*X80500Y235000D01*
X80000Y237000D02*X79000D01*
X80500Y237500D02*X80000Y237000D01*
X80500Y238500D02*Y237500D01*
X80000Y239000D02*X80500Y238500D01*
X78500Y239000D02*X80000D01*
X78500D02*Y235000D01*
X37500Y201000D02*X38000Y199500D01*
X37500Y207500D02*X38000Y206000D01*
X37500Y201500D02*X36500D01*
X38000Y202000D02*X37500Y201500D01*
X38000Y203000D02*Y202000D01*
X37500Y203500D02*X38000Y203000D01*
X36000Y203500D02*X37500D01*
Y208000D02*X36500D01*
X38000Y208500D02*X37500Y208000D01*
X38000Y209500D02*Y208500D01*
X37500Y210000D02*X38000Y209500D01*
X59500Y216000D02*X58500D01*
X60500Y215000D02*X59500Y216000D01*
X56000Y214000D02*X55000D01*
X56500Y214500D02*X56000Y214000D01*
X56500Y215500D02*Y214500D01*
X56000Y216000D02*X56500Y215500D01*
X54500Y216000D02*X56000D01*
X54500Y212000D02*Y216000D01*
X51500D02*X50500D01*
X52500Y215000D02*X51500Y216000D01*
X52500Y213000D02*Y215000D01*
X51500Y212000D02*X52500Y213000D01*
X50500Y212000D02*X51500D01*
X50500Y216000D02*Y212000D01*
X56000Y234500D02*X57500Y236000D01*
X59000Y234500D01*
X60000D02*X57500Y237000D01*
X55000Y234500D02*X60000D01*
X57500Y237000D02*X55000Y234500D01*
X57500Y237000D02*Y229500D01*
X32500Y197000D02*X82500D01*
X32500Y241000D02*Y191000D01*
G54D82*X57500Y184000D02*Y183000D01*
X39000Y184000D02*Y183000D01*
G54D81*X64000Y245500D02*Y247500D01*
X62000Y242000D02*X53000D01*
X76000D02*X73000D01*
X76000Y247500D02*Y242000D01*
X39000Y247500D02*X76000D01*
X39000Y242000D02*Y247500D01*
X42000Y242000D02*X39000D01*
X82500Y241000D02*X73000D01*
X53000D02*X62000D01*
X32500D02*X42000D01*
X47500Y246500D02*Y247500D01*
X51000Y245500D02*Y247500D01*
X63000Y191000D02*X70500D01*
X44500D02*X52000D01*
X82500D02*X81500D01*
X33500D02*X32500D01*
X67500Y246500D02*Y247500D01*
X82500Y191000D02*Y241000D01*
G54D82*X76000Y184000D02*Y183000D01*
G54D81*X297500Y226500D02*Y216500D01*
Y196500D02*Y186500D01*
X300800Y216500D02*Y196500D01*
X294200D02*X300800D01*
X294200Y216500D02*Y196500D01*
Y216500D02*X300800D01*
X109500Y193000D02*X119500D01*
Y183000D01*
X109500Y193000D02*Y183000D01*
Y193000D02*X119500D01*
Y183000D01*
X109500D02*X119500D01*
X227500Y151000D02*X214200D01*
X200800D02*X187500D01*
X214200D02*X200800Y144400D01*
Y157600D01*
X214200Y151000D01*
Y144400D02*Y157600D01*
X167500Y146000D02*X177500D01*
Y156000D02*Y146000D01*
X167500Y156000D02*X177500D01*
X167500D02*Y146000D01*
X177500Y156000D02*Y146000D01*
X167500Y156000D02*X177500D01*
X182500Y138500D02*Y98500D01*
X222500D02*X182500D01*
X222500Y138500D02*Y98500D01*
X197500Y138500D02*X182500D01*
X222500D02*X207500D01*
X197500D02*G75*G03X207500Y138500I5000J0D01*G01*
X197500Y188500D02*G75*G03X197500Y188500I10000J0D01*G01*
X187500Y163500D02*X197500D01*
X217500D02*X227500D01*
X197500Y166800D02*X217500D01*
Y160200D01*
X197500D01*
Y166800D01*
X187500Y173500D02*X197500D01*
X217500D02*X227500D01*
X197500Y176800D02*X217500D01*
Y170200D01*
X197500D01*
Y176800D01*
X232500Y113500D02*X242500D01*
X262500D02*X272500D01*
X242500Y116800D02*X262500D01*
Y110200D01*
X242500D01*
Y116800D01*
X297500Y133500D02*G75*G03X297500Y133500I10000J0D01*G01*
X282500Y143500D02*Y133500D01*
Y113500D02*Y103500D01*
X285800Y133500D02*Y113500D01*
X279200D02*X285800D01*
X279200Y133500D02*Y113500D01*
Y133500D02*X285800D01*
X227500Y118500D02*X237500D01*
Y128500D02*Y118500D01*
X227500Y128500D02*X237500D01*
X227500D02*Y118500D01*
X237500Y128500D02*Y118500D01*
X227500Y128500D02*X237500D01*
X340000Y101500D02*X350000D01*
Y111500D02*Y101500D01*
X340000Y111500D02*X350000D01*
X340000D02*Y101500D01*
X350000Y111500D02*Y101500D01*
X340000Y111500D02*X350000D01*
X252000Y156500D02*X238000D01*
X252071Y156429D02*G75*G03X237929Y156429I-7071J7071D01*G01*
X260000Y163500D02*G75*G03X260000Y163500I10000J0D01*G01*
X275000Y143500D02*X265000D01*
X245000D02*X235000D01*
X265000Y140200D02*X245000D01*
Y146800D01*
X265000D01*
Y140200D01*
X292500Y158500D02*X302500D01*
Y168500D02*Y158500D01*
X292500Y168500D02*X302500D01*
X292500D02*Y158500D01*
X302500Y168500D02*Y158500D01*
X292500Y168500D02*X302500D01*
X322500D02*Y128500D01*
X362500D02*X322500D01*
X362500Y168500D02*Y128500D01*
X337500Y168500D02*X322500D01*
X362500D02*X347500D01*
X337500D02*G75*G03X347500Y168500I5000J0D01*G01*
X135000Y108500D02*X145000D01*
X165000D02*X175000D01*
X145000Y111800D02*X165000D01*
Y105200D01*
X145000D01*
Y111800D01*
X135000Y123500D02*X145000D01*
X165000D02*X175000D01*
X145000Y126800D02*X165000D01*
Y120200D01*
X145000D01*
Y126800D01*
X175000Y78500D02*X161700D01*
X148300D02*X135000D01*
X161700D02*X148300Y71900D01*
Y85100D01*
X161700Y78500D01*
Y71900D02*Y85100D01*
X135000Y93500D02*X145000D01*
X165000D02*X175000D01*
X145000Y96800D02*X165000D01*
Y90200D01*
X145000D01*
Y96800D01*
X117500Y132500D02*X121500D01*
X91500Y134500D02*Y130500D01*
X89500Y132500D02*X93500D01*
X95500D02*G75*G03X95500Y132500I10000J0D01*G01*
X117500Y162500D02*X121500D01*
X91500Y164500D02*Y160500D01*
X89500Y162500D02*X93500D01*
X95500D02*G75*G03X95500Y162500I10000J0D01*G01*
X34500Y72500D02*X74500D01*
Y82500D02*Y72500D01*
X34500Y82500D02*X74500D01*
X34500D02*Y72500D01*
X44500Y82500D02*Y72500D01*
X34500Y82500D02*X44500D01*
X105000Y94000D02*X115000D01*
Y104000D02*Y94000D01*
X105000Y104000D02*X115000D01*
X105000D02*Y94000D01*
X115000Y104000D02*Y94000D01*
X105000Y104000D02*X115000D01*
X423000Y96000D02*X424500D01*
X422500Y96500D02*X423000Y96000D01*
X422500Y99500D02*Y96500D01*
Y99500D02*X423000Y100000D01*
X424500D01*
X425700Y96000D02*X428200Y98500D01*
Y100000D02*Y98500D01*
X425700Y100000D02*X428200D01*
X353000Y96000D02*X354500D01*
X352500Y96500D02*X353000Y96000D01*
X352500Y99500D02*Y96500D01*
Y99500D02*X353000Y100000D01*
X354500D01*
X355700Y96000D02*X357700Y98000D01*
Y99500D02*Y98000D01*
X357200Y100000D02*X357700Y99500D01*
X356200Y100000D02*X357200D01*
X355700Y99500D02*X356200Y100000D01*
X355700Y99500D02*Y98500D01*
X356200Y98000D01*
X357700D01*
X367140Y183260D02*X368640D01*
X366640Y183760D02*X367140Y183260D01*
X366640Y186760D02*Y183760D01*
Y186760D02*X367140Y187260D01*
X368640D01*
X369840Y186760D02*Y183760D01*
Y186760D02*X370340Y187260D01*
X371340D01*
X371840Y186760D01*
Y183760D01*
X371340Y183260D02*X371840Y183760D01*
X370340Y183260D02*X371340D01*
X369840Y183760D02*X370340Y183260D01*
X373040Y187260D02*Y183260D01*
Y187260D02*Y186760D01*
X375540Y184260D01*
Y187260D02*Y183260D01*
X376740Y187260D02*Y183260D01*
Y187260D02*Y186760D01*
X379240Y184260D01*
Y187260D02*Y183260D01*
X380440Y186760D02*X380940Y187260D01*
X381940D01*
X382440Y186760D01*
Y183760D01*
X381940Y183260D02*X382440Y183760D01*
X380940Y183260D02*X381940D01*
X380440Y183760D02*X380940Y183260D01*
Y185260D02*X382440D01*
X305500Y146000D02*X307000D01*
X305000Y146500D02*X305500Y146000D01*
X305000Y149500D02*Y146500D01*
Y149500D02*X305500Y150000D01*
X307000D01*
X308200D02*X310200D01*
X308200D02*Y148000D01*
X308700Y148500D01*
X309700D01*
X310200Y148000D01*
Y146500D01*
X309700Y146000D02*X310200Y146500D01*
X308700Y146000D02*X309700D01*
X308200Y146500D02*X308700Y146000D01*
X340000Y172500D02*Y169000D01*
X340500Y168500D01*
X341500D01*
X342000Y169000D01*
Y172500D02*Y169000D01*
X343200Y172000D02*X343700Y172500D01*
X345200D01*
X345700Y172000D01*
Y171000D01*
X343200Y168500D02*X345700Y171000D01*
X343200Y168500D02*X345700D01*
X291200Y126500D02*Y124500D01*
X290700Y124000D01*
X289700D02*X290700D01*
X289200Y124500D02*X289700Y124000D01*
X289200Y126000D02*Y124500D01*
X287200Y126000D02*X291200D01*
X289200D02*X287200Y124000D01*
X290700Y122800D02*X291200Y122300D01*
Y120800D01*
X290700Y120300D01*
X289700D02*X290700D01*
X287200Y122800D02*X289700Y120300D01*
X287200Y122800D02*Y120300D01*
X423000Y126000D02*X424500D01*
X422500Y126500D02*X423000Y126000D01*
X422500Y129500D02*Y126500D01*
Y129500D02*X423000Y130000D01*
X424500D01*
X425700Y126500D02*X426200Y126000D01*
X425700Y127500D02*Y126500D01*
Y127500D02*X426200Y128000D01*
X427200D01*
X427700Y127500D01*
Y126500D01*
X427200Y126000D02*X427700Y126500D01*
X426200Y126000D02*X427200D01*
X425700Y128500D02*X426200Y128000D01*
X425700Y129500D02*Y128500D01*
Y129500D02*X426200Y130000D01*
X427200D01*
X427700Y129500D01*
Y128500D01*
X427200Y128000D02*X427700Y128500D01*
X387500Y122500D02*Y119000D01*
X388000Y118500D01*
X389000D01*
X389500Y119000D01*
Y122500D02*Y119000D01*
X390700Y122000D02*X391200Y122500D01*
X392200D01*
X392700Y122000D01*
Y119000D01*
X392200Y118500D02*X392700Y119000D01*
X391200Y118500D02*X392200D01*
X390700Y119000D02*X391200Y118500D01*
Y120500D02*X392700D01*
X340000Y122500D02*X342000D01*
X341000D02*Y118500D01*
X343700Y122500D02*Y118500D01*
X343200Y122500D02*X345200D01*
X345700Y122000D01*
Y121000D01*
X345200Y120500D02*X345700Y121000D01*
X343700Y120500D02*X345200D01*
X346900Y122000D02*X347400Y122500D01*
X348900D01*
X349400Y122000D01*
Y121000D01*
X346900Y118500D02*X349400Y121000D01*
X346900Y118500D02*X349400D01*
X292500Y181000D02*X294500D01*
X293500D02*Y177000D01*
X296200Y181000D02*Y177000D01*
X295700Y181000D02*X297700D01*
X298200Y180500D01*
Y179500D01*
X297700Y179000D02*X298200Y179500D01*
X296200Y179000D02*X297700D01*
X299400Y177000D02*X301900Y179500D01*
Y181000D02*Y179500D01*
X299400Y181000D02*X301900D01*
X306800Y209500D02*Y207500D01*
X306300Y207000D01*
X305300D02*X306300D01*
X304800Y207500D02*X305300Y207000D01*
X304800Y209000D02*Y207500D01*
X302800Y209000D02*X306800D01*
X304800D02*X302800Y207000D01*
Y205800D02*X305300Y203300D01*
X306800D01*
Y205800D02*Y203300D01*
X380500Y166000D02*X382000D01*
X380000Y166500D02*X380500Y166000D01*
X380000Y169500D02*Y166500D01*
Y169500D02*X380500Y170000D01*
X382000D01*
X384700D02*X385200Y169500D01*
X383700Y170000D02*X384700D01*
X383200Y169500D02*X383700Y170000D01*
X383200Y169500D02*Y166500D01*
X383700Y166000D01*
X384700Y168000D02*X385200Y167500D01*
X383200Y168000D02*X384700D01*
X383700Y166000D02*X384700D01*
X385200Y166500D01*
Y167500D02*Y166500D01*
X409500Y160000D02*Y158000D01*
X409000Y157500D01*
X408000D02*X409000D01*
X407500Y158000D02*X408000Y157500D01*
X407500Y159500D02*Y158000D01*
X405500Y159500D02*X409500D01*
X407500D02*X405500Y157500D01*
Y155800D02*Y154800D01*
Y155300D02*X409500D01*
X408500Y156300D02*X409500Y155300D01*
X405500Y153100D02*Y152100D01*
Y152600D02*X409500D01*
X408500Y153600D02*X409500Y152600D01*
X337500Y188300D02*X339500D01*
X340000Y187800D01*
Y186800D01*
X339500Y186300D02*X340000Y186800D01*
X338000Y186300D02*X339500D01*
X338000Y188300D02*Y184300D01*
Y186300D02*X340000Y184300D01*
X341700D02*X342700D01*
X342200Y188300D02*Y184300D01*
X341200Y187300D02*X342200Y188300D01*
X343900Y184800D02*X344400Y184300D01*
X343900Y187800D02*Y184800D01*
Y187800D02*X344400Y188300D01*
X345400D01*
X345900Y187800D01*
Y184800D01*
X345400Y184300D02*X345900Y184800D01*
X344400Y184300D02*X345400D01*
X343900Y185300D02*X345900Y187300D01*
X337000Y202800D02*X339000D01*
X339500Y202300D01*
Y201300D01*
X339000Y200800D02*X339500Y201300D01*
X337500Y200800D02*X339000D01*
X337500Y202800D02*Y198800D01*
Y200800D02*X339500Y198800D01*
X341200D02*X342200D01*
X341700Y202800D02*Y198800D01*
X340700Y201800D02*X341700Y202800D01*
X343400Y202300D02*X343900Y202800D01*
X345400D01*
X345900Y202300D01*
Y201300D01*
X343400Y198800D02*X345900Y201300D01*
X343400Y198800D02*X345900D01*
X321500Y236500D02*X323500D01*
X322500D02*Y232500D01*
X325200Y236500D02*Y232500D01*
X324700Y236500D02*X326700D01*
X327200Y236000D01*
Y235000D01*
X326700Y234500D02*X327200Y235000D01*
X325200Y234500D02*X326700D01*
X328900Y232500D02*X329900D01*
X329400Y236500D02*Y232500D01*
X328400Y235500D02*X329400Y236500D01*
X229640Y183260D02*X231140D01*
X229140Y183760D02*X229640Y183260D01*
X229140Y186760D02*Y183760D01*
Y186760D02*X229640Y187260D01*
X231140D01*
X232340Y186760D02*Y183760D01*
Y186760D02*X232840Y187260D01*
X233840D01*
X234340Y186760D01*
Y183760D01*
X233840Y183260D02*X234340Y183760D01*
X232840Y183260D02*X233840D01*
X232340Y183760D02*X232840Y183260D01*
X235540Y187260D02*Y183260D01*
Y187260D02*Y186760D01*
X238040Y184260D01*
Y187260D02*Y183260D01*
X239240Y187260D02*Y183260D01*
Y187260D02*Y186760D01*
X241740Y184260D01*
Y187260D02*Y183260D01*
X242940Y186760D02*X243440Y187260D01*
X244940D01*
X245440Y186760D01*
Y185760D01*
X242940Y183260D02*X245440Y185760D01*
X242940Y183260D02*X245440D01*
X249500Y122200D02*X251500D01*
X252000Y121700D01*
Y120700D01*
X251500Y120200D02*X252000Y120700D01*
X250000Y120200D02*X251500D01*
X250000Y122200D02*Y118200D01*
Y120200D02*X252000Y118200D01*
X253700D02*X254700D01*
X254200Y122200D02*Y118200D01*
X253200Y121200D02*X254200Y122200D01*
X242500Y178500D02*Y175500D01*
Y178500D02*X243000Y179000D01*
X244000D01*
X244500Y178500D01*
Y175500D01*
X244000Y175000D02*X244500Y175500D01*
X243000Y175000D02*X244000D01*
X242500Y175500D02*X243000Y175000D01*
X243500Y176000D02*X244500Y175000D01*
X246200D02*X247200D01*
X246700Y179000D02*Y175000D01*
X245700Y178000D02*X246700Y179000D01*
X268000Y175000D02*X269500D01*
X267500Y175500D02*X268000Y175000D01*
X267500Y178500D02*Y175500D01*
Y178500D02*X268000Y179000D01*
X269500D01*
X271200Y175000D02*X272200D01*
X271700Y179000D02*Y175000D01*
X270700Y178000D02*X271700Y179000D01*
X252000Y152200D02*X254000D01*
X254500Y151700D01*
Y150700D01*
X254000Y150200D02*X254500Y150700D01*
X252500Y150200D02*X254000D01*
X252500Y152200D02*Y148200D01*
Y150200D02*X254500Y148200D01*
X255700Y151700D02*X256200Y152200D01*
X257200D01*
X257700Y151700D01*
Y148700D01*
X257200Y148200D02*X257700Y148700D01*
X256200Y148200D02*X257200D01*
X255700Y148700D02*X256200Y148200D01*
Y150200D02*X257700D01*
X227500Y134000D02*X229500D01*
X228500D02*Y130000D01*
X231200Y134000D02*Y130000D01*
X230700Y134000D02*X232700D01*
X233200Y133500D01*
Y132500D01*
X232700Y132000D02*X233200Y132500D01*
X231200Y132000D02*X232700D01*
X234400D02*X236400Y134000D01*
X234400Y132000D02*X236900D01*
X236400Y134000D02*Y130000D01*
X218000Y157500D02*Y153500D01*
X219500Y157500D02*X220000Y157000D01*
Y154000D01*
X219500Y153500D02*X220000Y154000D01*
X217500Y153500D02*X219500D01*
X217500Y157500D02*X219500D01*
X221200Y157000D02*X221700Y157500D01*
X223200D01*
X223700Y157000D01*
Y156000D01*
X221200Y153500D02*X223700Y156000D01*
X221200Y153500D02*X223700D01*
X193000Y144000D02*Y140500D01*
X193500Y140000D01*
X194500D01*
X195000Y140500D01*
Y144000D02*Y140500D01*
X196700Y140000D02*X197700D01*
X197200Y144000D02*Y140000D01*
X196200Y143000D02*X197200Y144000D01*
X102500D02*X104000D01*
X102000Y144500D02*X102500Y144000D01*
X102000Y147500D02*Y144500D01*
Y147500D02*X102500Y148000D01*
X104000D01*
X105200Y146000D02*X107200Y148000D01*
X105200Y146000D02*X107700D01*
X107200Y148000D02*Y144000D01*
X205000Y200000D02*X206500D01*
X204500Y200500D02*X205000Y200000D01*
X204500Y203500D02*Y200500D01*
Y203500D02*X205000Y204000D01*
X206500D01*
X207700Y203500D02*X208200Y204000D01*
X209700D01*
X210200Y203500D01*
Y202500D01*
X207700Y200000D02*X210200Y202500D01*
X207700Y200000D02*X210200D01*
X109500Y204000D02*X111500D01*
X110500D02*Y200000D01*
X113200Y204000D02*Y200000D01*
X112700Y204000D02*X114700D01*
X115200Y203500D01*
Y202500D01*
X114700Y202000D02*X115200Y202500D01*
X113200Y202000D02*X114700D01*
X116400Y200500D02*X116900Y200000D01*
X116400Y201500D02*Y200500D01*
Y201500D02*X116900Y202000D01*
X117900D01*
X118400Y201500D01*
Y200500D01*
X117900Y200000D02*X118400Y200500D01*
X116900Y200000D02*X117900D01*
X116400Y202500D02*X116900Y202000D01*
X116400Y203500D02*Y202500D01*
Y203500D02*X116900Y204000D01*
X117900D01*
X118400Y203500D01*
Y202500D01*
X117900Y202000D02*X118400Y202500D01*
X219000Y170800D02*X221000D01*
X221500Y170300D01*
Y169300D01*
X221000Y168800D02*X221500Y169300D01*
X219500Y168800D02*X221000D01*
X219500Y170800D02*Y166800D01*
Y168800D02*X221500Y166800D01*
X224200Y170800D02*X224700Y170300D01*
X223200Y170800D02*X224200D01*
X222700Y170300D02*X223200Y170800D01*
X222700Y170300D02*Y167300D01*
X223200Y166800D01*
X224200Y168800D02*X224700Y168300D01*
X222700Y168800D02*X224200D01*
X223200Y166800D02*X224200D01*
X224700Y167300D01*
Y168300D02*Y167300D01*
X167500Y167000D02*X169500D01*
X168500D02*Y163000D01*
X171200Y167000D02*Y163000D01*
X170700Y167000D02*X172700D01*
X173200Y166500D01*
Y165500D01*
X172700Y165000D02*X173200Y165500D01*
X171200Y165000D02*X172700D01*
X174400Y167000D02*X176400D01*
X174400D02*Y165000D01*
X174900Y165500D01*
X175900D01*
X176400Y165000D01*
Y163500D01*
X175900Y163000D02*X176400Y163500D01*
X174900Y163000D02*X175900D01*
X174400Y163500D02*X174900Y163000D01*
X218500Y181200D02*X220500D01*
X221000Y180700D01*
Y179700D01*
X220500Y179200D02*X221000Y179700D01*
X219000Y179200D02*X220500D01*
X219000Y181200D02*Y177200D01*
Y179200D02*X221000Y177200D01*
X222200Y179200D02*X224200Y181200D01*
X222200Y179200D02*X224700D01*
X224200Y181200D02*Y177200D01*
X129640Y183260D02*X131140D01*
X129140Y183760D02*X129640Y183260D01*
X129140Y186760D02*Y183760D01*
Y186760D02*X129640Y187260D01*
X131140D01*
X132340Y186760D02*Y183760D01*
Y186760D02*X132840Y187260D01*
X133840D01*
X134340Y186760D01*
Y183760D01*
X133840Y183260D02*X134340Y183760D01*
X132840Y183260D02*X133840D01*
X132340Y183760D02*X132840Y183260D01*
X135540Y187260D02*Y183260D01*
Y187260D02*Y186760D01*
X138040Y184260D01*
Y187260D02*Y183260D01*
X139240Y187260D02*Y183260D01*
Y187260D02*Y186760D01*
X141740Y184260D01*
Y187260D02*Y183260D01*
X143440D02*X144440D01*
X143940Y187260D02*Y183260D01*
X142940Y186260D02*X143940Y187260D01*
X103000Y174000D02*X104500D01*
X102500Y174500D02*X103000Y174000D01*
X102500Y177500D02*Y174500D01*
Y177500D02*X103000Y178000D01*
X104500D01*
X105700Y177500D02*X106200Y178000D01*
X107200D01*
X107700Y177500D01*
Y174500D01*
X107200Y174000D02*X107700Y174500D01*
X106200Y174000D02*X107200D01*
X105700Y174500D02*X106200Y174000D01*
Y176000D02*X107700D01*
X83000Y185500D02*X83500Y185000D01*
X81500Y185500D02*X83000D01*
X81000Y185000D02*X81500Y185500D01*
X81000Y185000D02*Y184000D01*
X81500Y183500D01*
X83000D01*
X83500Y183000D01*
Y182000D01*
X83000Y181500D02*X83500Y182000D01*
X81500Y181500D02*X83000D01*
X81000Y182000D02*X81500Y181500D01*
X85200D02*X86200D01*
X85700Y185500D02*Y181500D01*
X84700Y184500D02*X85700Y185500D01*
X152000Y117200D02*X154000D01*
X154500Y116700D01*
Y115700D01*
X154000Y115200D02*X154500Y115700D01*
X152500Y115200D02*X154000D01*
X152500Y117200D02*Y113200D01*
Y115200D02*X154500Y113200D01*
X155700Y113700D02*X156200Y113200D01*
X155700Y114700D02*Y113700D01*
Y114700D02*X156200Y115200D01*
X157200D01*
X157700Y114700D01*
Y113700D01*
X157200Y113200D02*X157700Y113700D01*
X156200Y113200D02*X157200D01*
X155700Y115700D02*X156200Y115200D01*
X155700Y116700D02*Y115700D01*
Y116700D02*X156200Y117200D01*
X157200D01*
X157700Y116700D01*
Y115700D01*
X157200Y115200D02*X157700Y115700D01*
X152000Y132200D02*X154000D01*
X154500Y131700D01*
Y130700D01*
X154000Y130200D02*X154500Y130700D01*
X152500Y130200D02*X154000D01*
X152500Y132200D02*Y128200D01*
Y130200D02*X154500Y128200D01*
X155700Y132200D02*X157700D01*
X155700D02*Y130200D01*
X156200Y130700D01*
X157200D01*
X157700Y130200D01*
Y128700D01*
X157200Y128200D02*X157700Y128700D01*
X156200Y128200D02*X157200D01*
X155700Y128700D02*X156200Y128200D01*
X164200Y84100D02*Y80100D01*
X165700Y84100D02*X166200Y83600D01*
Y80600D01*
X165700Y80100D02*X166200Y80600D01*
X163700Y80100D02*X165700D01*
X163700Y84100D02*X165700D01*
X167900Y80100D02*X168900D01*
X168400Y84100D02*Y80100D01*
X167400Y83100D02*X168400Y84100D01*
X152000Y102200D02*X154000D01*
X154500Y101700D01*
Y100700D01*
X154000Y100200D02*X154500Y100700D01*
X152500Y100200D02*X154000D01*
X152500Y102200D02*Y98200D01*
Y100200D02*X154500Y98200D01*
X155700D02*X157700Y100200D01*
Y101700D02*Y100200D01*
X157200Y102200D02*X157700Y101700D01*
X156200Y102200D02*X157200D01*
X155700Y101700D02*X156200Y102200D01*
X155700Y101700D02*Y100700D01*
X156200Y100200D01*
X157700D01*
X35000Y83500D02*X36500D01*
X34500Y84000D02*X35000Y83500D01*
X34500Y87000D02*Y84000D01*
Y87000D02*X35000Y87500D01*
X36500D01*
X37700Y87000D02*Y84000D01*
Y87000D02*X38200Y87500D01*
X39200D01*
X39700Y87000D01*
Y84000D01*
X39200Y83500D02*X39700Y84000D01*
X38200Y83500D02*X39200D01*
X37700Y84000D02*X38200Y83500D01*
X40900Y87500D02*Y83500D01*
Y87500D02*Y87000D01*
X43400Y84500D01*
Y87500D02*Y83500D01*
X44600Y87500D02*Y83500D01*
Y87500D02*Y87000D01*
X47100Y84500D01*
Y87500D02*Y83500D01*
X48300Y87500D02*X50300D01*
X48300D02*Y85500D01*
X48800Y86000D01*
X49800D01*
X50300Y85500D01*
Y84000D01*
X49800Y83500D02*X50300Y84000D01*
X48800Y83500D02*X49800D01*
X48300Y84000D02*X48800Y83500D01*
X105500Y115000D02*X107500D01*
X106500D02*Y111000D01*
X109200Y115000D02*Y111000D01*
X108700Y115000D02*X110700D01*
X111200Y114500D01*
Y113500D01*
X110700Y113000D02*X111200Y113500D01*
X109200Y113000D02*X110700D01*
X112400Y114500D02*X112900Y115000D01*
X113900D01*
X114400Y114500D01*
Y111500D01*
X113900Y111000D02*X114400Y111500D01*
X112900Y111000D02*X113900D01*
X112400Y111500D02*X112900Y111000D01*
Y113000D02*X114400D01*
M02*
