G04 start of page 3 for group 1 idx 1 *
G04 Title: (unknown), component *
G04 Creator: pcb 20110918 *
G04 CreationDate: Tue Oct  7 19:52:02 2014 UTC *
G04 For: fosse *
G04 Format: Gerber/RS-274X *
G04 PCB-Dimensions: 470000 250000 *
G04 PCB-Coordinate-Origin: lower left *
%MOIN*%
%FSLAX25Y25*%
%LNBOTTOM*%
%ADD51C,0.0710*%
%ADD50C,0.0650*%
%ADD49C,0.0790*%
%ADD48C,0.0320*%
%ADD47C,0.0420*%
%ADD46C,0.0380*%
%ADD45C,0.0280*%
%ADD44C,0.0300*%
%ADD43R,0.0690X0.0690*%
%ADD42C,0.0720*%
%ADD41C,0.1050*%
%ADD40C,0.2000*%
%ADD39C,0.0800*%
%ADD38C,0.0500*%
%ADD37C,0.0550*%
%ADD36C,0.0001*%
%ADD35C,0.0200*%
%ADD34C,0.0400*%
%ADD33C,0.0250*%
%ADD32C,0.0600*%
G54D32*X235000Y163500D02*Y143500D01*
X275000Y163500D02*Y164000D01*
G54D33*X327500Y153500D02*X235000D01*
G54D32*X265000Y163500D02*Y173500D01*
X100500D02*X132000Y205000D01*
X275000Y164000D02*X297500Y186500D01*
X364000Y205000D02*X132000D01*
X330000D02*X327500D01*
X265000Y173500D02*X276000Y184500D01*
Y195500D02*Y205000D01*
G54D34*X135000Y78500D02*X142500Y86000D01*
X175000Y108500D02*Y78500D01*
X142500Y86000D02*Y101000D01*
X135000Y108500D01*
G54D32*X187500Y103500D02*Y92500D01*
Y86000D01*
X100500Y132500D02*Y141500D01*
X110500Y151500D01*
Y162500D01*
X100500D02*Y173500D01*
Y133000D02*Y124500D01*
X104000Y121000D01*
X122500D01*
X135250Y108250D01*
X400000Y191000D02*X395000Y196000D01*
X372500Y158500D02*Y196500D01*
X364000Y205000D01*
X357500Y133500D02*X380000D01*
G54D33*X375000Y103500D02*X395000D01*
G54D32*X312500Y133500D02*Y112500D01*
X360000Y83500D02*Y87500D01*
X354000Y93500D01*
X380000Y133500D02*X387500Y141000D01*
Y161000D02*Y141000D01*
X405000Y93500D02*X400000D01*
X395000Y98500D01*
Y131000D01*
X400000Y136000D01*
X385000Y163500D02*X387500Y161000D01*
X385000Y163500D02*Y196000D01*
X377500Y153500D02*X372500Y158500D01*
X400250Y190750D02*Y176050D01*
X400200Y176000D01*
G54D35*X187500Y113500D02*X212000Y108500D01*
X272500Y113500D02*X282500Y103500D01*
G54D32*X312500Y112500D02*X286000Y86000D01*
G54D35*X212000Y108500D02*X227500D01*
X267500D01*
X272500Y113500D01*
G54D32*X354000Y93500D02*X293500D01*
X286000Y86000D02*X187500D01*
G54D36*G36*
X132250Y111250D02*Y105750D01*
X137750D01*
Y111250D01*
X132250D01*
G37*
G36*
Y126250D02*Y120750D01*
X137750D01*
Y126250D01*
X132250D01*
G37*
G54D32*X135000Y78500D03*
G54D36*G36*
X132250Y96250D02*Y90750D01*
X137750D01*
Y96250D01*
X132250D01*
G37*
G54D37*X175000Y108500D03*
G54D36*G36*
X172000Y81500D02*Y75500D01*
X178000D01*
Y81500D01*
X172000D01*
G37*
G54D37*X175000Y93500D03*
Y123500D03*
G54D36*G36*
X184500Y136500D02*Y130500D01*
X190500D01*
Y136500D01*
X184500D01*
G37*
G54D32*X187500Y123500D03*
Y113500D03*
Y103500D03*
G54D36*G36*
X97500Y135500D02*Y129500D01*
X103500D01*
Y135500D01*
X97500D01*
G37*
G36*
X36500Y80500D02*Y74500D01*
X42500D01*
Y80500D01*
X36500D01*
G37*
G54D32*X49500Y77500D03*
X59500D03*
X69500D03*
X110500Y132500D03*
G54D36*G36*
X107000Y102000D02*Y96000D01*
X113000D01*
Y102000D01*
X107000D01*
G37*
G36*
X231400Y167100D02*Y159900D01*
X238600D01*
Y167100D01*
X231400D01*
G37*
G36*
X225000Y153500D02*Y148500D01*
X230000D01*
Y153500D01*
X225000D01*
G37*
G54D38*X187500Y151000D03*
G54D36*G36*
X184750Y166250D02*Y160750D01*
X190250D01*
Y166250D01*
X184750D01*
G37*
G54D37*X227500Y163500D03*
G54D36*G36*
X199500Y191500D02*Y185500D01*
X205500D01*
Y191500D01*
X199500D01*
G37*
G36*
X184750Y176250D02*Y170750D01*
X190250D01*
Y176250D01*
X184750D01*
G37*
G54D39*X147500Y196000D03*
X157500D03*
G54D40*X137500Y220000D03*
X177500D03*
G54D36*G36*
X169500Y154000D02*Y148000D01*
X175500D01*
Y154000D01*
X169500D01*
G37*
G36*
X97500Y165500D02*Y159500D01*
X103500D01*
Y165500D01*
X97500D01*
G37*
G54D32*X110500Y162500D03*
G54D41*X47500Y241000D03*
X67500D03*
G54D36*G36*
X52250Y196250D02*Y185750D01*
X62750D01*
Y196250D01*
X52250D01*
G37*
G54D41*X39000Y191000D03*
X76000D03*
X39000Y176000D03*
X57500D03*
X76000D03*
G54D36*G36*
X111500Y191000D02*Y185000D01*
X117500D01*
Y191000D01*
X111500D01*
G37*
G54D39*X247500Y196000D03*
G54D40*X237500Y220000D03*
G54D39*X257500Y196000D03*
G54D40*X277500Y220000D03*
G54D32*X212500Y188500D03*
G54D37*X227500Y173500D03*
G54D36*G36*
X294750Y229250D02*Y223750D01*
X300250D01*
Y229250D01*
X294750D01*
G37*
G54D37*X297500Y186500D03*
G54D36*G36*
X318750Y196250D02*Y190750D01*
X324250D01*
Y196250D01*
X318750D01*
G37*
G36*
X323000Y223500D02*Y217500D01*
X329000D01*
Y223500D01*
X323000D01*
G37*
G36*
X417000Y86500D02*Y80500D01*
X423000D01*
Y86500D01*
X417000D01*
G37*
G54D32*X430000Y83500D03*
G54D36*G36*
X417000Y116500D02*Y110500D01*
X423000D01*
Y116500D01*
X417000D01*
G37*
G54D32*X430000Y113500D03*
G54D36*G36*
X372000Y116500D02*Y110500D01*
X378000D01*
Y116500D01*
X372000D01*
G37*
G54D32*X405000Y113500D03*
X375000Y103500D03*
X405000D03*
X375000Y93500D03*
Y83500D03*
X405000D03*
Y93500D03*
G54D36*G36*
X229750Y116250D02*Y110750D01*
X235250D01*
Y116250D01*
X229750D01*
G37*
G54D42*X245000Y163500D03*
X255000D03*
G54D36*G36*
X262000Y166500D02*Y160500D01*
X268000D01*
Y166500D01*
X262000D01*
G37*
G54D37*X235000Y143500D03*
G54D36*G36*
X229500Y126500D02*Y120500D01*
X235500D01*
Y126500D01*
X229500D01*
G37*
G54D37*X272500Y113500D03*
G54D32*X275000Y163500D03*
G54D36*G36*
X272250Y146250D02*Y140750D01*
X277750D01*
Y146250D01*
X272250D01*
G37*
G36*
X279750D02*Y140750D01*
X285250D01*
Y146250D01*
X279750D01*
G37*
G36*
X299500Y136500D02*Y130500D01*
X305500D01*
Y136500D01*
X299500D01*
G37*
G54D32*X312500Y133500D03*
G54D37*X282500Y103500D03*
G54D36*G36*
X294500Y166500D02*Y160500D01*
X300500D01*
Y166500D01*
X294500D01*
G37*
G36*
X319750Y181250D02*Y175750D01*
X325250D01*
Y181250D01*
X319750D01*
G37*
G36*
X324500Y166500D02*Y160500D01*
X330500D01*
Y166500D01*
X324500D01*
G37*
G54D32*X327500Y153500D03*
Y143500D03*
Y133500D03*
X217500Y103500D03*
Y113500D03*
Y123500D03*
Y133500D03*
G54D40*X375000Y220000D03*
X415000D03*
G54D37*X362500Y178500D03*
X361500Y193500D03*
G54D39*X385000Y196000D03*
X395000D03*
G54D32*X387500Y153500D03*
G54D36*G36*
X397450Y178750D02*Y173250D01*
X402950D01*
Y178750D01*
X397450D01*
G37*
G54D37*X400200Y136000D03*
G54D36*G36*
X374500Y156500D02*Y150500D01*
X380500D01*
Y156500D01*
X374500D01*
G37*
G54D32*X357500Y133500D03*
Y143500D03*
Y153500D03*
Y163500D03*
G54D36*G36*
X347000Y86500D02*Y80500D01*
X353000D01*
Y86500D01*
X347000D01*
G37*
G54D32*X360000Y83500D03*
G54D36*G36*
X342000Y109500D02*Y103500D01*
X348000D01*
Y109500D01*
X342000D01*
G37*
G54D43*X275400Y184500D02*X276600D01*
X275400Y195500D02*X276600D01*
G54D39*X187500Y86000D03*
G54D38*G54D44*G54D45*G54D44*G54D46*G54D44*G54D46*G54D47*G54D35*G54D44*G54D48*G54D49*G54D46*G54D44*G54D50*G54D51*G54D46*G54D48*G54D49*G54D48*G54D49*G54D44*G54D46*G54D44*G54D45*G54D44*G54D47*G54D44*G54D46*G54D44*G54D46*G54D44*G54D45*G54D49*G54D44*G54D48*G54D44*G54D45*G54D44*G54D46*M02*
