G04 start of page 11 for group -3984 idx -3984 *
G04 Title: (unknown), fab *
G04 Creator: pcb 20110918 *
G04 CreationDate: Tue Oct  7 19:52:02 2014 UTC *
G04 For: fosse *
G04 Format: Gerber/RS-274X *
G04 PCB-Dimensions: 470000 250000 *
G04 PCB-Coordinate-Origin: lower left *
%MOIN*%
%FSLAX25Y25*%
%LNFAB*%
%ADD88C,0.0100*%
%ADD87C,0.0060*%
%ADD86R,0.0080X0.0080*%
G54D86*X235900Y221600D02*X239100D01*
X235900D02*Y218400D01*
X239100D01*
Y221600D02*Y218400D01*
X234300Y223200D02*X240700D01*
X234300D02*Y216800D01*
X240700D01*
Y223200D02*Y216800D01*
X275900Y221600D02*X279100D01*
X275900D02*Y218400D01*
X279100D01*
Y221600D02*Y218400D01*
X274300Y223200D02*X280700D01*
X274300D02*Y216800D01*
X280700D01*
Y223200D02*Y216800D01*
X373400Y221600D02*X376600D01*
X373400D02*Y218400D01*
X376600D01*
Y221600D02*Y218400D01*
X371800Y223200D02*X378200D01*
X371800D02*Y216800D01*
X378200D01*
Y223200D02*Y216800D01*
X413400Y221600D02*X416600D01*
X413400D02*Y218400D01*
X416600D01*
Y221600D02*Y218400D01*
X411800Y223200D02*X418200D01*
X411800D02*Y216800D01*
X418200D01*
Y223200D02*Y216800D01*
X135900Y221600D02*X139100D01*
X135900D02*Y218400D01*
X139100D01*
Y221600D02*Y218400D01*
X134300Y223200D02*X140700D01*
X134300D02*Y216800D01*
X140700D01*
Y223200D02*Y216800D01*
X175900Y221600D02*X179100D01*
X175900D02*Y218400D01*
X179100D01*
Y221600D02*Y218400D01*
X174300Y223200D02*X180700D01*
X174300D02*Y216800D01*
X180700D01*
Y223200D02*Y216800D01*
X13400Y262850D02*X16600D01*
X13400D02*Y259650D01*
X16600D01*
Y262850D02*Y259650D01*
X11800Y264450D02*X18200D01*
X11800D02*Y258050D01*
X18200D01*
Y264450D02*Y258050D01*
G54D87*X135000Y263500D02*Y262750D01*
X136500Y261250D01*
X138000Y262750D01*
Y263500D02*Y262750D01*
X136500Y261250D02*Y257500D01*
X139800Y260500D02*X142050D01*
X139800Y257500D02*X142800D01*
X139800Y263500D02*Y257500D01*
Y263500D02*X142800D01*
X147600D02*X148350Y262750D01*
X145350Y263500D02*X147600D01*
X144600Y262750D02*X145350Y263500D01*
X144600Y262750D02*Y261250D01*
X145350Y260500D01*
X147600D01*
X148350Y259750D01*
Y258250D01*
X147600Y257500D02*X148350Y258250D01*
X145350Y257500D02*X147600D01*
X144600Y258250D02*X145350Y257500D01*
X100250Y263500D02*X101000Y262750D01*
X98750Y263500D02*X100250D01*
X98000Y262750D02*X98750Y263500D01*
X98000Y262750D02*Y258250D01*
X98750Y257500D01*
X100250Y260500D02*X101000Y259750D01*
X98000Y260500D02*X100250D01*
X98750Y257500D02*X100250D01*
X101000Y258250D01*
Y259750D02*Y258250D01*
X45000D02*X45750Y257500D01*
X45000Y262750D02*Y258250D01*
Y262750D02*X45750Y263500D01*
X47250D01*
X48000Y262750D01*
Y258250D01*
X47250Y257500D02*X48000Y258250D01*
X45750Y257500D02*X47250D01*
X45000Y259000D02*X48000Y262000D01*
X49800Y257500D02*X50550D01*
X52350Y258250D02*X53100Y257500D01*
X52350Y262750D02*Y258250D01*
Y262750D02*X53100Y263500D01*
X54600D01*
X55350Y262750D01*
Y258250D01*
X54600Y257500D02*X55350Y258250D01*
X53100Y257500D02*X54600D01*
X52350Y259000D02*X55350Y262000D01*
X57150Y257500D02*X60900Y261250D01*
Y263500D02*Y261250D01*
X57150Y263500D02*X60900D01*
X62700Y257500D02*X65700Y260500D01*
Y262750D02*Y260500D01*
X64950Y263500D02*X65700Y262750D01*
X63450Y263500D02*X64950D01*
X62700Y262750D02*X63450Y263500D01*
X62700Y262750D02*Y261250D01*
X63450Y260500D01*
X65700D01*
X56700Y191000D02*G75*G03X58300Y191000I800J0D01*G01*
G75*G03X56700Y191000I-800J0D01*G01*
X55100D02*G75*G03X59900Y191000I2400J0D01*G01*
G75*G03X55100Y191000I-2400J0D01*G01*
X38200D02*G75*G03X39800Y191000I800J0D01*G01*
G75*G03X38200Y191000I-800J0D01*G01*
X36600D02*G75*G03X41400Y191000I2400J0D01*G01*
G75*G03X36600Y191000I-2400J0D01*G01*
X75200D02*G75*G03X76800Y191000I800J0D01*G01*
G75*G03X75200Y191000I-800J0D01*G01*
X73600D02*G75*G03X78400Y191000I2400J0D01*G01*
G75*G03X73600Y191000I-2400J0D01*G01*
X38200Y176000D02*G75*G03X39800Y176000I800J0D01*G01*
G75*G03X38200Y176000I-800J0D01*G01*
X36600D02*G75*G03X41400Y176000I2400J0D01*G01*
G75*G03X36600Y176000I-2400J0D01*G01*
X56700D02*G75*G03X58300Y176000I800J0D01*G01*
G75*G03X56700Y176000I-800J0D01*G01*
X55100D02*G75*G03X59900Y176000I2400J0D01*G01*
G75*G03X55100Y176000I-2400J0D01*G01*
X75200D02*G75*G03X76800Y176000I800J0D01*G01*
G75*G03X75200Y176000I-800J0D01*G01*
X73600D02*G75*G03X78400Y176000I2400J0D01*G01*
G75*G03X73600Y176000I-2400J0D01*G01*
X14200Y276250D02*G75*G03X15800Y276250I800J0D01*G01*
G75*G03X14200Y276250I-800J0D01*G01*
X12600D02*G75*G03X17400Y276250I2400J0D01*G01*
G75*G03X12600Y276250I-2400J0D01*G01*
X135000Y278500D02*Y277750D01*
X136500Y276250D01*
X138000Y277750D01*
Y278500D02*Y277750D01*
X136500Y276250D02*Y272500D01*
X139800Y275500D02*X142050D01*
X139800Y272500D02*X142800D01*
X139800Y278500D02*Y272500D01*
Y278500D02*X142800D01*
X147600D02*X148350Y277750D01*
X145350Y278500D02*X147600D01*
X144600Y277750D02*X145350Y278500D01*
X144600Y277750D02*Y276250D01*
X145350Y275500D01*
X147600D01*
X148350Y274750D01*
Y273250D01*
X147600Y272500D02*X148350Y273250D01*
X145350Y272500D02*X147600D01*
X144600Y273250D02*X145350Y272500D01*
X100250Y278500D02*X101000Y277750D01*
X98750Y278500D02*X100250D01*
X98000Y277750D02*X98750Y278500D01*
X98000Y277750D02*Y273250D01*
X98750Y272500D01*
X100250Y275500D02*X101000Y274750D01*
X98000Y275500D02*X100250D01*
X98750Y272500D02*X100250D01*
X101000Y273250D01*
Y274750D02*Y273250D01*
X45000D02*X45750Y272500D01*
X45000Y277750D02*Y273250D01*
Y277750D02*X45750Y278500D01*
X47250D01*
X48000Y277750D01*
Y273250D01*
X47250Y272500D02*X48000Y273250D01*
X45750Y272500D02*X47250D01*
X45000Y274000D02*X48000Y277000D01*
X49800Y272500D02*X50550D01*
X52350Y273250D02*X53100Y272500D01*
X52350Y277750D02*Y273250D01*
Y277750D02*X53100Y278500D01*
X54600D01*
X55350Y277750D01*
Y273250D01*
X54600Y272500D02*X55350Y273250D01*
X53100Y272500D02*X54600D01*
X52350Y274000D02*X55350Y277000D01*
X57150Y272500D02*X60900Y276250D01*
Y278500D02*Y276250D01*
X57150Y278500D02*X60900D01*
X63450Y272500D02*X64950D01*
X64200Y278500D02*Y272500D01*
X62700Y277000D02*X64200Y278500D01*
X45100Y243400D02*X49900Y238600D01*
X45100D02*X49900Y243400D01*
X45900Y242600D02*X49100D01*
X45900D02*Y239400D01*
X49100D01*
Y242600D02*Y239400D01*
X65100Y243400D02*X69900Y238600D01*
X65100D02*X69900Y243400D01*
X65900Y242600D02*X69100D01*
X65900D02*Y239400D01*
X69100D01*
Y242600D02*Y239400D01*
X12600Y293650D02*X17400Y288850D01*
X12600D02*X17400Y293650D01*
X13400Y292850D02*X16600D01*
X13400D02*Y289650D01*
X16600D01*
Y292850D02*Y289650D01*
X135000Y293500D02*Y292750D01*
X136500Y291250D01*
X138000Y292750D01*
Y293500D02*Y292750D01*
X136500Y291250D02*Y287500D01*
X139800Y290500D02*X142050D01*
X139800Y287500D02*X142800D01*
X139800Y293500D02*Y287500D01*
Y293500D02*X142800D01*
X147600D02*X148350Y292750D01*
X145350Y293500D02*X147600D01*
X144600Y292750D02*X145350Y293500D01*
X144600Y292750D02*Y291250D01*
X145350Y290500D01*
X147600D01*
X148350Y289750D01*
Y288250D01*
X147600Y287500D02*X148350Y288250D01*
X145350Y287500D02*X147600D01*
X144600Y288250D02*X145350Y287500D01*
X98000Y292750D02*X98750Y293500D01*
X101000D01*
X101750Y292750D01*
Y291250D01*
X98000Y287500D02*X101750Y291250D01*
X98000Y287500D02*X101750D01*
X45000Y288250D02*X45750Y287500D01*
X45000Y292750D02*Y288250D01*
Y292750D02*X45750Y293500D01*
X47250D01*
X48000Y292750D01*
Y288250D01*
X47250Y287500D02*X48000Y288250D01*
X45750Y287500D02*X47250D01*
X45000Y289000D02*X48000Y292000D01*
X49800Y287500D02*X50550D01*
X52350Y288250D02*X53100Y287500D01*
X52350Y292750D02*Y288250D01*
Y292750D02*X53100Y293500D01*
X54600D01*
X55350Y292750D01*
Y288250D01*
X54600Y287500D02*X55350Y288250D01*
X53100Y287500D02*X54600D01*
X52350Y289000D02*X55350Y292000D01*
X59400Y293500D02*X60150Y292750D01*
X57900Y293500D02*X59400D01*
X57150Y292750D02*X57900Y293500D01*
X57150Y292750D02*Y288250D01*
X57900Y287500D01*
X59400Y290500D02*X60150Y289750D01*
X57150Y290500D02*X59400D01*
X57900Y287500D02*X59400D01*
X60150Y288250D01*
Y289750D02*Y288250D01*
X61950Y293500D02*X64950D01*
X61950D02*Y290500D01*
X62700Y291250D01*
X64200D01*
X64950Y290500D01*
Y288250D01*
X64200Y287500D02*X64950Y288250D01*
X62700Y287500D02*X64200D01*
X61950Y288250D02*X62700Y287500D01*
X187500Y89200D02*Y82800D01*
X184300Y86000D02*X190700D01*
X185900Y87600D02*X189100D01*
X185900D02*Y84400D01*
X189100D01*
Y87600D02*Y84400D01*
X15000Y309450D02*Y303050D01*
X11800Y306250D02*X18200D01*
X13400Y307850D02*X16600D01*
X13400D02*Y304650D01*
X16600D01*
Y307850D02*Y304650D01*
X135000Y308500D02*Y307750D01*
X136500Y306250D01*
X138000Y307750D01*
Y308500D02*Y307750D01*
X136500Y306250D02*Y302500D01*
X139800Y305500D02*X142050D01*
X139800Y302500D02*X142800D01*
X139800Y308500D02*Y302500D01*
Y308500D02*X142800D01*
X147600D02*X148350Y307750D01*
X145350Y308500D02*X147600D01*
X144600Y307750D02*X145350Y308500D01*
X144600Y307750D02*Y306250D01*
X145350Y305500D01*
X147600D01*
X148350Y304750D01*
Y303250D01*
X147600Y302500D02*X148350Y303250D01*
X145350Y302500D02*X147600D01*
X144600Y303250D02*X145350Y302500D01*
X98750D02*X100250D01*
X99500Y308500D02*Y302500D01*
X98000Y307000D02*X99500Y308500D01*
X45000Y303250D02*X45750Y302500D01*
X45000Y307750D02*Y303250D01*
Y307750D02*X45750Y308500D01*
X47250D01*
X48000Y307750D01*
Y303250D01*
X47250Y302500D02*X48000Y303250D01*
X45750Y302500D02*X47250D01*
X45000Y304000D02*X48000Y307000D01*
X49800Y302500D02*X50550D01*
X52350Y303250D02*X53100Y302500D01*
X52350Y307750D02*Y303250D01*
Y307750D02*X53100Y308500D01*
X54600D01*
X55350Y307750D01*
Y303250D01*
X54600Y302500D02*X55350Y303250D01*
X53100Y302500D02*X54600D01*
X52350Y304000D02*X55350Y307000D01*
X57150Y308500D02*X60150D01*
X57150D02*Y305500D01*
X57900Y306250D01*
X59400D01*
X60150Y305500D01*
Y303250D01*
X59400Y302500D02*X60150Y303250D01*
X57900Y302500D02*X59400D01*
X57150Y303250D02*X57900Y302500D01*
X61950Y303250D02*X62700Y302500D01*
X61950Y307750D02*Y303250D01*
Y307750D02*X62700Y308500D01*
X64200D01*
X64950Y307750D01*
Y303250D01*
X64200Y302500D02*X64950Y303250D01*
X62700Y302500D02*X64200D01*
X61950Y304000D02*X64950Y307000D01*
X235000Y163500D02*Y160300D01*
Y163500D02*X237773Y165100D01*
X235000Y163500D02*X232227Y165100D01*
X233400Y163500D02*G75*G03X236600Y163500I1600J0D01*G01*
G75*G03X233400Y163500I-1600J0D01*G01*
X245000D02*Y160300D01*
Y163500D02*X247773Y165100D01*
X245000Y163500D02*X242227Y165100D01*
X243400Y163500D02*G75*G03X246600Y163500I1600J0D01*G01*
G75*G03X243400Y163500I-1600J0D01*G01*
X255000D02*Y160300D01*
Y163500D02*X257773Y165100D01*
X255000Y163500D02*X252227Y165100D01*
X253400Y163500D02*G75*G03X256600Y163500I1600J0D01*G01*
G75*G03X253400Y163500I-1600J0D01*G01*
X15000Y321250D02*Y318050D01*
Y321250D02*X17773Y322850D01*
X15000Y321250D02*X12227Y322850D01*
X13400Y321250D02*G75*G03X16600Y321250I1600J0D01*G01*
G75*G03X13400Y321250I-1600J0D01*G01*
X135000Y323500D02*Y322750D01*
X136500Y321250D01*
X138000Y322750D01*
Y323500D02*Y322750D01*
X136500Y321250D02*Y317500D01*
X139800Y320500D02*X142050D01*
X139800Y317500D02*X142800D01*
X139800Y323500D02*Y317500D01*
Y323500D02*X142800D01*
X147600D02*X148350Y322750D01*
X145350Y323500D02*X147600D01*
X144600Y322750D02*X145350Y323500D01*
X144600Y322750D02*Y321250D01*
X145350Y320500D01*
X147600D01*
X148350Y319750D01*
Y318250D01*
X147600Y317500D02*X148350Y318250D01*
X145350Y317500D02*X147600D01*
X144600Y318250D02*X145350Y317500D01*
X98000Y322750D02*X98750Y323500D01*
X100250D01*
X101000Y322750D01*
Y318250D01*
X100250Y317500D02*X101000Y318250D01*
X98750Y317500D02*X100250D01*
X98000Y318250D02*X98750Y317500D01*
Y320500D02*X101000D01*
X45000Y318250D02*X45750Y317500D01*
X45000Y322750D02*Y318250D01*
Y322750D02*X45750Y323500D01*
X47250D01*
X48000Y322750D01*
Y318250D01*
X47250Y317500D02*X48000Y318250D01*
X45750Y317500D02*X47250D01*
X45000Y319000D02*X48000Y322000D01*
X49800Y317500D02*X50550D01*
X52350Y318250D02*X53100Y317500D01*
X52350Y322750D02*Y318250D01*
Y322750D02*X53100Y323500D01*
X54600D01*
X55350Y322750D01*
Y318250D01*
X54600Y317500D02*X55350Y318250D01*
X53100Y317500D02*X54600D01*
X52350Y319000D02*X55350Y322000D01*
X57150Y320500D02*X60150Y323500D01*
X57150Y320500D02*X60900D01*
X60150Y323500D02*Y317500D01*
X62700Y322750D02*X63450Y323500D01*
X65700D01*
X66450Y322750D01*
Y321250D01*
X62700Y317500D02*X66450Y321250D01*
X62700Y317500D02*X66450D01*
X170900Y152600D02*X174100D01*
X170900D02*Y149400D01*
X174100D01*
Y152600D02*Y149400D01*
X295900Y165100D02*X299100D01*
X295900D02*Y161900D01*
X299100D01*
Y165100D02*Y161900D01*
X230900Y125100D02*X234100D01*
X230900D02*Y121900D01*
X234100D01*
Y125100D02*Y121900D01*
X37900Y79100D02*X41100D01*
X37900D02*Y75900D01*
X41100D01*
Y79100D02*Y75900D01*
X47900Y79100D02*X51100D01*
X47900D02*Y75900D01*
X51100D01*
Y79100D02*Y75900D01*
X57900Y79100D02*X61100D01*
X57900D02*Y75900D01*
X61100D01*
Y79100D02*Y75900D01*
X67900Y79100D02*X71100D01*
X67900D02*Y75900D01*
X71100D01*
Y79100D02*Y75900D01*
X343400Y108100D02*X346600D01*
X343400D02*Y104900D01*
X346600D01*
Y108100D02*Y104900D01*
X112900Y189600D02*X116100D01*
X112900D02*Y186400D01*
X116100D01*
Y189600D02*Y186400D01*
X108400Y100600D02*X111600D01*
X108400D02*Y97400D01*
X111600D01*
Y100600D02*Y97400D01*
X324400Y222100D02*X327600D01*
X324400D02*Y218900D01*
X327600D01*
Y222100D02*Y218900D01*
X13400Y337850D02*X16600D01*
X13400D02*Y334650D01*
X16600D01*
Y337850D02*Y334650D01*
X135000Y338500D02*Y337750D01*
X136500Y336250D01*
X138000Y337750D01*
Y338500D02*Y337750D01*
X136500Y336250D02*Y332500D01*
X139800Y335500D02*X142050D01*
X139800Y332500D02*X142800D01*
X139800Y338500D02*Y332500D01*
Y338500D02*X142800D01*
X147600D02*X148350Y337750D01*
X145350Y338500D02*X147600D01*
X144600Y337750D02*X145350Y338500D01*
X144600Y337750D02*Y336250D01*
X145350Y335500D01*
X147600D01*
X148350Y334750D01*
Y333250D01*
X147600Y332500D02*X148350Y333250D01*
X145350Y332500D02*X147600D01*
X144600Y333250D02*X145350Y332500D01*
X98750D02*X100250D01*
X99500Y338500D02*Y332500D01*
X98000Y337000D02*X99500Y338500D01*
X102800Y332500D02*X104300D01*
X103550Y338500D02*Y332500D01*
X102050Y337000D02*X103550Y338500D01*
X45000Y333250D02*X45750Y332500D01*
X45000Y337750D02*Y333250D01*
Y337750D02*X45750Y338500D01*
X47250D01*
X48000Y337750D01*
Y333250D01*
X47250Y332500D02*X48000Y333250D01*
X45750Y332500D02*X47250D01*
X45000Y334000D02*X48000Y337000D01*
X49800Y332500D02*X50550D01*
X52350Y333250D02*X53100Y332500D01*
X52350Y337750D02*Y333250D01*
Y337750D02*X53100Y338500D01*
X54600D01*
X55350Y337750D01*
Y333250D01*
X54600Y332500D02*X55350Y333250D01*
X53100Y332500D02*X54600D01*
X52350Y334000D02*X55350Y337000D01*
X57150Y337750D02*X57900Y338500D01*
X59400D01*
X60150Y337750D01*
Y333250D01*
X59400Y332500D02*X60150Y333250D01*
X57900Y332500D02*X59400D01*
X57150Y333250D02*X57900Y332500D01*
Y335500D02*X60150D01*
X61950Y333250D02*X62700Y332500D01*
X61950Y334750D02*Y333250D01*
Y334750D02*X62700Y335500D01*
X64200D01*
X64950Y334750D01*
Y333250D01*
X64200Y332500D02*X64950Y333250D01*
X62700Y332500D02*X64200D01*
X61950Y336250D02*X62700Y335500D01*
X61950Y337750D02*Y336250D01*
Y337750D02*X62700Y338500D01*
X64200D01*
X64950Y337750D01*
Y336250D01*
X64200Y335500D02*X64950Y336250D01*
X246700Y196000D02*G75*G03X248300Y196000I800J0D01*G01*
G75*G03X246700Y196000I-800J0D01*G01*
X256700D02*G75*G03X258300Y196000I800J0D01*G01*
G75*G03X256700Y196000I-800J0D01*G01*
X384200D02*G75*G03X385800Y196000I800J0D01*G01*
G75*G03X384200Y196000I-800J0D01*G01*
X394200D02*G75*G03X395800Y196000I800J0D01*G01*
G75*G03X394200Y196000I-800J0D01*G01*
X146700D02*G75*G03X148300Y196000I800J0D01*G01*
G75*G03X146700Y196000I-800J0D01*G01*
X156700D02*G75*G03X158300Y196000I800J0D01*G01*
G75*G03X156700Y196000I-800J0D01*G01*
X14200Y351250D02*G75*G03X15800Y351250I800J0D01*G01*
G75*G03X14200Y351250I-800J0D01*G01*
X135000Y353500D02*Y352750D01*
X136500Y351250D01*
X138000Y352750D01*
Y353500D02*Y352750D01*
X136500Y351250D02*Y347500D01*
X139800Y350500D02*X142050D01*
X139800Y347500D02*X142800D01*
X139800Y353500D02*Y347500D01*
Y353500D02*X142800D01*
X147600D02*X148350Y352750D01*
X145350Y353500D02*X147600D01*
X144600Y352750D02*X145350Y353500D01*
X144600Y352750D02*Y351250D01*
X145350Y350500D01*
X147600D01*
X148350Y349750D01*
Y348250D01*
X147600Y347500D02*X148350Y348250D01*
X145350Y347500D02*X147600D01*
X144600Y348250D02*X145350Y347500D01*
X100250Y353500D02*X101000Y352750D01*
X98750Y353500D02*X100250D01*
X98000Y352750D02*X98750Y353500D01*
X98000Y352750D02*Y348250D01*
X98750Y347500D01*
X100250Y350500D02*X101000Y349750D01*
X98000Y350500D02*X100250D01*
X98750Y347500D02*X100250D01*
X101000Y348250D01*
Y349750D02*Y348250D01*
X45000D02*X45750Y347500D01*
X45000Y352750D02*Y348250D01*
Y352750D02*X45750Y353500D01*
X47250D01*
X48000Y352750D01*
Y348250D01*
X47250Y347500D02*X48000Y348250D01*
X45750Y347500D02*X47250D01*
X45000Y349000D02*X48000Y352000D01*
X49800Y347500D02*X50550D01*
X52350Y348250D02*X53100Y347500D01*
X52350Y352750D02*Y348250D01*
Y352750D02*X53100Y353500D01*
X54600D01*
X55350Y352750D01*
Y348250D01*
X54600Y347500D02*X55350Y348250D01*
X53100Y347500D02*X54600D01*
X52350Y349000D02*X55350Y352000D01*
X57150Y352750D02*X57900Y353500D01*
X59400D01*
X60150Y352750D01*
Y348250D01*
X59400Y347500D02*X60150Y348250D01*
X57900Y347500D02*X59400D01*
X57150Y348250D02*X57900Y347500D01*
Y350500D02*X60150D01*
X61950Y352750D02*X62700Y353500D01*
X64950D01*
X65700Y352750D01*
Y351250D01*
X61950Y347500D02*X65700Y351250D01*
X61950Y347500D02*X65700D01*
X418800Y84700D02*X421200Y82300D01*
X418800D02*X421200Y84700D01*
X428800D02*X431200Y82300D01*
X428800D02*X431200Y84700D01*
X231300Y114700D02*X233700Y112300D01*
X231300D02*X233700Y114700D01*
X271300D02*X273700Y112300D01*
X271300D02*X273700Y114700D01*
X263800Y164700D02*X266200Y162300D01*
X263800D02*X266200Y164700D01*
X273800D02*X276200Y162300D01*
X273800D02*X276200Y164700D01*
X301300Y134700D02*X303700Y132300D01*
X301300D02*X303700Y134700D01*
X311300D02*X313700Y132300D01*
X311300D02*X313700Y134700D01*
X201300Y189700D02*X203700Y187300D01*
X201300D02*X203700Y189700D01*
X211300D02*X213700Y187300D01*
X211300D02*X213700Y189700D01*
X186300Y164700D02*X188700Y162300D01*
X186300D02*X188700Y164700D01*
X226300D02*X228700Y162300D01*
X226300D02*X228700Y164700D01*
X186300Y174700D02*X188700Y172300D01*
X186300D02*X188700Y174700D01*
X226300D02*X228700Y172300D01*
X226300D02*X228700Y174700D01*
X273800Y144700D02*X276200Y142300D01*
X273800D02*X276200Y144700D01*
X233800D02*X236200Y142300D01*
X233800D02*X236200Y144700D01*
X281300D02*X283700Y142300D01*
X281300D02*X283700Y144700D01*
X281300Y104700D02*X283700Y102300D01*
X281300D02*X283700Y104700D01*
X133800Y109700D02*X136200Y107300D01*
X133800D02*X136200Y109700D01*
X173800D02*X176200Y107300D01*
X173800D02*X176200Y109700D01*
X133800Y124700D02*X136200Y122300D01*
X133800D02*X136200Y124700D01*
X173800D02*X176200Y122300D01*
X173800D02*X176200Y124700D01*
X173800Y79700D02*X176200Y77300D01*
X173800D02*X176200Y79700D01*
X133800D02*X136200Y77300D01*
X133800D02*X136200Y79700D01*
X133800Y94700D02*X136200Y92300D01*
X133800D02*X136200Y94700D01*
X173800D02*X176200Y92300D01*
X173800D02*X176200Y94700D01*
X376300Y154700D02*X378700Y152300D01*
X376300D02*X378700Y154700D01*
X386300D02*X388700Y152300D01*
X386300D02*X388700Y154700D01*
X321300Y179700D02*X323700Y177300D01*
X321300D02*X323700Y179700D01*
X361300D02*X363700Y177300D01*
X361300D02*X363700Y179700D01*
X348800Y84700D02*X351200Y82300D01*
X348800D02*X351200Y84700D01*
X358800D02*X361200Y82300D01*
X358800D02*X361200Y84700D01*
X418800Y114700D02*X421200Y112300D01*
X418800D02*X421200Y114700D01*
X428800D02*X431200Y112300D01*
X428800D02*X431200Y114700D01*
X99300Y133700D02*X101700Y131300D01*
X99300D02*X101700Y133700D01*
X109300D02*X111700Y131300D01*
X109300D02*X111700Y133700D01*
X99300Y163700D02*X101700Y161300D01*
X99300D02*X101700Y163700D01*
X109300D02*X111700Y161300D01*
X109300D02*X111700Y163700D01*
X296300Y227700D02*X298700Y225300D01*
X296300D02*X298700Y227700D01*
X296300Y187700D02*X298700Y185300D01*
X296300D02*X298700Y187700D01*
X399000Y177200D02*X401400Y174800D01*
X399000D02*X401400Y177200D01*
X399000Y137200D02*X401400Y134800D01*
X399000D02*X401400Y137200D01*
X320300Y194700D02*X322700Y192300D01*
X320300D02*X322700Y194700D01*
X360300D02*X362700Y192300D01*
X360300D02*X362700Y194700D01*
X13800Y367450D02*X16200Y365050D01*
X13800D02*X16200Y367450D01*
X135000Y368500D02*Y367750D01*
X136500Y366250D01*
X138000Y367750D01*
Y368500D02*Y367750D01*
X136500Y366250D02*Y362500D01*
X139800Y365500D02*X142050D01*
X139800Y362500D02*X142800D01*
X139800Y368500D02*Y362500D01*
Y368500D02*X142800D01*
X147600D02*X148350Y367750D01*
X145350Y368500D02*X147600D01*
X144600Y367750D02*X145350Y368500D01*
X144600Y367750D02*Y366250D01*
X145350Y365500D01*
X147600D01*
X148350Y364750D01*
Y363250D01*
X147600Y362500D02*X148350Y363250D01*
X145350Y362500D02*X147600D01*
X144600Y363250D02*X145350Y362500D01*
X98000Y365500D02*X101000Y368500D01*
X98000Y365500D02*X101750D01*
X101000Y368500D02*Y362500D01*
X103550Y365500D02*X106550Y368500D01*
X103550Y365500D02*X107300D01*
X106550Y368500D02*Y362500D01*
X45000Y363250D02*X45750Y362500D01*
X45000Y367750D02*Y363250D01*
Y367750D02*X45750Y368500D01*
X47250D01*
X48000Y367750D01*
Y363250D01*
X47250Y362500D02*X48000Y363250D01*
X45750Y362500D02*X47250D01*
X45000Y364000D02*X48000Y367000D01*
X49800Y362500D02*X50550D01*
X52350Y363250D02*X53100Y362500D01*
X52350Y367750D02*Y363250D01*
Y367750D02*X53100Y368500D01*
X54600D01*
X55350Y367750D01*
Y363250D01*
X54600Y362500D02*X55350Y363250D01*
X53100Y362500D02*X54600D01*
X52350Y364000D02*X55350Y367000D01*
X57150Y367750D02*X57900Y368500D01*
X59400D01*
X60150Y367750D01*
Y363250D01*
X59400Y362500D02*X60150Y363250D01*
X57900Y362500D02*X59400D01*
X57150Y363250D02*X57900Y362500D01*
Y365500D02*X60150D01*
X61950Y363250D02*X62700Y362500D01*
X61950Y367750D02*Y363250D01*
Y367750D02*X62700Y368500D01*
X64200D01*
X64950Y367750D01*
Y363250D01*
X64200Y362500D02*X64950Y363250D01*
X62700Y362500D02*X64200D01*
X61950Y364000D02*X64950Y367000D01*
X187500Y135100D02*Y131900D01*
X185900Y133500D02*X189100D01*
X187500Y125100D02*Y121900D01*
X185900Y123500D02*X189100D01*
X187500Y115100D02*Y111900D01*
X185900Y113500D02*X189100D01*
X187500Y105100D02*Y101900D01*
X185900Y103500D02*X189100D01*
X217500Y105100D02*Y101900D01*
X215900Y103500D02*X219100D01*
X217500Y115100D02*Y111900D01*
X215900Y113500D02*X219100D01*
X217500Y125100D02*Y121900D01*
X215900Y123500D02*X219100D01*
X217500Y135100D02*Y131900D01*
X215900Y133500D02*X219100D01*
X327500Y165100D02*Y161900D01*
X325900Y163500D02*X329100D01*
X327500Y155100D02*Y151900D01*
X325900Y153500D02*X329100D01*
X327500Y145100D02*Y141900D01*
X325900Y143500D02*X329100D01*
X327500Y135100D02*Y131900D01*
X325900Y133500D02*X329100D01*
X357500Y135100D02*Y131900D01*
X355900Y133500D02*X359100D01*
X357500Y145100D02*Y141900D01*
X355900Y143500D02*X359100D01*
X357500Y155100D02*Y151900D01*
X355900Y153500D02*X359100D01*
X357500Y165100D02*Y161900D01*
X355900Y163500D02*X359100D01*
X375000Y115100D02*Y111900D01*
X373400Y113500D02*X376600D01*
X375000Y105100D02*Y101900D01*
X373400Y103500D02*X376600D01*
X375000Y95100D02*Y91900D01*
X373400Y93500D02*X376600D01*
X375000Y85100D02*Y81900D01*
X373400Y83500D02*X376600D01*
X405000Y85100D02*Y81900D01*
X403400Y83500D02*X406600D01*
X405000Y95100D02*Y91900D01*
X403400Y93500D02*X406600D01*
X405000Y105100D02*Y101900D01*
X403400Y103500D02*X406600D01*
X405000Y115100D02*Y111900D01*
X403400Y113500D02*X406600D01*
X15000Y382850D02*Y379650D01*
X13400Y381250D02*X16600D01*
X135000Y383500D02*Y382750D01*
X136500Y381250D01*
X138000Y382750D01*
Y383500D02*Y382750D01*
X136500Y381250D02*Y377500D01*
X139800Y380500D02*X142050D01*
X139800Y377500D02*X142800D01*
X139800Y383500D02*Y377500D01*
Y383500D02*X142800D01*
X147600D02*X148350Y382750D01*
X145350Y383500D02*X147600D01*
X144600Y382750D02*X145350Y383500D01*
X144600Y382750D02*Y381250D01*
X145350Y380500D01*
X147600D01*
X148350Y379750D01*
Y378250D01*
X147600Y377500D02*X148350Y378250D01*
X145350Y377500D02*X147600D01*
X144600Y378250D02*X145350Y377500D01*
X98000Y382750D02*X98750Y383500D01*
X101000D01*
X101750Y382750D01*
Y381250D01*
X98000Y377500D02*X101750Y381250D01*
X98000Y377500D02*X101750D01*
X103550Y380500D02*X106550Y383500D01*
X103550Y380500D02*X107300D01*
X106550Y383500D02*Y377500D01*
X45000Y378250D02*X45750Y377500D01*
X45000Y382750D02*Y378250D01*
Y382750D02*X45750Y383500D01*
X47250D01*
X48000Y382750D01*
Y378250D01*
X47250Y377500D02*X48000Y378250D01*
X45750Y377500D02*X47250D01*
X45000Y379000D02*X48000Y382000D01*
X49800Y377500D02*X50550D01*
X52350Y378250D02*X53100Y377500D01*
X52350Y382750D02*Y378250D01*
Y382750D02*X53100Y383500D01*
X54600D01*
X55350Y382750D01*
Y378250D01*
X54600Y377500D02*X55350Y378250D01*
X53100Y377500D02*X54600D01*
X52350Y379000D02*X55350Y382000D01*
X57150Y382750D02*X57900Y383500D01*
X60150D01*
X60900Y382750D01*
Y381250D01*
X57150Y377500D02*X60900Y381250D01*
X57150Y377500D02*X60900D01*
X62700Y378250D02*X63450Y377500D01*
X62700Y379750D02*Y378250D01*
Y379750D02*X63450Y380500D01*
X64950D01*
X65700Y379750D01*
Y378250D01*
X64950Y377500D02*X65700Y378250D01*
X63450Y377500D02*X64950D01*
X62700Y381250D02*X63450Y380500D01*
X62700Y382750D02*Y381250D01*
Y382750D02*X63450Y383500D01*
X64950D01*
X65700Y382750D01*
Y381250D01*
X64950Y380500D02*X65700Y381250D01*
X227500Y151000D02*Y149400D01*
Y151000D02*X228887Y151800D01*
X227500Y151000D02*X226113Y151800D01*
X187500Y151000D02*Y149400D01*
Y151000D02*X188887Y151800D01*
X187500Y151000D02*X186113Y151800D01*
X15000Y396250D02*Y394650D01*
Y396250D02*X16387Y397050D01*
X15000Y396250D02*X13613Y397050D01*
X135000Y398500D02*Y397750D01*
X136500Y396250D01*
X138000Y397750D01*
Y398500D02*Y397750D01*
X136500Y396250D02*Y392500D01*
X139800Y395500D02*X142050D01*
X139800Y392500D02*X142800D01*
X139800Y398500D02*Y392500D01*
Y398500D02*X142800D01*
X147600D02*X148350Y397750D01*
X145350Y398500D02*X147600D01*
X144600Y397750D02*X145350Y398500D01*
X144600Y397750D02*Y396250D01*
X145350Y395500D01*
X147600D01*
X148350Y394750D01*
Y393250D01*
X147600Y392500D02*X148350Y393250D01*
X145350Y392500D02*X147600D01*
X144600Y393250D02*X145350Y392500D01*
X98000Y397750D02*X98750Y398500D01*
X101000D01*
X101750Y397750D01*
Y396250D01*
X98000Y392500D02*X101750Y396250D01*
X98000Y392500D02*X101750D01*
X45000Y393250D02*X45750Y392500D01*
X45000Y397750D02*Y393250D01*
Y397750D02*X45750Y398500D01*
X47250D01*
X48000Y397750D01*
Y393250D01*
X47250Y392500D02*X48000Y393250D01*
X45750Y392500D02*X47250D01*
X45000Y394000D02*X48000Y397000D01*
X49800Y392500D02*X50550D01*
X52350Y393250D02*X53100Y392500D01*
X52350Y397750D02*Y393250D01*
Y397750D02*X53100Y398500D01*
X54600D01*
X55350Y397750D01*
Y393250D01*
X54600Y392500D02*X55350Y393250D01*
X53100Y392500D02*X54600D01*
X52350Y394000D02*X55350Y397000D01*
X57150Y397750D02*X57900Y398500D01*
X60150D01*
X60900Y397750D01*
Y396250D01*
X57150Y392500D02*X60900Y396250D01*
X57150Y392500D02*X60900D01*
X62700Y393250D02*X63450Y392500D01*
X62700Y397750D02*Y393250D01*
Y397750D02*X63450Y398500D01*
X64950D01*
X65700Y397750D01*
Y393250D01*
X64950Y392500D02*X65700Y393250D01*
X63450Y392500D02*X64950D01*
X62700Y394000D02*X65700Y397000D01*
X3000Y413500D02*X3750Y412750D01*
X750Y413500D02*X3000D01*
X0Y412750D02*X750Y413500D01*
X0Y412750D02*Y411250D01*
X750Y410500D01*
X3000D01*
X3750Y409750D01*
Y408250D01*
X3000Y407500D02*X3750Y408250D01*
X750Y407500D02*X3000D01*
X0Y408250D02*X750Y407500D01*
X5550Y410500D02*Y408250D01*
X6300Y407500D01*
X8550Y410500D02*Y406000D01*
X7800Y405250D02*X8550Y406000D01*
X6300Y405250D02*X7800D01*
X5550Y406000D02*X6300Y405250D01*
Y407500D02*X7800D01*
X8550Y408250D01*
X11100Y409750D02*Y407500D01*
Y409750D02*X11850Y410500D01*
X12600D01*
X13350Y409750D01*
Y407500D01*
Y409750D02*X14100Y410500D01*
X14850D01*
X15600Y409750D01*
Y407500D01*
X10350Y410500D02*X11100Y409750D01*
X17400Y413500D02*Y407500D01*
Y408250D02*X18150Y407500D01*
X19650D01*
X20400Y408250D01*
Y409750D02*Y408250D01*
X19650Y410500D02*X20400Y409750D01*
X18150Y410500D02*X19650D01*
X17400Y409750D02*X18150Y410500D01*
X22200Y409750D02*Y408250D01*
Y409750D02*X22950Y410500D01*
X24450D01*
X25200Y409750D01*
Y408250D01*
X24450Y407500D02*X25200Y408250D01*
X22950Y407500D02*X24450D01*
X22200Y408250D02*X22950Y407500D01*
X27000Y413500D02*Y408250D01*
X27750Y407500D01*
X0Y404250D02*X29250D01*
X41750Y413500D02*Y407500D01*
X44000Y413500D02*X44750Y412750D01*
Y408250D01*
X44000Y407500D02*X44750Y408250D01*
X41000Y407500D02*X44000D01*
X41000Y413500D02*X44000D01*
X46550Y412000D02*Y411250D01*
Y409750D02*Y407500D01*
X50300Y410500D02*X51050Y409750D01*
X48800Y410500D02*X50300D01*
X48050Y409750D02*X48800Y410500D01*
X48050Y409750D02*Y408250D01*
X48800Y407500D01*
X51050Y410500D02*Y408250D01*
X51800Y407500D01*
X48800D02*X50300D01*
X51050Y408250D01*
X54350Y409750D02*Y407500D01*
Y409750D02*X55100Y410500D01*
X55850D01*
X56600Y409750D01*
Y407500D01*
Y409750D02*X57350Y410500D01*
X58100D01*
X58850Y409750D01*
Y407500D01*
X53600Y410500D02*X54350Y409750D01*
X60650Y407500D02*X61400D01*
X65900Y408250D02*X66650Y407500D01*
X65900Y412750D02*X66650Y413500D01*
X65900Y412750D02*Y408250D01*
X68450Y413500D02*X69950D01*
X69200D02*Y407500D01*
X68450D02*X69950D01*
X72500Y409750D02*Y407500D01*
Y409750D02*X73250Y410500D01*
X74000D01*
X74750Y409750D01*
Y407500D01*
X71750Y410500D02*X72500Y409750D01*
X77300Y410500D02*X79550D01*
X76550Y409750D02*X77300Y410500D01*
X76550Y409750D02*Y408250D01*
X77300Y407500D01*
X79550D01*
X81350Y413500D02*Y407500D01*
Y409750D02*X82100Y410500D01*
X83600D01*
X84350Y409750D01*
Y407500D01*
X86150Y413500D02*X86900Y412750D01*
Y408250D01*
X86150Y407500D02*X86900Y408250D01*
X41000Y404250D02*X88700D01*
X95750Y407500D02*X98000D01*
X95000Y408250D02*X95750Y407500D01*
X95000Y412750D02*Y408250D01*
Y412750D02*X95750Y413500D01*
X98000D01*
X99800Y409750D02*Y408250D01*
Y409750D02*X100550Y410500D01*
X102050D01*
X102800Y409750D01*
Y408250D01*
X102050Y407500D02*X102800Y408250D01*
X100550Y407500D02*X102050D01*
X99800Y408250D02*X100550Y407500D01*
X104600Y410500D02*Y408250D01*
X105350Y407500D01*
X106850D01*
X107600Y408250D01*
Y410500D02*Y408250D01*
X110150Y409750D02*Y407500D01*
Y409750D02*X110900Y410500D01*
X111650D01*
X112400Y409750D01*
Y407500D01*
X109400Y410500D02*X110150Y409750D01*
X114950Y413500D02*Y408250D01*
X115700Y407500D01*
X114200Y411250D02*X115700D01*
X95000Y404250D02*X117200D01*
X130750Y413500D02*Y407500D01*
X130000Y413500D02*X133000D01*
X133750Y412750D01*
Y411250D01*
X133000Y410500D02*X133750Y411250D01*
X130750Y410500D02*X133000D01*
X135550Y413500D02*Y408250D01*
X136300Y407500D01*
X140050Y410500D02*X140800Y409750D01*
X138550Y410500D02*X140050D01*
X137800Y409750D02*X138550Y410500D01*
X137800Y409750D02*Y408250D01*
X138550Y407500D01*
X140800Y410500D02*Y408250D01*
X141550Y407500D01*
X138550D02*X140050D01*
X140800Y408250D01*
X144100Y413500D02*Y408250D01*
X144850Y407500D01*
X143350Y411250D02*X144850D01*
X147100Y407500D02*X149350D01*
X146350Y408250D02*X147100Y407500D01*
X146350Y409750D02*Y408250D01*
Y409750D02*X147100Y410500D01*
X148600D01*
X149350Y409750D01*
X146350Y409000D02*X149350D01*
Y409750D02*Y409000D01*
X154150Y413500D02*Y407500D01*
X153400D02*X154150Y408250D01*
X151900Y407500D02*X153400D01*
X151150Y408250D02*X151900Y407500D01*
X151150Y409750D02*Y408250D01*
Y409750D02*X151900Y410500D01*
X153400D01*
X154150Y409750D01*
X157450Y410500D02*Y409750D01*
Y408250D02*Y407500D01*
X155950Y412750D02*Y412000D01*
Y412750D02*X156700Y413500D01*
X158200D01*
X158950Y412750D01*
Y412000D01*
X157450Y410500D02*X158950Y412000D01*
X130000Y404250D02*X160750D01*
X0Y428500D02*X3000D01*
X1500D02*Y422500D01*
X4800Y428500D02*Y422500D01*
Y424750D02*X5550Y425500D01*
X7050D01*
X7800Y424750D01*
Y422500D01*
X10350D02*X12600D01*
X9600Y423250D02*X10350Y422500D01*
X9600Y424750D02*Y423250D01*
Y424750D02*X10350Y425500D01*
X11850D01*
X12600Y424750D01*
X9600Y424000D02*X12600D01*
Y424750D02*Y424000D01*
X15150Y424750D02*Y422500D01*
Y424750D02*X15900Y425500D01*
X17400D01*
X14400D02*X15150Y424750D01*
X19950Y422500D02*X22200D01*
X19200Y423250D02*X19950Y422500D01*
X19200Y424750D02*Y423250D01*
Y424750D02*X19950Y425500D01*
X21450D01*
X22200Y424750D01*
X19200Y424000D02*X22200D01*
Y424750D02*Y424000D01*
X28950Y425500D02*X29700Y424750D01*
X27450Y425500D02*X28950D01*
X26700Y424750D02*X27450Y425500D01*
X26700Y424750D02*Y423250D01*
X27450Y422500D01*
X29700Y425500D02*Y423250D01*
X30450Y422500D01*
X27450D02*X28950D01*
X29700Y423250D01*
X33000Y424750D02*Y422500D01*
Y424750D02*X33750Y425500D01*
X35250D01*
X32250D02*X33000Y424750D01*
X37800Y422500D02*X40050D01*
X37050Y423250D02*X37800Y422500D01*
X37050Y424750D02*Y423250D01*
Y424750D02*X37800Y425500D01*
X39300D01*
X40050Y424750D01*
X37050Y424000D02*X40050D01*
Y424750D02*Y424000D01*
X45300Y422500D02*X46800D01*
X46050Y428500D02*Y422500D01*
X44550Y427000D02*X46050Y428500D01*
X48600Y423250D02*X49350Y422500D01*
X48600Y427750D02*Y423250D01*
Y427750D02*X49350Y428500D01*
X50850D01*
X51600Y427750D01*
Y423250D01*
X50850Y422500D02*X51600Y423250D01*
X49350Y422500D02*X50850D01*
X48600Y424000D02*X51600Y427000D01*
X59100Y428500D02*Y422500D01*
X58350D02*X59100Y423250D01*
X56850Y422500D02*X58350D01*
X56100Y423250D02*X56850Y422500D01*
X56100Y424750D02*Y423250D01*
Y424750D02*X56850Y425500D01*
X58350D01*
X59100Y424750D01*
X60900Y427000D02*Y426250D01*
Y424750D02*Y422500D01*
X63150Y427750D02*Y422500D01*
Y427750D02*X63900Y428500D01*
X64650D01*
X62400Y425500D02*X63900D01*
X66900Y427750D02*Y422500D01*
Y427750D02*X67650Y428500D01*
X68400D01*
X66150Y425500D02*X67650D01*
X70650Y422500D02*X72900D01*
X69900Y423250D02*X70650Y422500D01*
X69900Y424750D02*Y423250D01*
Y424750D02*X70650Y425500D01*
X72150D01*
X72900Y424750D01*
X69900Y424000D02*X72900D01*
Y424750D02*Y424000D01*
X75450Y424750D02*Y422500D01*
Y424750D02*X76200Y425500D01*
X77700D01*
X74700D02*X75450Y424750D01*
X80250Y422500D02*X82500D01*
X79500Y423250D02*X80250Y422500D01*
X79500Y424750D02*Y423250D01*
Y424750D02*X80250Y425500D01*
X81750D01*
X82500Y424750D01*
X79500Y424000D02*X82500D01*
Y424750D02*Y424000D01*
X85050Y424750D02*Y422500D01*
Y424750D02*X85800Y425500D01*
X86550D01*
X87300Y424750D01*
Y422500D01*
X84300Y425500D02*X85050Y424750D01*
X89850Y428500D02*Y423250D01*
X90600Y422500D01*
X89100Y426250D02*X90600D01*
X97800Y428500D02*Y422500D01*
X97050D02*X97800Y423250D01*
X95550Y422500D02*X97050D01*
X94800Y423250D02*X95550Y422500D01*
X94800Y424750D02*Y423250D01*
Y424750D02*X95550Y425500D01*
X97050D01*
X97800Y424750D01*
X100350D02*Y422500D01*
Y424750D02*X101100Y425500D01*
X102600D01*
X99600D02*X100350Y424750D01*
X104400Y427000D02*Y426250D01*
Y424750D02*Y422500D01*
X105900Y428500D02*Y423250D01*
X106650Y422500D01*
X108150Y428500D02*Y423250D01*
X108900Y422500D01*
X113850D02*X116100D01*
X116850Y423250D01*
X116100Y424000D02*X116850Y423250D01*
X113850Y424000D02*X116100D01*
X113100Y424750D02*X113850Y424000D01*
X113100Y424750D02*X113850Y425500D01*
X116100D01*
X116850Y424750D01*
X113100Y423250D02*X113850Y422500D01*
X118650Y427000D02*Y426250D01*
Y424750D02*Y422500D01*
X120150Y425500D02*X123150D01*
X120150Y422500D02*X123150Y425500D01*
X120150Y422500D02*X123150D01*
X125700D02*X127950D01*
X124950Y423250D02*X125700Y422500D01*
X124950Y424750D02*Y423250D01*
Y424750D02*X125700Y425500D01*
X127200D01*
X127950Y424750D01*
X124950Y424000D02*X127950D01*
Y424750D02*Y424000D01*
X130500Y422500D02*X132750D01*
X133500Y423250D01*
X132750Y424000D02*X133500Y423250D01*
X130500Y424000D02*X132750D01*
X129750Y424750D02*X130500Y424000D01*
X129750Y424750D02*X130500Y425500D01*
X132750D01*
X133500Y424750D01*
X129750Y423250D02*X130500Y422500D01*
X138000Y425500D02*Y423250D01*
X138750Y422500D01*
X140250D01*
X141000Y423250D01*
Y425500D02*Y423250D01*
X143550Y422500D02*X145800D01*
X146550Y423250D01*
X145800Y424000D02*X146550Y423250D01*
X143550Y424000D02*X145800D01*
X142800Y424750D02*X143550Y424000D01*
X142800Y424750D02*X143550Y425500D01*
X145800D01*
X146550Y424750D01*
X142800Y423250D02*X143550Y422500D01*
X149100D02*X151350D01*
X148350Y423250D02*X149100Y422500D01*
X148350Y424750D02*Y423250D01*
Y424750D02*X149100Y425500D01*
X150600D01*
X151350Y424750D01*
X148350Y424000D02*X151350D01*
Y424750D02*Y424000D01*
X156150Y428500D02*Y422500D01*
X155400D02*X156150Y423250D01*
X153900Y422500D02*X155400D01*
X153150Y423250D02*X153900Y422500D01*
X153150Y424750D02*Y423250D01*
Y424750D02*X153900Y425500D01*
X155400D01*
X156150Y424750D01*
X160650Y427000D02*Y426250D01*
Y424750D02*Y422500D01*
X162900Y424750D02*Y422500D01*
Y424750D02*X163650Y425500D01*
X164400D01*
X165150Y424750D01*
Y422500D01*
X162150Y425500D02*X162900Y424750D01*
X170400Y428500D02*Y423250D01*
X171150Y422500D01*
X169650Y426250D02*X171150D01*
X172650Y428500D02*Y422500D01*
Y424750D02*X173400Y425500D01*
X174900D01*
X175650Y424750D01*
Y422500D01*
X177450Y427000D02*Y426250D01*
Y424750D02*Y422500D01*
X179700D02*X181950D01*
X182700Y423250D01*
X181950Y424000D02*X182700Y423250D01*
X179700Y424000D02*X181950D01*
X178950Y424750D02*X179700Y424000D01*
X178950Y424750D02*X179700Y425500D01*
X181950D01*
X182700Y424750D01*
X178950Y423250D02*X179700Y422500D01*
X187200Y428500D02*Y423250D01*
X187950Y422500D01*
X191700Y425500D02*X192450Y424750D01*
X190200Y425500D02*X191700D01*
X189450Y424750D02*X190200Y425500D01*
X189450Y424750D02*Y423250D01*
X190200Y422500D01*
X192450Y425500D02*Y423250D01*
X193200Y422500D01*
X190200D02*X191700D01*
X192450Y423250D01*
X195000Y425500D02*Y423250D01*
X195750Y422500D01*
X198000Y425500D02*Y421000D01*
X197250Y420250D02*X198000Y421000D01*
X195750Y420250D02*X197250D01*
X195000Y421000D02*X195750Y420250D01*
Y422500D02*X197250D01*
X198000Y423250D01*
X199800Y424750D02*Y423250D01*
Y424750D02*X200550Y425500D01*
X202050D01*
X202800Y424750D01*
Y423250D01*
X202050Y422500D02*X202800Y423250D01*
X200550Y422500D02*X202050D01*
X199800Y423250D02*X200550Y422500D01*
X204600Y425500D02*Y423250D01*
X205350Y422500D01*
X206850D01*
X207600Y423250D01*
Y425500D02*Y423250D01*
X210150Y428500D02*Y423250D01*
X210900Y422500D01*
X209400Y426250D02*X210900D01*
X212400Y421000D02*X213900Y422500D01*
X219150D02*X220650D01*
X219900Y428500D02*Y422500D01*
X218400Y427000D02*X219900Y428500D01*
X222450Y423250D02*X223200Y422500D01*
X222450Y427750D02*Y423250D01*
Y427750D02*X223200Y428500D01*
X224700D01*
X225450Y427750D01*
Y423250D01*
X224700Y422500D02*X225450Y423250D01*
X223200Y422500D02*X224700D01*
X222450Y424000D02*X225450Y427000D01*
X227250Y428500D02*X230250D01*
X227250D02*Y425500D01*
X228000Y426250D01*
X229500D01*
X230250Y425500D01*
Y423250D01*
X229500Y422500D02*X230250Y423250D01*
X228000Y422500D02*X229500D01*
X227250Y423250D02*X228000Y422500D01*
X234750Y428500D02*Y422500D01*
Y424750D02*X235500Y425500D01*
X237000D01*
X237750Y424750D01*
Y422500D01*
X239550Y424750D02*Y423250D01*
Y424750D02*X240300Y425500D01*
X241800D01*
X242550Y424750D01*
Y423250D01*
X241800Y422500D02*X242550Y423250D01*
X240300Y422500D02*X241800D01*
X239550Y423250D02*X240300Y422500D01*
X244350Y428500D02*Y423250D01*
X245100Y422500D01*
X247350D02*X249600D01*
X246600Y423250D02*X247350Y422500D01*
X246600Y424750D02*Y423250D01*
Y424750D02*X247350Y425500D01*
X248850D01*
X249600Y424750D01*
X246600Y424000D02*X249600D01*
Y424750D02*Y424000D01*
X252150Y422500D02*X254400D01*
X255150Y423250D01*
X254400Y424000D02*X255150Y423250D01*
X252150Y424000D02*X254400D01*
X251400Y424750D02*X252150Y424000D01*
X251400Y424750D02*X252150Y425500D01*
X254400D01*
X255150Y424750D01*
X251400Y423250D02*X252150Y422500D01*
X260400Y428500D02*Y423250D01*
X261150Y422500D01*
X259650Y426250D02*X261150D01*
X262650Y424750D02*Y423250D01*
Y424750D02*X263400Y425500D01*
X264900D01*
X265650Y424750D01*
Y423250D01*
X264900Y422500D02*X265650Y423250D01*
X263400Y422500D02*X264900D01*
X262650Y423250D02*X263400Y422500D01*
X268200Y428500D02*Y423250D01*
X268950Y422500D01*
X267450Y426250D02*X268950D01*
X272700Y425500D02*X273450Y424750D01*
X271200Y425500D02*X272700D01*
X270450Y424750D02*X271200Y425500D01*
X270450Y424750D02*Y423250D01*
X271200Y422500D01*
X273450Y425500D02*Y423250D01*
X274200Y422500D01*
X271200D02*X272700D01*
X273450Y423250D01*
X276000Y428500D02*Y423250D01*
X276750Y422500D01*
G54D88*X451500Y231000D02*Y83500D01*
X1500D02*Y231000D01*
X19000Y248500D02*X434000D01*
Y66000D02*X19000D01*
X434000Y248500D02*G75*G02X451500Y231000I0J-17500D01*G01*
Y83500D02*G75*G02X434000Y66000I-17500J0D01*G01*
X19000D02*G75*G02X1500Y83500I0J17500D01*G01*
Y231000D02*G75*G02X19000Y248500I17500J0D01*G01*
G54D87*X148675Y-9500D02*X151675D01*
X152425Y-8750D01*
Y-7250D02*Y-8750D01*
X151675Y-6500D02*X152425Y-7250D01*
X149425Y-6500D02*X151675D01*
X149425Y-3500D02*Y-9500D01*
X148675Y-3500D02*X151675D01*
X152425Y-4250D01*
Y-5750D01*
X151675Y-6500D02*X152425Y-5750D01*
X154225Y-7250D02*Y-8750D01*
Y-7250D02*X154975Y-6500D01*
X156475D01*
X157225Y-7250D01*
Y-8750D01*
X156475Y-9500D02*X157225Y-8750D01*
X154975Y-9500D02*X156475D01*
X154225Y-8750D02*X154975Y-9500D01*
X161275Y-6500D02*X162025Y-7250D01*
X159775Y-6500D02*X161275D01*
X159025Y-7250D02*X159775Y-6500D01*
X159025Y-7250D02*Y-8750D01*
X159775Y-9500D01*
X162025Y-6500D02*Y-8750D01*
X162775Y-9500D01*
X159775D02*X161275D01*
X162025Y-8750D01*
X165325Y-7250D02*Y-9500D01*
Y-7250D02*X166075Y-6500D01*
X167575D01*
X164575D02*X165325Y-7250D01*
X172375Y-3500D02*Y-9500D01*
X171625D02*X172375Y-8750D01*
X170125Y-9500D02*X171625D01*
X169375Y-8750D02*X170125Y-9500D01*
X169375Y-7250D02*Y-8750D01*
Y-7250D02*X170125Y-6500D01*
X171625D01*
X172375Y-7250D01*
X176875D02*Y-8750D01*
Y-7250D02*X177625Y-6500D01*
X179125D01*
X179875Y-7250D01*
Y-8750D01*
X179125Y-9500D02*X179875Y-8750D01*
X177625Y-9500D02*X179125D01*
X176875Y-8750D02*X177625Y-9500D01*
X181675Y-6500D02*Y-8750D01*
X182425Y-9500D01*
X183925D01*
X184675Y-8750D01*
Y-6500D02*Y-8750D01*
X187225Y-3500D02*Y-8750D01*
X187975Y-9500D01*
X186475Y-5750D02*X187975D01*
X189475Y-3500D02*Y-8750D01*
X190225Y-9500D01*
X191725Y-5000D02*Y-5750D01*
Y-7250D02*Y-9500D01*
X193975Y-7250D02*Y-9500D01*
Y-7250D02*X194725Y-6500D01*
X195475D01*
X196225Y-7250D01*
Y-9500D01*
X193225Y-6500D02*X193975Y-7250D01*
X198775Y-9500D02*X201025D01*
X198025Y-8750D02*X198775Y-9500D01*
X198025Y-7250D02*Y-8750D01*
Y-7250D02*X198775Y-6500D01*
X200275D01*
X201025Y-7250D01*
X198025Y-8000D02*X201025D01*
Y-7250D02*Y-8000D01*
X205525Y-5000D02*Y-5750D01*
Y-7250D02*Y-9500D01*
X207775D02*X210025D01*
X210775Y-8750D01*
X210025Y-8000D02*X210775Y-8750D01*
X207775Y-8000D02*X210025D01*
X207025Y-7250D02*X207775Y-8000D01*
X207025Y-7250D02*X207775Y-6500D01*
X210025D01*
X210775Y-7250D01*
X207025Y-8750D02*X207775Y-9500D01*
X216025Y-3500D02*Y-8750D01*
X216775Y-9500D01*
X215275Y-5750D02*X216775D01*
X218275Y-3500D02*Y-9500D01*
Y-7250D02*X219025Y-6500D01*
X220525D01*
X221275Y-7250D01*
Y-9500D01*
X223825D02*X226075D01*
X223075Y-8750D02*X223825Y-9500D01*
X223075Y-7250D02*Y-8750D01*
Y-7250D02*X223825Y-6500D01*
X225325D01*
X226075Y-7250D01*
X223075Y-8000D02*X226075D01*
Y-7250D02*Y-8000D01*
X231325Y-6500D02*X233575D01*
X230575Y-7250D02*X231325Y-6500D01*
X230575Y-7250D02*Y-8750D01*
X231325Y-9500D01*
X233575D01*
X236125D02*X238375D01*
X235375Y-8750D02*X236125Y-9500D01*
X235375Y-7250D02*Y-8750D01*
Y-7250D02*X236125Y-6500D01*
X237625D01*
X238375Y-7250D01*
X235375Y-8000D02*X238375D01*
Y-7250D02*Y-8000D01*
X240925Y-7250D02*Y-9500D01*
Y-7250D02*X241675Y-6500D01*
X242425D01*
X243175Y-7250D01*
Y-9500D01*
X240175Y-6500D02*X240925Y-7250D01*
X245725Y-3500D02*Y-8750D01*
X246475Y-9500D01*
X244975Y-5750D02*X246475D01*
X248725Y-9500D02*X250975D01*
X247975Y-8750D02*X248725Y-9500D01*
X247975Y-7250D02*Y-8750D01*
Y-7250D02*X248725Y-6500D01*
X250225D01*
X250975Y-7250D01*
X247975Y-8000D02*X250975D01*
Y-7250D02*Y-8000D01*
X253525Y-7250D02*Y-9500D01*
Y-7250D02*X254275Y-6500D01*
X255775D01*
X252775D02*X253525Y-7250D01*
X257575Y-3500D02*Y-8750D01*
X258325Y-9500D01*
X259825Y-5000D02*Y-5750D01*
Y-7250D02*Y-9500D01*
X262075Y-7250D02*Y-9500D01*
Y-7250D02*X262825Y-6500D01*
X263575D01*
X264325Y-7250D01*
Y-9500D01*
X261325Y-6500D02*X262075Y-7250D01*
X266875Y-9500D02*X269125D01*
X266125Y-8750D02*X266875Y-9500D01*
X266125Y-7250D02*Y-8750D01*
Y-7250D02*X266875Y-6500D01*
X268375D01*
X269125Y-7250D01*
X266125Y-8000D02*X269125D01*
Y-7250D02*Y-8000D01*
X273625Y-7250D02*Y-8750D01*
Y-7250D02*X274375Y-6500D01*
X275875D01*
X276625Y-7250D01*
Y-8750D01*
X275875Y-9500D02*X276625Y-8750D01*
X274375Y-9500D02*X275875D01*
X273625Y-8750D02*X274375Y-9500D01*
X279175Y-4250D02*Y-9500D01*
Y-4250D02*X279925Y-3500D01*
X280675D01*
X278425Y-6500D02*X279925D01*
X285625Y-3500D02*Y-8750D01*
X286375Y-9500D01*
X284875Y-5750D02*X286375D01*
X287875Y-3500D02*Y-9500D01*
Y-7250D02*X288625Y-6500D01*
X290125D01*
X290875Y-7250D01*
Y-9500D01*
X292675Y-5000D02*Y-5750D01*
Y-7250D02*Y-9500D01*
X294925D02*X297175D01*
X297925Y-8750D01*
X297175Y-8000D02*X297925Y-8750D01*
X294925Y-8000D02*X297175D01*
X294175Y-7250D02*X294925Y-8000D01*
X294175Y-7250D02*X294925Y-6500D01*
X297175D01*
X297925Y-7250D01*
X294175Y-8750D02*X294925Y-9500D01*
X303175Y-7250D02*Y-11750D01*
X302425Y-6500D02*X303175Y-7250D01*
X303925Y-6500D01*
X305425D01*
X306175Y-7250D01*
Y-8750D01*
X305425Y-9500D02*X306175Y-8750D01*
X303925Y-9500D02*X305425D01*
X303175Y-8750D02*X303925Y-9500D01*
X310225Y-6500D02*X310975Y-7250D01*
X308725Y-6500D02*X310225D01*
X307975Y-7250D02*X308725Y-6500D01*
X307975Y-7250D02*Y-8750D01*
X308725Y-9500D01*
X310975Y-6500D02*Y-8750D01*
X311725Y-9500D01*
X308725D02*X310225D01*
X310975Y-8750D01*
X314275Y-3500D02*Y-8750D01*
X315025Y-9500D01*
X313525Y-5750D02*X315025D01*
X316525Y-3500D02*Y-9500D01*
Y-7250D02*X317275Y-6500D01*
X318775D01*
X319525Y-7250D01*
Y-9500D01*
X200750Y278500D02*Y272500D01*
X203000Y278500D02*X203750Y277750D01*
Y273250D01*
X203000Y272500D02*X203750Y273250D01*
X200000Y272500D02*X203000D01*
X200000Y278500D02*X203000D01*
X207800Y275500D02*X208550Y274750D01*
X206300Y275500D02*X207800D01*
X205550Y274750D02*X206300Y275500D01*
X205550Y274750D02*Y273250D01*
X206300Y272500D01*
X208550Y275500D02*Y273250D01*
X209300Y272500D01*
X206300D02*X207800D01*
X208550Y273250D01*
X211850Y278500D02*Y273250D01*
X212600Y272500D01*
X211100Y276250D02*X212600D01*
X214850Y272500D02*X217100D01*
X214100Y273250D02*X214850Y272500D01*
X214100Y274750D02*Y273250D01*
Y274750D02*X214850Y275500D01*
X216350D01*
X217100Y274750D01*
X214100Y274000D02*X217100D01*
Y274750D02*Y274000D01*
X218900Y276250D02*X219650D01*
X218900Y274750D02*X219650D01*
X224150Y278500D02*X227150D01*
X225650D02*Y272500D01*
X228950Y275500D02*Y273250D01*
X229700Y272500D01*
X231200D01*
X231950Y273250D01*
Y275500D02*Y273250D01*
X234500Y272500D02*X236750D01*
X233750Y273250D02*X234500Y272500D01*
X233750Y274750D02*Y273250D01*
Y274750D02*X234500Y275500D01*
X236000D01*
X236750Y274750D01*
X233750Y274000D02*X236750D01*
Y274750D02*Y274000D01*
X241250Y277750D02*Y273250D01*
Y277750D02*X242000Y278500D01*
X243500D01*
X244250Y277750D01*
Y273250D01*
X243500Y272500D02*X244250Y273250D01*
X242000Y272500D02*X243500D01*
X241250Y273250D02*X242000Y272500D01*
X246800Y275500D02*X249050D01*
X246050Y274750D02*X246800Y275500D01*
X246050Y274750D02*Y273250D01*
X246800Y272500D01*
X249050D01*
X251600Y278500D02*Y273250D01*
X252350Y272500D01*
X250850Y276250D02*X252350D01*
X259250Y272500D02*X263000Y276250D01*
Y278500D02*Y276250D01*
X259250Y278500D02*X263000D01*
X268250Y272500D02*X269750D01*
X269000Y278500D02*Y272500D01*
X267500Y277000D02*X269000Y278500D01*
X271550Y272500D02*X274550Y275500D01*
Y277750D02*Y275500D01*
X273800Y278500D02*X274550Y277750D01*
X272300Y278500D02*X273800D01*
X271550Y277750D02*X272300Y278500D01*
X271550Y277750D02*Y276250D01*
X272300Y275500D01*
X274550D01*
X276350Y276250D02*X277100D01*
X276350Y274750D02*X277100D01*
X278900Y278500D02*X281900D01*
X278900D02*Y275500D01*
X279650Y276250D01*
X281150D01*
X281900Y275500D01*
Y273250D01*
X281150Y272500D02*X281900Y273250D01*
X279650Y272500D02*X281150D01*
X278900Y273250D02*X279650Y272500D01*
X283700Y277750D02*X284450Y278500D01*
X286700D01*
X287450Y277750D01*
Y276250D01*
X283700Y272500D02*X287450Y276250D01*
X283700Y272500D02*X287450D01*
X289250Y276250D02*X290000D01*
X289250Y274750D02*X290000D01*
X291800Y273250D02*X292550Y272500D01*
X291800Y277750D02*Y273250D01*
Y277750D02*X292550Y278500D01*
X294050D01*
X294800Y277750D01*
Y273250D01*
X294050Y272500D02*X294800Y273250D01*
X292550Y272500D02*X294050D01*
X291800Y274000D02*X294800Y277000D01*
X296600Y277750D02*X297350Y278500D01*
X299600D01*
X300350Y277750D01*
Y276250D01*
X296600Y272500D02*X300350Y276250D01*
X296600Y272500D02*X300350D01*
X304850Y277750D02*X305600Y278500D01*
X307850D01*
X308600Y277750D01*
Y276250D01*
X304850Y272500D02*X308600Y276250D01*
X304850Y272500D02*X308600D01*
X310400Y273250D02*X311150Y272500D01*
X310400Y277750D02*Y273250D01*
Y277750D02*X311150Y278500D01*
X312650D01*
X313400Y277750D01*
Y273250D01*
X312650Y272500D02*X313400Y273250D01*
X311150Y272500D02*X312650D01*
X310400Y274000D02*X313400Y277000D01*
X315950Y272500D02*X317450D01*
X316700Y278500D02*Y272500D01*
X315200Y277000D02*X316700Y278500D01*
X319250Y275500D02*X322250Y278500D01*
X319250Y275500D02*X323000D01*
X322250Y278500D02*Y272500D01*
X327500Y278500D02*Y273250D01*
X328250Y272500D01*
X329750D01*
X330500Y273250D01*
Y278500D02*Y273250D01*
X332300Y278500D02*X335300D01*
X333800D02*Y272500D01*
X337850D02*X340100D01*
X337100Y273250D02*X337850Y272500D01*
X337100Y277750D02*Y273250D01*
Y277750D02*X337850Y278500D01*
X340100D01*
X200000Y292750D02*Y287500D01*
Y292750D02*X200750Y293500D01*
X203000D01*
X203750Y292750D01*
Y287500D01*
X200000Y290500D02*X203750D01*
X205550D02*Y288250D01*
X206300Y287500D01*
X207800D01*
X208550Y288250D01*
Y290500D02*Y288250D01*
X211100Y293500D02*Y288250D01*
X211850Y287500D01*
X210350Y291250D02*X211850D01*
X213350Y293500D02*Y287500D01*
Y289750D02*X214100Y290500D01*
X215600D01*
X216350Y289750D01*
Y287500D01*
X218150Y289750D02*Y288250D01*
Y289750D02*X218900Y290500D01*
X220400D01*
X221150Y289750D01*
Y288250D01*
X220400Y287500D02*X221150Y288250D01*
X218900Y287500D02*X220400D01*
X218150Y288250D02*X218900Y287500D01*
X223700Y289750D02*Y287500D01*
Y289750D02*X224450Y290500D01*
X225950D01*
X222950D02*X223700Y289750D01*
X227750Y291250D02*X228500D01*
X227750Y289750D02*X228500D01*
X200000Y308500D02*X203000D01*
X201500D02*Y302500D01*
X204800Y307000D02*Y306250D01*
Y304750D02*Y302500D01*
X207050Y308500D02*Y303250D01*
X207800Y302500D01*
X206300Y306250D02*X207800D01*
X209300Y308500D02*Y303250D01*
X210050Y302500D01*
X212300D02*X214550D01*
X211550Y303250D02*X212300Y302500D01*
X211550Y304750D02*Y303250D01*
Y304750D02*X212300Y305500D01*
X213800D01*
X214550Y304750D01*
X211550Y304000D02*X214550D01*
Y304750D02*Y304000D01*
X216350Y306250D02*X217100D01*
X216350Y304750D02*X217100D01*
X221600Y303250D02*X222350Y302500D01*
X221600Y307750D02*X222350Y308500D01*
X221600Y307750D02*Y303250D01*
X224150Y305500D02*Y303250D01*
X224900Y302500D01*
X226400D01*
X227150Y303250D01*
Y305500D02*Y303250D01*
X229700Y304750D02*Y302500D01*
Y304750D02*X230450Y305500D01*
X231200D01*
X231950Y304750D01*
Y302500D01*
X228950Y305500D02*X229700Y304750D01*
X233750Y308500D02*Y302500D01*
Y304750D02*X236000Y302500D01*
X233750Y304750D02*X235250Y306250D01*
X238550Y304750D02*Y302500D01*
Y304750D02*X239300Y305500D01*
X240050D01*
X240800Y304750D01*
Y302500D01*
X237800Y305500D02*X238550Y304750D01*
X242600D02*Y303250D01*
Y304750D02*X243350Y305500D01*
X244850D01*
X245600Y304750D01*
Y303250D01*
X244850Y302500D02*X245600Y303250D01*
X243350Y302500D02*X244850D01*
X242600Y303250D02*X243350Y302500D01*
X247400Y305500D02*Y303250D01*
X248150Y302500D01*
X248900D01*
X249650Y303250D01*
Y305500D02*Y303250D01*
X250400Y302500D01*
X251150D01*
X251900Y303250D01*
Y305500D02*Y303250D01*
X254450Y304750D02*Y302500D01*
Y304750D02*X255200Y305500D01*
X255950D01*
X256700Y304750D01*
Y302500D01*
X253700Y305500D02*X254450Y304750D01*
X258500Y308500D02*X259250Y307750D01*
Y303250D01*
X258500Y302500D02*X259250Y303250D01*
X263750Y305500D02*X266750D01*
X271250Y308500D02*Y302500D01*
Y308500D02*X274250D01*
X271250Y305500D02*X273500D01*
X278300D02*X279050Y304750D01*
X276800Y305500D02*X278300D01*
X276050Y304750D02*X276800Y305500D01*
X276050Y304750D02*Y303250D01*
X276800Y302500D01*
X279050Y305500D02*Y303250D01*
X279800Y302500D01*
X276800D02*X278300D01*
X279050Y303250D01*
X281600Y308500D02*Y302500D01*
Y303250D02*X282350Y302500D01*
X283850D01*
X284600Y303250D01*
Y304750D02*Y303250D01*
X283850Y305500D02*X284600Y304750D01*
X282350Y305500D02*X283850D01*
X281600Y304750D02*X282350Y305500D01*
X287150Y304750D02*Y302500D01*
Y304750D02*X287900Y305500D01*
X289400D01*
X286400D02*X287150Y304750D01*
X291200Y307000D02*Y306250D01*
Y304750D02*Y302500D01*
X293450Y305500D02*X295700D01*
X292700Y304750D02*X293450Y305500D01*
X292700Y304750D02*Y303250D01*
X293450Y302500D01*
X295700D01*
X299750Y305500D02*X300500Y304750D01*
X298250Y305500D02*X299750D01*
X297500Y304750D02*X298250Y305500D01*
X297500Y304750D02*Y303250D01*
X298250Y302500D01*
X300500Y305500D02*Y303250D01*
X301250Y302500D01*
X298250D02*X299750D01*
X300500Y303250D01*
X303800Y308500D02*Y303250D01*
X304550Y302500D01*
X303050Y306250D02*X304550D01*
X306050Y307000D02*Y306250D01*
Y304750D02*Y302500D01*
X307550Y304750D02*Y303250D01*
Y304750D02*X308300Y305500D01*
X309800D01*
X310550Y304750D01*
Y303250D01*
X309800Y302500D02*X310550Y303250D01*
X308300Y302500D02*X309800D01*
X307550Y303250D02*X308300Y302500D01*
X313100Y304750D02*Y302500D01*
Y304750D02*X313850Y305500D01*
X314600D01*
X315350Y304750D01*
Y302500D01*
X312350Y305500D02*X313100Y304750D01*
X320600Y308500D02*Y302500D01*
X322850Y308500D02*X323600Y307750D01*
Y303250D01*
X322850Y302500D02*X323600Y303250D01*
X319850Y302500D02*X322850D01*
X319850Y308500D02*X322850D01*
X326150Y304750D02*Y302500D01*
Y304750D02*X326900Y305500D01*
X328400D01*
X325400D02*X326150Y304750D01*
X332450Y305500D02*X333200Y304750D01*
X330950Y305500D02*X332450D01*
X330200Y304750D02*X330950Y305500D01*
X330200Y304750D02*Y303250D01*
X330950Y302500D01*
X333200Y305500D02*Y303250D01*
X333950Y302500D01*
X330950D02*X332450D01*
X333200Y303250D01*
X335750Y305500D02*Y303250D01*
X336500Y302500D01*
X337250D01*
X338000Y303250D01*
Y305500D02*Y303250D01*
X338750Y302500D01*
X339500D01*
X340250Y303250D01*
Y305500D02*Y303250D01*
X342050Y307000D02*Y306250D01*
Y304750D02*Y302500D01*
X344300Y304750D02*Y302500D01*
Y304750D02*X345050Y305500D01*
X345800D01*
X346550Y304750D01*
Y302500D01*
X343550Y305500D02*X344300Y304750D01*
X350600Y305500D02*X351350Y304750D01*
X349100Y305500D02*X350600D01*
X348350Y304750D02*X349100Y305500D01*
X348350Y304750D02*Y303250D01*
X349100Y302500D01*
X350600D01*
X351350Y303250D01*
X348350Y301000D02*X349100Y300250D01*
X350600D01*
X351350Y301000D01*
Y305500D02*Y301000D01*
M02*
