G04 start of page 6 for group -4063 idx -4063 *
G04 Title: (unknown), componentmask *
G04 Creator: pcb 20110918 *
G04 CreationDate: Tue Oct  7 19:52:02 2014 UTC *
G04 For: fosse *
G04 Format: Gerber/RS-274X *
G04 PCB-Dimensions: 470000 250000 *
G04 PCB-Coordinate-Origin: lower left *
%MOIN*%
%FSLAX25Y25*%
%LNTOPMASK*%
%ADD70C,0.0780*%
%ADD69C,0.1110*%
%ADD68C,0.2060*%
%ADD67C,0.0860*%
%ADD66C,0.0560*%
%ADD65C,0.0610*%
%ADD64C,0.0660*%
%ADD63C,0.0001*%
G54D63*G36*
X131950Y111550D02*Y105450D01*
X138050D01*
Y111550D01*
X131950D01*
G37*
G36*
Y126550D02*Y120450D01*
X138050D01*
Y126550D01*
X131950D01*
G37*
G54D64*X135000Y78500D03*
G54D63*G36*
X131950Y96550D02*Y90450D01*
X138050D01*
Y96550D01*
X131950D01*
G37*
G54D65*X175000Y108500D03*
G54D63*G36*
X171700Y81800D02*Y75200D01*
X178300D01*
Y81800D01*
X171700D01*
G37*
G54D65*X175000Y93500D03*
Y123500D03*
G54D63*G36*
X184200Y136800D02*Y130200D01*
X190800D01*
Y136800D01*
X184200D01*
G37*
G54D64*X187500Y123500D03*
Y113500D03*
Y103500D03*
G54D63*G36*
X97200Y135800D02*Y129200D01*
X103800D01*
Y135800D01*
X97200D01*
G37*
G36*
X36200Y80800D02*Y74200D01*
X42800D01*
Y80800D01*
X36200D01*
G37*
G54D64*X49500Y77500D03*
X59500D03*
X69500D03*
X110500Y132500D03*
G54D63*G36*
X106700Y102300D02*Y95700D01*
X113300D01*
Y102300D01*
X106700D01*
G37*
G36*
X231100Y167400D02*Y159600D01*
X238900D01*
Y167400D01*
X231100D01*
G37*
G36*
X224700Y153800D02*Y148200D01*
X230300D01*
Y153800D01*
X224700D01*
G37*
G54D66*X187500Y151000D03*
G54D63*G36*
X184450Y166550D02*Y160450D01*
X190550D01*
Y166550D01*
X184450D01*
G37*
G54D65*X227500Y163500D03*
G54D63*G36*
X199200Y191800D02*Y185200D01*
X205800D01*
Y191800D01*
X199200D01*
G37*
G36*
X184450Y176550D02*Y170450D01*
X190550D01*
Y176550D01*
X184450D01*
G37*
G54D67*X147500Y196000D03*
X157500D03*
G54D68*X137500Y220000D03*
X177500D03*
G54D63*G36*
X169200Y154300D02*Y147700D01*
X175800D01*
Y154300D01*
X169200D01*
G37*
G36*
X97200Y165800D02*Y159200D01*
X103800D01*
Y165800D01*
X97200D01*
G37*
G54D64*X110500Y162500D03*
G54D69*X47500Y241000D03*
X67500D03*
G54D63*G36*
X51950Y196550D02*Y185450D01*
X63050D01*
Y196550D01*
X51950D01*
G37*
G54D69*X39000Y191000D03*
X76000D03*
X39000Y176000D03*
X57500D03*
X76000D03*
G54D63*G36*
X111200Y191300D02*Y184700D01*
X117800D01*
Y191300D01*
X111200D01*
G37*
G54D67*X247500Y196000D03*
G54D68*X237500Y220000D03*
G54D67*X257500Y196000D03*
G54D68*X277500Y220000D03*
G54D64*X212500Y188500D03*
G54D65*X227500Y173500D03*
G54D63*G36*
X294450Y229550D02*Y223450D01*
X300550D01*
Y229550D01*
X294450D01*
G37*
G54D65*X297500Y186500D03*
G54D63*G36*
X318450Y196550D02*Y190450D01*
X324550D01*
Y196550D01*
X318450D01*
G37*
G36*
X322700Y223800D02*Y217200D01*
X329300D01*
Y223800D01*
X322700D01*
G37*
G36*
X416700Y86800D02*Y80200D01*
X423300D01*
Y86800D01*
X416700D01*
G37*
G54D64*X430000Y83500D03*
G54D63*G36*
X416700Y116800D02*Y110200D01*
X423300D01*
Y116800D01*
X416700D01*
G37*
G54D64*X430000Y113500D03*
G54D63*G36*
X371700Y116800D02*Y110200D01*
X378300D01*
Y116800D01*
X371700D01*
G37*
G54D64*X405000Y113500D03*
X375000Y103500D03*
X405000D03*
X375000Y93500D03*
Y83500D03*
X405000D03*
Y93500D03*
G54D63*G36*
X229450Y116550D02*Y110450D01*
X235550D01*
Y116550D01*
X229450D01*
G37*
G54D70*X245000Y163500D03*
X255000D03*
G54D63*G36*
X261700Y166800D02*Y160200D01*
X268300D01*
Y166800D01*
X261700D01*
G37*
G54D65*X235000Y143500D03*
G54D63*G36*
X229200Y126800D02*Y120200D01*
X235800D01*
Y126800D01*
X229200D01*
G37*
G54D65*X272500Y113500D03*
G54D64*X275000Y163500D03*
G54D63*G36*
X271950Y146550D02*Y140450D01*
X278050D01*
Y146550D01*
X271950D01*
G37*
G36*
X279450D02*Y140450D01*
X285550D01*
Y146550D01*
X279450D01*
G37*
G36*
X299200Y136800D02*Y130200D01*
X305800D01*
Y136800D01*
X299200D01*
G37*
G54D64*X312500Y133500D03*
G54D65*X282500Y103500D03*
G54D63*G36*
X294200Y166800D02*Y160200D01*
X300800D01*
Y166800D01*
X294200D01*
G37*
G36*
X319450Y181550D02*Y175450D01*
X325550D01*
Y181550D01*
X319450D01*
G37*
G36*
X324200Y166800D02*Y160200D01*
X330800D01*
Y166800D01*
X324200D01*
G37*
G54D64*X327500Y153500D03*
Y143500D03*
Y133500D03*
X217500Y103500D03*
Y113500D03*
Y123500D03*
Y133500D03*
G54D68*X375000Y220000D03*
X415000D03*
G54D65*X362500Y178500D03*
X361500Y193500D03*
G54D67*X385000Y196000D03*
X395000D03*
G54D64*X387500Y153500D03*
G54D63*G36*
X397150Y179050D02*Y172950D01*
X403250D01*
Y179050D01*
X397150D01*
G37*
G54D65*X400200Y136000D03*
G54D63*G36*
X374200Y156800D02*Y150200D01*
X380800D01*
Y156800D01*
X374200D01*
G37*
G54D64*X357500Y133500D03*
Y143500D03*
Y153500D03*
Y163500D03*
G54D63*G36*
X346700Y86800D02*Y80200D01*
X353300D01*
Y86800D01*
X346700D01*
G37*
G54D64*X360000Y83500D03*
G54D63*G36*
X341700Y109800D02*Y103200D01*
X348300D01*
Y109800D01*
X341700D01*
G37*
M02*
