M48
INCH
T62C0.050
T61C0.071
T60C0.065
T59C0.079
T58C0.032
T57C0.020
T56C0.042
T55C0.038
T54C0.028
T53C0.030
%
T57
X022750Y015100
X018750Y015100
T54
X018750Y013350
X018750Y012350
X018750Y011350
X018750Y010350
X037500Y011350
X040500Y011350
X037500Y010350
X040500Y010350
X037500Y009350
X037500Y008350
X040500Y008350
X040500Y009350
X032750Y016350
X032750Y015350
X032750Y014350
X032750Y013350
X021750Y010350
X021750Y011350
X021750Y012350
X021750Y013350
X035750Y013350
X035750Y014350
X035750Y015350
X035750Y016350
T53
X013500Y010850
X013500Y012350
X013500Y007850
X013500Y009350
X017500Y010850
X017500Y007850
X017500Y009350
X017500Y012350
X010050Y013250
X011050Y013250
X018750Y016350
X022750Y016350
X020250Y018850
X018750Y017350
X010050Y016250
X011050Y016250
X021250Y018850
X022750Y017350
X029750Y022650
X029750Y018650
X032150Y019350
X042000Y008350
X043000Y008350
X042000Y011350
X043000Y011350
X023250Y011350
X026500Y016350
X023500Y014350
X027250Y011350
X027500Y016350
X027500Y014350
X028250Y014350
X030250Y013350
X031250Y013350
X028250Y010350
X032250Y017850
X036250Y017850
X036150Y019350
X038750Y015350
X040020Y017600
X040020Y013600
X037750Y015350
X035000Y008350
X036000Y008350
T58
X014750Y019600
X015750Y019600
X024750Y019600
X025750Y019600
X038500Y019600
X039500Y019600
T55
X003950Y007750
X004950Y007750
X005950Y007750
X006950Y007750
X011000Y009900
X017250Y015100
X011450Y018800
X032600Y022050
X023250Y012350
X029750Y016350
X034500Y010650
T56
X023500Y016350
X024500Y016350
X025500Y016350
T62
X018750Y008600
T60
X004750Y024100
X006750Y024100
T61
X005750Y019100
X003900Y019100
X007600Y019100
X003900Y017600
X005750Y017600
X007600Y017600
T59
X013750Y022000
X017750Y022000
X023750Y022000
X027750Y022000
X037500Y022000
X041500Y022000
M30
