G04 start of page 3 for group 1 idx 1 *
G04 Title: (unknown), solder *
G04 Creator: pcb 20100929 *
G04 CreationDate: Thu Mar 10 15:56:12 2011 UTC *
G04 For: fosse *
G04 Format: Gerber/RS-274X *
G04 PCB-Dimensions: 282500 400000 *
G04 PCB-Coordinate-Origin: lower left *
%MOIN*%
%FSLAX25Y25*%
%LNBACK*%
%ADD11C,0.0550*%
%ADD13C,0.0400*%
%ADD14C,0.0600*%
%ADD15C,0.0500*%
%ADD16C,0.0350*%
%ADD17C,0.0800*%
%ADD18C,0.2000*%
%ADD19C,0.0200*%
%ADD20C,0.1050*%
%ADD21C,0.0720*%
%ADD22C,0.0080*%
%ADD23C,0.0320*%
%ADD24C,0.0790*%
%ADD25C,0.0380*%
%ADD26C,0.0300*%
%ADD27C,0.0710*%
%ADD28C,0.0650*%
%ADD29C,0.0420*%
%ADD30C,0.0280*%
%ADD31C,0.0040*%
%ADD32C,0.1100*%
%ADD33C,0.0850*%
%ADD34C,0.0450*%
G54D32*X153500Y242500D02*X13500D01*
G54D14*X163500Y192500D02*X198500Y227500D01*
G54D33*X174500Y263500D02*X153500Y242500D01*
X263500Y263500D02*X174500D01*
G54D15*X212500Y213500D02*X198500Y227500D01*
G54D34*X258500Y77500D02*Y193500D01*
X248500Y77500D02*Y187500D01*
X258500Y193500D02*X253500Y198500D01*
X248500Y187500D02*X244500Y191500D01*
Y204500D02*X253500Y213500D01*
G54D15*X234000Y197500D02*X235000Y198500D01*
G54D34*X244500Y191500D02*Y204500D01*
G54D15*X208500Y197500D02*X234000D01*
G54D16*X209500Y198500D02*X208500Y197500D01*
G54D15*Y165000D01*
X235000Y213500D02*X212500D01*
G54D14*X186000Y165000D02*X208500Y142500D01*
X183500Y187500D02*Y165000D01*
G54D13*X186000D01*
G54D14*X163500Y192500D02*Y145000D01*
X186000Y122500D01*
X163500D01*
G54D13*X133500Y112500D02*X143500Y102500D01*
G54D14*X163500Y122500D02*X153500Y132500D01*
G54D13*X123500Y112500D02*X133500D01*
G54D14*X93500Y122500D02*X73500D01*
G54D13*Y92500D02*X113500D01*
X123500Y102500D01*
X143500Y122500D02*X123500D01*
Y112500D01*
G54D15*X28500Y67500D02*X228500D01*
X13500Y82500D02*X28500Y67500D01*
G54D14*X153500Y132500D02*X123500D01*
G54D15*X81000D02*X73500Y140000D01*
X93500Y132500D02*X81000D01*
G54D14*X61000Y135000D02*X73500Y122500D01*
G54D15*X228500Y67500D02*X238500Y77500D01*
X13500Y242500D02*Y82500D01*
G54D13*X33500Y122500D02*Y107500D01*
X23500Y218500D02*Y132500D01*
X33500Y122500D01*
G54D14*X98500Y187500D02*X106000D01*
X128500Y165000D01*
X143500D01*
Y187500D01*
X88500D02*Y165000D01*
X76000D01*
X61000Y150000D01*
Y135000D01*
G54D17*X23500Y218500D03*
G54D18*X13500Y242500D03*
G54D17*X33500Y218500D03*
G54D18*X53500Y242500D03*
G54D17*X123500Y218500D03*
G54D18*X113500Y242500D03*
G54D17*X133500Y218500D03*
G54D18*X153500Y242500D03*
G54D19*G36*
X205500Y168000D02*Y162000D01*
X211500D01*
Y168000D01*
X205500D01*
G37*
G36*
X195500Y200500D02*Y194500D01*
X201500D01*
Y200500D01*
X195500D01*
G37*
G54D14*X208500Y197500D03*
G54D19*G36*
X205750Y105250D02*Y99750D01*
X211250D01*
Y105250D01*
X205750D01*
G37*
G36*
X235500Y80500D02*Y74500D01*
X241500D01*
Y80500D01*
X235500D01*
G37*
G54D14*X248500Y77500D03*
X258500D03*
X268500D03*
G54D11*X208500Y142500D03*
X183500Y102500D03*
G54D19*G36*
X183000Y125500D02*Y119500D01*
X189000D01*
Y125500D01*
X183000D01*
G37*
G54D14*X196000Y122500D03*
G54D11*X183500Y142500D03*
G54D19*G36*
X180500Y168000D02*Y162000D01*
X186500D01*
Y168000D01*
X180500D01*
G37*
G36*
X180750Y190250D02*Y184750D01*
X186250D01*
Y190250D01*
X180750D01*
G37*
G36*
X195500Y230500D02*Y224500D01*
X201500D01*
Y230500D01*
X195500D01*
G37*
G54D14*X208500Y227500D03*
G54D20*X235000Y213500D03*
X243500Y263500D03*
X263500D03*
G54D19*G36*
X248250Y218750D02*Y208250D01*
X258750D01*
Y218750D01*
X248250D01*
G37*
G54D20*X272000Y213500D03*
X235000Y198500D03*
X253500D03*
X272000D03*
G54D19*G36*
X175500Y210500D02*Y204500D01*
X181500D01*
Y210500D01*
X175500D01*
G37*
G36*
X30750Y110250D02*Y104750D01*
X36250D01*
Y110250D01*
X30750D01*
G37*
G54D14*X33500Y77500D03*
G54D19*G36*
X30750Y95250D02*Y89750D01*
X36250D01*
Y95250D01*
X30750D01*
G37*
G36*
Y125250D02*Y119750D01*
X36250D01*
Y125250D01*
X30750D01*
G37*
G36*
X10500Y180500D02*Y174500D01*
X16500D01*
Y180500D01*
X10500D01*
G37*
G36*
X20500Y150500D02*Y144500D01*
X26500D01*
Y150500D01*
X20500D01*
G37*
G54D11*X73500Y107500D03*
G54D19*G36*
X70500Y80500D02*Y74500D01*
X76500D01*
Y80500D01*
X70500D01*
G37*
G54D11*X73500Y92500D03*
G54D19*G36*
X140750Y105250D02*Y99750D01*
X146250D01*
Y105250D01*
X140750D01*
G37*
G36*
Y145250D02*Y139750D01*
X146250D01*
Y145250D01*
X140750D01*
G37*
G36*
X139900Y168600D02*Y161400D01*
X147100D01*
Y168600D01*
X139900D01*
G37*
G54D21*X153500Y165000D03*
X163500D03*
G54D19*G36*
X140500Y125500D02*Y119500D01*
X146500D01*
Y125500D01*
X140500D01*
G37*
G54D11*X73500Y122500D03*
G54D19*G36*
X70500Y143000D02*Y137000D01*
X76500D01*
Y143000D01*
X70500D01*
G37*
G36*
X90500Y135500D02*Y129500D01*
X96500D01*
Y135500D01*
X90500D01*
G37*
G54D14*X93500Y122500D03*
Y112500D03*
Y102500D03*
X123500D03*
Y112500D03*
Y122500D03*
Y132500D03*
G54D19*G36*
X85500Y190500D02*Y184500D01*
X91500D01*
Y190500D01*
X85500D01*
G37*
G54D14*X98500Y187500D03*
G54D19*G36*
X85750Y167750D02*Y162250D01*
X91250D01*
Y167750D01*
X85750D01*
G37*
G54D11*X143500Y187500D03*
X128500Y165000D03*
G54D22*X253500Y303000D03*
X243500Y281000D03*
X53500D03*
X13500D03*
X113500D03*
X153500D03*
X33500Y314300D03*
X133500D03*
X263500Y281000D03*
G54D23*G54D24*G54D23*G54D24*G54D23*G54D24*G54D23*G54D24*G54D25*G54D26*G54D25*G54D26*G54D25*G54D26*G54D27*G54D28*G54D27*G54D25*G54D26*G54D25*G54D26*G54D29*G54D25*G54D26*G54D25*G54D30*G54D26*G54D31*M02*
