G04 start of page 7 for group -4079 idx -4079 *
G04 Title: (unknown), topsilk *
G04 Creator: pcb 20100929 *
G04 CreationDate: Thu Mar 10 15:56:12 2011 UTC *
G04 For: fosse *
G04 Format: Gerber/RS-274X *
G04 PCB-Dimensions: 282500 400000 *
G04 PCB-Coordinate-Origin: lower left *
%MOIN*%
%FSLAX25Y25*%
%LNFRONTSILK*%
%ADD12C,0.0100*%
%ADD13C,0.0400*%
%ADD41C,0.0060*%
G54D12*X139000Y330000D02*X138000Y329000D01*
X136500D01*
X136000Y332500D02*Y326000D01*
Y332500D02*X138000D01*
X139000Y331500D01*
Y330000D01*
X162500Y342500D02*Y281000D01*
X129500Y326000D02*X130500Y327000D01*
X133500Y315800D02*Y312800D01*
X135000Y314300D02*X132000D01*
X104500Y281000D02*Y342500D01*
X126500Y332500D02*Y327000D01*
X127500Y326000D01*
X129500D01*
X130500Y327000D02*Y332500D01*
X133500Y337000D02*Y325000D01*
Y337000D02*X131500Y335000D01*
X135500D01*
X133500Y337000D01*
G54D41*X281000Y270000D02*X2500D01*
G54D12*X-500Y274750D02*X282000D01*
X-1000Y280000D02*X281500D01*
X62500Y281000D02*X4500D01*
X162500D02*X104500D01*
G54D41*X2500Y270000D02*Y63500D01*
X281000D01*
Y270000D01*
G54D12*X228500Y281000D02*X278500D01*
X35000Y314300D02*X32000D01*
X33500Y315800D02*Y312800D01*
Y337000D02*Y325000D01*
X35500Y335000D02*X33500Y337000D01*
X4500Y281000D02*Y342500D01*
X33500Y337000D02*X31500Y335000D01*
X35500D01*
X26500Y332500D02*Y327000D01*
X27500Y326000D01*
X29500D01*
X30500Y327000D01*
Y332500D01*
X4500Y342500D02*X62500D01*
X104500D02*X162500D01*
X62500D02*Y281000D01*
X36000Y332500D02*Y326000D01*
Y332500D02*X38000D01*
X39000Y331500D01*
Y330000D01*
X38000Y329000D01*
X36500D01*
X278500Y325000D02*Y281000D01*
X255000Y303000D02*X252000D01*
X253500Y304500D02*Y301500D01*
X246500Y316000D02*Y310500D01*
X247500Y309500D01*
X249500D01*
X250500Y310500D01*
Y316000D01*
X228500Y325000D02*X278500D01*
X259000Y313500D02*X258000Y312500D01*
X256500D01*
X256000Y316000D02*Y309500D01*
Y316000D02*X258000D01*
X259000Y315000D01*
Y313500D01*
X228500Y281000D02*Y325000D01*
X253500Y320500D02*Y308500D01*
Y320500D02*X251500Y318500D01*
X255500D01*
X253500Y320500D01*
X146000Y209500D02*Y206500D01*
Y209500D02*X146500Y210000D01*
X147500D01*
X148000Y209500D01*
Y206500D01*
X147500Y206000D02*X148000Y206500D01*
X146500Y206000D02*X147500D01*
X146000Y206500D02*X146500Y206000D01*
X149201Y208000D02*Y206500D01*
X149701Y206000D01*
X150701D01*
X151201Y206500D01*
Y208000D02*Y206500D01*
X152902Y210000D02*Y206500D01*
X153402Y206000D01*
X152402Y208500D02*X153402D01*
X154903Y207500D02*Y204500D01*
X154403Y208000D02*X154903Y207500D01*
X155403Y208000D01*
X156403D01*
X156903Y207500D01*
Y206500D01*
X156403Y206000D02*X156903Y206500D01*
X155403Y206000D02*X156403D01*
X154903Y206500D02*X155403Y206000D01*
X158104Y208000D02*Y206500D01*
X158604Y206000D01*
X159604D01*
X160104Y206500D01*
Y208000D02*Y206500D01*
X161805Y210000D02*Y206500D01*
X162305Y206000D01*
X161305Y208500D02*X162305D01*
X245500Y190500D02*Y187500D01*
Y190500D02*X246000Y191000D01*
X247000D01*
X247500Y190500D01*
Y187500D01*
X247000Y187000D02*X247500Y187500D01*
X246000Y187000D02*X247000D01*
X245500Y187500D02*X246000Y187000D01*
X249201Y190500D02*Y187000D01*
Y190500D02*X249701Y191000D01*
X250201D01*
X248701Y189000D02*X249701D01*
X251702Y190500D02*Y187000D01*
Y190500D02*X252202Y191000D01*
X252702D01*
X251202Y189000D02*X252202D01*
X253703Y187500D02*X256703Y190500D01*
X257904D02*Y187500D01*
Y190500D02*X258404Y191000D01*
X259404D01*
X259904Y190500D01*
Y187500D01*
X259404Y187000D02*X259904Y187500D01*
X258404Y187000D02*X259404D01*
X257904Y187500D02*X258404Y187000D01*
X261605Y188500D02*Y187000D01*
Y188500D02*X262105Y189000D01*
X262605D01*
X263105Y188500D01*
Y187000D01*
X261105Y189000D02*X261605Y188500D01*
X175000Y176500D02*Y173500D01*
Y176500D02*X175500Y177000D01*
X176500D01*
X177000Y176500D01*
Y173500D01*
X176500Y173000D02*X177000Y173500D01*
X175500Y173000D02*X176500D01*
X175000Y173500D02*X175500Y173000D01*
X178201Y175000D02*Y173500D01*
X178701Y173000D01*
X179701D01*
X180201Y173500D01*
Y175000D02*Y173500D01*
X181902Y177000D02*Y173500D01*
X182402Y173000D01*
X181402Y175500D02*X182402D01*
X183903Y174500D02*Y171500D01*
X183403Y175000D02*X183903Y174500D01*
X184403Y175000D01*
X185403D01*
X185903Y174500D01*
Y173500D01*
X185403Y173000D02*X185903Y173500D01*
X184403Y173000D02*X185403D01*
X183903Y173500D02*X184403Y173000D01*
X187104Y175000D02*Y173500D01*
X187604Y173000D01*
X188604D01*
X189104Y173500D01*
Y175000D02*Y173500D01*
X190805Y177000D02*Y173500D01*
X191305Y173000D01*
X190305Y175500D02*X191305D01*
X202500Y173500D02*X204500D01*
X206201Y171500D02*X207201D01*
X206701Y175500D02*Y171500D01*
X205701Y174500D02*X206701Y175500D01*
X208402D02*X210402D01*
X208402D02*Y173500D01*
X208902Y174000D01*
X209902D01*
X210402Y173500D01*
Y172000D01*
X209902Y171500D02*X210402Y172000D01*
X208902Y171500D02*X209902D01*
X208402Y172000D02*X208902Y171500D01*
X211603Y175500D02*Y172500D01*
X212603Y171500D01*
X213603Y172500D01*
Y175500D02*Y172500D01*
X49000Y210000D02*X50000D01*
X49500D02*Y206000D01*
X49000D02*X50000D01*
X51701Y207500D02*Y206000D01*
Y207500D02*X52201Y208000D01*
X52701D01*
X53201Y207500D01*
Y206000D01*
X51201Y208000D02*X51701Y207500D01*
X54902D02*Y204500D01*
X54402Y208000D02*X54902Y207500D01*
X55402Y208000D01*
X56402D01*
X56902Y207500D01*
Y206500D01*
X56402Y206000D02*X56902Y206500D01*
X55402Y206000D02*X56402D01*
X54902Y206500D02*X55402Y206000D01*
X58103Y208000D02*Y206500D01*
X58603Y206000D01*
X59603D01*
X60103Y206500D01*
Y208000D02*Y206500D01*
X61804Y210000D02*Y206500D01*
X62304Y206000D01*
X61304Y208500D02*X62304D01*
X4500Y184000D02*X6000D01*
X4000Y184500D02*X4500Y184000D01*
X4000Y187500D02*Y184500D01*
Y187500D02*X4500Y188000D01*
X6000D01*
X7201D02*Y184000D01*
Y185500D02*X7701Y186000D01*
X8701D01*
X9201Y185500D01*
Y184000D01*
X11902Y186000D02*X12402Y185500D01*
X10902Y186000D02*X11902D01*
X10402Y185500D02*X10902Y186000D01*
X10402Y185500D02*Y184500D01*
X10902Y184000D01*
X12402Y186000D02*Y184500D01*
X12902Y184000D01*
X10902D02*X11902D01*
X12402Y184500D01*
X14603Y184000D02*X16103D01*
X16603Y184500D01*
X16103Y185000D02*X16603Y184500D01*
X14603Y185000D02*X16103D01*
X14103Y185500D02*X14603Y185000D01*
X14103Y185500D02*X14603Y186000D01*
X16103D01*
X16603Y185500D01*
X14103Y184500D02*X14603Y184000D01*
X18304D02*X19804D01*
X20304Y184500D01*
X19804Y185000D02*X20304Y184500D01*
X18304Y185000D02*X19804D01*
X17804Y185500D02*X18304Y185000D01*
X17804Y185500D02*X18304Y186000D01*
X19804D01*
X20304Y185500D01*
X17804Y184500D02*X18304Y184000D01*
X21505Y187000D02*Y186500D01*
Y185500D02*Y184000D01*
X23006D02*X24506D01*
X25006Y184500D01*
X24506Y185000D02*X25006Y184500D01*
X23006Y185000D02*X24506D01*
X22506Y185500D02*X23006Y185000D01*
X22506Y185500D02*X23006Y186000D01*
X24506D01*
X25006Y185500D01*
X22506Y184500D02*X23006Y184000D01*
X20500Y158000D02*X21000Y157500D01*
X19000Y158000D02*X20500D01*
X18500Y157500D02*X19000Y158000D01*
X18500Y157500D02*Y154500D01*
X19000Y154000D01*
X20500D01*
X21000Y154500D01*
Y155500D02*Y154500D01*
X20500Y156000D02*X21000Y155500D01*
X19500Y156000D02*X20500D01*
X22201Y158000D02*Y154000D01*
Y158000D02*Y157500D01*
X24701Y155000D01*
Y158000D02*Y154000D01*
X26402Y158000D02*Y154000D01*
X27902Y158000D02*X28402Y157500D01*
Y154500D01*
X27902Y154000D02*X28402Y154500D01*
X25902Y154000D02*X27902D01*
X25902Y158000D02*X27902D01*
X64500Y150500D02*Y147500D01*
X65500Y146500D01*
X66500Y147500D01*
Y150500D02*Y147500D01*
X68201Y150500D02*Y146500D01*
X69701Y150500D02*X70201Y150000D01*
Y147000D01*
X69701Y146500D02*X70201Y147000D01*
X67701Y146500D02*X69701D01*
X67701Y150500D02*X69701D01*
X71402D02*X73402D01*
X73902Y150000D01*
Y149000D01*
X73402Y148500D02*X73902Y149000D01*
X71902Y148500D02*X73402D01*
X71902Y150500D02*Y146500D01*
Y148500D02*X73902Y146500D01*
X75103Y150500D02*X76103D01*
X75603D02*Y146500D01*
X75103D02*X76103D01*
X77304Y150500D02*Y147500D01*
X78304Y146500D01*
X79304Y147500D01*
Y150500D02*Y147500D01*
X80505Y148500D02*X82005D01*
X80505Y146500D02*X82505D01*
X80505Y150500D02*Y146500D01*
Y150500D02*X82505D01*
X173000Y216000D02*X175000D01*
X174000Y217000D02*Y215000D01*
X176701Y214000D02*X177701D01*
X177201Y218000D02*Y214000D01*
X176201Y217000D02*X177201Y218000D01*
X178902D02*X180902D01*
X178902D02*Y216000D01*
X179402Y216500D01*
X180402D01*
X180902Y216000D01*
Y214500D01*
X180402Y214000D02*X180902Y214500D01*
X179402Y214000D02*X180402D01*
X178902Y214500D02*X179402Y214000D01*
X182103Y218000D02*Y215000D01*
X183103Y214000D01*
X184103Y215000D01*
Y218000D02*Y215000D01*
X115390Y278920D02*Y275800D01*
X115000Y278920D02*X116560D01*
X116950Y278530D01*
Y277750D01*
X116560Y277360D02*X116950Y277750D01*
X115390Y277360D02*X116560D01*
X118276Y275800D02*X119446D01*
X117886Y276190D02*X118276Y275800D01*
X117886Y278530D02*Y276190D01*
Y278530D02*X118276Y278920D01*
X119446D01*
X120383Y275800D02*X121943D01*
X122333Y276190D01*
Y276970D02*Y276190D01*
X121943Y277360D02*X122333Y276970D01*
X120773Y277360D02*X121943D01*
X120773Y278920D02*Y275800D01*
X120383Y278920D02*X121943D01*
X122333Y278530D01*
Y277750D01*
X121943Y277360D02*X122333Y277750D01*
X163000Y349620D02*Y348900D01*
Y347460D02*Y345300D01*
X165161Y347460D02*Y345300D01*
Y347460D02*X165881Y348180D01*
X166601D01*
X167321Y347460D01*
Y345300D01*
X164441Y348180D02*X165161Y347460D01*
X169770Y345300D02*X171930D01*
X172650Y346020D01*
X171930Y346740D02*X172650Y346020D01*
X169770Y346740D02*X171930D01*
X169050Y347460D02*X169770Y346740D01*
X169050Y347460D02*X169770Y348180D01*
X171930D01*
X172650Y347460D01*
X169050Y346020D02*X169770Y345300D01*
X174380Y349620D02*Y348900D01*
Y347460D02*Y345300D01*
X178701Y351060D02*Y345300D01*
X177981D02*X178701Y346020D01*
X176541Y345300D02*X177981D01*
X175821Y346020D02*X176541Y345300D01*
X175821Y347460D02*Y346020D01*
Y347460D02*X176541Y348180D01*
X177981D01*
X178701Y347460D01*
X181151Y345300D02*X183311D01*
X180431Y346020D02*X181151Y345300D01*
X180431Y347460D02*Y346020D01*
Y347460D02*X181151Y348180D01*
X182591D01*
X183311Y347460D01*
X180431Y346740D02*X183311D01*
Y347460D02*Y346740D01*
X187632Y347460D02*Y346020D01*
Y347460D02*X188352Y348180D01*
X189792D01*
X190512Y347460D01*
Y346020D01*
X189792Y345300D02*X190512Y346020D01*
X188352Y345300D02*X189792D01*
X187632Y346020D02*X188352Y345300D01*
X192962Y350340D02*Y345300D01*
Y350340D02*X193682Y351060D01*
X194402D01*
X192242Y348180D02*X193682D01*
X199155Y351060D02*Y346020D01*
X199875Y345300D01*
X198435Y348900D02*X199875D01*
X201316Y351060D02*Y345300D01*
Y347460D02*X202036Y348180D01*
X203476D01*
X204196Y347460D01*
Y345300D01*
X206646D02*X208806D01*
X205926Y346020D02*X206646Y345300D01*
X205926Y347460D02*Y346020D01*
Y347460D02*X206646Y348180D01*
X208086D01*
X208806Y347460D01*
X205926Y346740D02*X208806D01*
Y347460D02*Y346740D01*
X213127Y351060D02*Y345300D01*
Y346020D02*X213847Y345300D01*
X215287D01*
X216007Y346020D01*
Y347460D02*Y346020D01*
X215287Y348180D02*X216007Y347460D01*
X213847Y348180D02*X215287D01*
X213127Y347460D02*X213847Y348180D01*
X217737Y347460D02*Y346020D01*
Y347460D02*X218457Y348180D01*
X219897D01*
X220617Y347460D01*
Y346020D01*
X219897Y345300D02*X220617Y346020D01*
X218457Y345300D02*X219897D01*
X217737Y346020D02*X218457Y345300D01*
X222346Y348180D02*X225226Y345300D01*
X222346D02*X225226Y348180D01*
X226956Y345300D02*X227676D01*
X115110Y349780D02*Y344900D01*
X114500Y349780D02*X116940D01*
X117550Y349170D01*
Y347950D01*
X116940Y347340D02*X117550Y347950D01*
X115110Y347340D02*X116940D01*
X119015Y349780D02*Y345510D01*
X119625Y344900D01*
X122676Y347340D02*X123286Y346730D01*
X121456Y347340D02*X122676D01*
X120846Y346730D02*X121456Y347340D01*
X120846Y346730D02*Y345510D01*
X121456Y344900D01*
X123286Y347340D02*Y345510D01*
X123896Y344900D01*
X121456D02*X122676D01*
X123286Y345510D01*
X125971Y347340D02*X127801D01*
X125361Y346730D02*X125971Y347340D01*
X125361Y346730D02*Y345510D01*
X125971Y344900D01*
X127801D01*
X129876D02*X131706D01*
X129266Y345510D02*X129876Y344900D01*
X129266Y346730D02*Y345510D01*
Y346730D02*X129876Y347340D01*
X131096D01*
X131706Y346730D01*
X129266Y346120D02*X131706D01*
Y346730D02*Y346120D01*
X135368Y346730D02*Y345510D01*
Y346730D02*X135978Y347340D01*
X137198D01*
X137808Y346730D01*
Y345510D01*
X137198Y344900D02*X137808Y345510D01*
X135978Y344900D02*X137198D01*
X135368Y345510D02*X135978Y344900D01*
X139883Y346730D02*Y344900D01*
Y346730D02*X140493Y347340D01*
X141103D01*
X141713Y346730D01*
Y344900D01*
X139273Y347340D02*X139883Y346730D01*
X145984Y349780D02*Y345510D01*
X146594Y344900D01*
X145374Y347950D02*X146594D01*
X147815Y349780D02*Y344900D01*
Y346730D02*X148425Y347340D01*
X149645D01*
X150255Y346730D01*
Y344900D01*
X152330D02*X154160D01*
X151720Y345510D02*X152330Y344900D01*
X151720Y346730D02*Y345510D01*
Y346730D02*X152330Y347340D01*
X153550D01*
X154160Y346730D01*
X151720Y346120D02*X154160D01*
Y346730D02*Y346120D01*
X149500Y131000D02*X150500Y132000D01*
X149500Y131000D02*X150500Y130000D01*
X151701Y131000D02*X153701D01*
X154902Y133000D02*Y129500D01*
X155402Y129000D01*
X156402D01*
X156902Y129500D01*
Y133000D02*Y129500D01*
X158603Y130500D02*Y129000D01*
Y130500D02*X159103Y131000D01*
X159603D01*
X160103Y130500D01*
Y129000D01*
X158103Y131000D02*X158603Y130500D01*
X161304Y132000D02*Y131500D01*
Y130500D02*Y129000D01*
X162805Y133000D02*Y129500D01*
X163305Y129000D01*
X162305Y131500D02*X163305D01*
X164306Y131000D02*Y129500D01*
X164806Y129000D01*
X166306Y131000D02*Y128000D01*
X165806Y127500D02*X166306Y128000D01*
X164806Y127500D02*X165806D01*
X164306Y128000D02*X164806Y127500D01*
Y129000D02*X165806D01*
X166306Y129500D01*
X143500Y97500D02*X144000Y97000D01*
X142000Y97500D02*X143500D01*
X141500Y97000D02*X142000Y97500D01*
X141500Y97000D02*Y96000D01*
X142000Y95500D01*
X143500D01*
X144000Y95000D01*
Y94000D01*
X143500Y93500D02*X144000Y94000D01*
X142000Y93500D02*X143500D01*
X141500Y94000D02*X142000Y93500D01*
X145701Y97500D02*Y94000D01*
X146201Y93500D01*
X145201Y96000D02*X146201D01*
X148702Y95500D02*X149202Y95000D01*
X147702Y95500D02*X148702D01*
X147202Y95000D02*X147702Y95500D01*
X147202Y95000D02*Y94000D01*
X147702Y93500D01*
X149202Y95500D02*Y94000D01*
X149702Y93500D01*
X147702D02*X148702D01*
X149202Y94000D01*
X151403Y95000D02*Y93500D01*
Y95000D02*X151903Y95500D01*
X152903D01*
X150903D02*X151403Y95000D01*
X154604Y97500D02*Y94000D01*
X155104Y93500D01*
X154104Y96000D02*X155104D01*
X156105Y97500D02*Y94000D01*
X156605Y93500D01*
X158106D02*X159606D01*
X157606Y94000D02*X158106Y93500D01*
X157606Y95000D02*Y94000D01*
Y95000D02*X158106Y95500D01*
X159106D01*
X159606Y95000D01*
X157606Y94500D02*X159606D01*
Y95000D02*Y94500D01*
X162607Y97000D02*Y94000D01*
Y97000D02*X163107Y97500D01*
X164107D01*
X164607Y97000D01*
Y94000D01*
X164107Y93500D02*X164607Y94000D01*
X163107Y93500D02*X164107D01*
X162607Y94000D02*X163107Y93500D01*
X166308Y95000D02*Y92000D01*
X165808Y95500D02*X166308Y95000D01*
X166808Y95500D01*
X167808D01*
X168308Y95000D01*
Y94000D01*
X167808Y93500D02*X168308Y94000D01*
X166808Y93500D02*X167808D01*
X166308Y94000D02*X166808Y93500D01*
X170009Y97500D02*Y94000D01*
X170509Y93500D01*
X169509Y96000D02*X170509D01*
X171510Y96500D02*Y96000D01*
Y95000D02*Y93500D01*
X173011Y95500D02*X174511D01*
X172511Y95000D02*X173011Y95500D01*
X172511Y95000D02*Y94000D01*
X173011Y93500D01*
X174511D01*
X177212Y95500D02*X177712Y95000D01*
X176212Y95500D02*X177212D01*
X175712Y95000D02*X176212Y95500D01*
X175712Y95000D02*Y94000D01*
X176212Y93500D01*
X177712Y95500D02*Y94000D01*
X178212Y93500D01*
X176212D02*X177212D01*
X177712Y94000D01*
X179413Y97500D02*Y94000D01*
X179913Y93500D01*
X184714Y97500D02*X185214Y97000D01*
X183214Y97500D02*X184714D01*
X182714Y97000D02*X183214Y97500D01*
X182714Y97000D02*Y96000D01*
X183214Y95500D01*
X184714D01*
X185214Y95000D01*
Y94000D01*
X184714Y93500D02*X185214Y94000D01*
X183214Y93500D02*X184714D01*
X182714Y94000D02*X183214Y93500D01*
X186915Y97500D02*Y94000D01*
X187415Y93500D01*
X186415Y96000D02*X187415D01*
X188416Y96500D02*Y96000D01*
Y95000D02*Y93500D01*
X189917Y95000D02*Y93500D01*
Y95000D02*X190417Y95500D01*
X190917D01*
X191417Y95000D01*
Y93500D01*
Y95000D02*X191917Y95500D01*
X192417D01*
X192917Y95000D01*
Y93500D01*
X189417Y95500D02*X189917Y95000D01*
X194118Y95500D02*Y94000D01*
X194618Y93500D01*
X195618D01*
X196118Y94000D01*
Y95500D02*Y94000D01*
X197319Y97500D02*Y94000D01*
X197819Y93500D01*
X200320Y95500D02*X200820Y95000D01*
X199320Y95500D02*X200320D01*
X198820Y95000D02*X199320Y95500D01*
X198820Y95000D02*Y94000D01*
X199320Y93500D01*
X200820Y95500D02*Y94000D01*
X201320Y93500D01*
X199320D02*X200320D01*
X200820Y94000D01*
X203021Y97500D02*Y94000D01*
X203521Y93500D01*
X202521Y96000D02*X203521D01*
X204522Y95000D02*Y94000D01*
Y95000D02*X205022Y95500D01*
X206022D01*
X206522Y95000D01*
Y94000D01*
X206022Y93500D02*X206522Y94000D01*
X205022Y93500D02*X206022D01*
X204522Y94000D02*X205022Y93500D01*
X208223Y95000D02*Y93500D01*
Y95000D02*X208723Y95500D01*
X209723D01*
X207723D02*X208223Y95000D01*
X142000Y86500D02*X143500D01*
X141500Y87000D02*X142000Y86500D01*
X141500Y90000D02*Y87000D01*
Y90000D02*X142000Y90500D01*
X143500D01*
X144701Y89500D02*Y89000D01*
Y88000D02*Y86500D01*
X146202Y88000D02*Y86500D01*
Y88000D02*X146702Y88500D01*
X147702D01*
X145702D02*X146202Y88000D01*
X149403Y88500D02*X150903D01*
X148903Y88000D02*X149403Y88500D01*
X148903Y88000D02*Y87000D01*
X149403Y86500D01*
X150903D01*
X152104Y88500D02*Y87000D01*
X152604Y86500D01*
X153604D01*
X154104Y87000D01*
Y88500D02*Y87000D01*
X155305Y89500D02*Y89000D01*
Y88000D02*Y86500D01*
X156806Y90500D02*Y87000D01*
X157306Y86500D01*
X156306Y89000D02*X157306D01*
X160107Y90500D02*X162107D01*
X162607Y90000D01*
Y89000D01*
X162107Y88500D02*X162607Y89000D01*
X160607Y88500D02*X162107D01*
X160607Y90500D02*Y86500D01*
Y88500D02*X162607Y86500D01*
X164308D02*X165808D01*
X163808Y87000D02*X164308Y86500D01*
X163808Y88000D02*Y87000D01*
Y88000D02*X164308Y88500D01*
X165308D01*
X165808Y88000D01*
X163808Y87500D02*X165808D01*
Y88000D02*Y87500D01*
X167009Y88500D02*Y87500D01*
X168009Y86500D01*
X169009Y87500D01*
Y88500D02*Y87500D01*
X170210Y86500D02*X170710D01*
X173711Y90000D02*X174211Y90500D01*
X175711D01*
X176211Y90000D01*
Y89000D01*
X173711Y86500D02*X176211Y89000D01*
X173711Y86500D02*X176211D01*
X177412Y87000D02*X177912Y86500D01*
X177412Y90000D02*Y87000D01*
Y90000D02*X177912Y90500D01*
X178912D01*
X179412Y90000D01*
Y87000D01*
X178912Y86500D02*X179412Y87000D01*
X177912Y86500D02*X178912D01*
X177412Y87500D02*X179412Y89500D01*
X181113Y86500D02*X182113D01*
X181613Y90500D02*Y86500D01*
X180613Y89500D02*X181613Y90500D01*
X183314Y87000D02*X183814Y86500D01*
X183314Y90000D02*Y87000D01*
Y90000D02*X183814Y90500D01*
X184814D01*
X185314Y90000D01*
Y87000D01*
X184814Y86500D02*X185314Y87000D01*
X183814Y86500D02*X184814D01*
X183314Y87500D02*X185314Y89500D01*
X186515Y86500D02*X187015D01*
X188716D02*X189716D01*
X189216Y90500D02*Y86500D01*
X188216Y89500D02*X189216Y90500D01*
X191417Y86500D02*X192417D01*
X191917Y90500D02*Y86500D01*
X190917Y89500D02*X191917Y90500D01*
X193618Y86500D02*X194118D01*
X195319Y87000D02*X195819Y86500D01*
X195319Y90000D02*Y87000D01*
Y90000D02*X195819Y90500D01*
X196819D01*
X197319Y90000D01*
Y87000D01*
X196819Y86500D02*X197319Y87000D01*
X195819Y86500D02*X196819D01*
X195319Y87500D02*X197319Y89500D01*
X198520Y86500D02*X200520Y88500D01*
Y90000D02*Y88500D01*
X200020Y90500D02*X200520Y90000D01*
X199020Y90500D02*X200020D01*
X198520Y90000D02*X199020Y90500D01*
X198520Y90000D02*Y89000D01*
X199020Y88500D01*
X200520D01*
X141500Y67500D02*X143000D01*
X141500Y65500D02*X143500D01*
X141500Y69500D02*Y65500D01*
Y69500D02*X143500D01*
X145201D02*Y65500D01*
X144701Y69500D02*X146701D01*
X147201Y69000D01*
Y68000D01*
X146701Y67500D02*X147201Y68000D01*
X145201Y67500D02*X146701D01*
X148402Y69500D02*Y65500D01*
X150402D01*
X153403Y69000D02*X153903Y69500D01*
X155403D01*
X155903Y69000D01*
Y68000D01*
X153403Y65500D02*X155903Y68000D01*
X153403Y65500D02*X155903D01*
X157104Y66000D02*X157604Y65500D01*
X157104Y69000D02*Y66000D01*
Y69000D02*X157604Y69500D01*
X158604D01*
X159104Y69000D01*
Y66000D01*
X158604Y65500D02*X159104Y66000D01*
X157604Y65500D02*X158604D01*
X157104Y66500D02*X159104Y68500D01*
X160805Y65500D02*X161805D01*
X161305Y69500D02*Y65500D01*
X160305Y68500D02*X161305Y69500D01*
X163006Y66000D02*X163506Y65500D01*
X163006Y69000D02*Y66000D01*
Y69000D02*X163506Y69500D01*
X164506D01*
X165006Y69000D01*
Y66000D01*
X164506Y65500D02*X165006Y66000D01*
X163506Y65500D02*X164506D01*
X163006Y66500D02*X165006Y68500D01*
X166207Y65500D02*X166707D01*
X168408D02*X169408D01*
X168908Y69500D02*Y65500D01*
X167908Y68500D02*X168908Y69500D01*
X171109Y65500D02*X172109D01*
X171609Y69500D02*Y65500D01*
X170609Y68500D02*X171609Y69500D01*
X173310Y65500D02*X173810D01*
X175511D02*X176511D01*
X176011Y69500D02*Y65500D01*
X175011Y68500D02*X176011Y69500D01*
X177712Y65500D02*X179712Y67500D01*
Y69000D02*Y67500D01*
X179212Y69500D02*X179712Y69000D01*
X178212Y69500D02*X179212D01*
X177712Y69000D02*X178212Y69500D01*
X177712Y69000D02*Y68000D01*
X178212Y67500D01*
X179712D01*
X142000Y79500D02*X143500D01*
X141500Y80000D02*X142000Y79500D01*
X141500Y83000D02*Y80000D01*
Y83000D02*X142000Y83500D01*
X143500D01*
X144701Y82500D02*Y82000D01*
Y81000D02*Y79500D01*
X146202Y81000D02*Y79500D01*
Y81000D02*X146702Y81500D01*
X147702D01*
X145702D02*X146202Y81000D01*
X149403Y81500D02*X150903D01*
X148903Y81000D02*X149403Y81500D01*
X148903Y81000D02*Y80000D01*
X149403Y79500D01*
X150903D01*
X152104Y81500D02*Y80000D01*
X152604Y79500D01*
X153604D01*
X154104Y80000D01*
Y81500D02*Y80000D01*
X155305Y82500D02*Y82000D01*
Y81000D02*Y79500D01*
X156806Y83500D02*Y80000D01*
X157306Y79500D01*
X156306Y82000D02*X157306D01*
X160607Y83500D02*Y79500D01*
X162107Y83500D02*X162607Y83000D01*
Y80000D01*
X162107Y79500D02*X162607Y80000D01*
X160107Y79500D02*X162107D01*
X160107Y83500D02*X162107D01*
X164308Y79500D02*X165808D01*
X163808Y80000D02*X164308Y79500D01*
X163808Y81000D02*Y80000D01*
Y81000D02*X164308Y81500D01*
X165308D01*
X165808Y81000D01*
X163808Y80500D02*X165808D01*
Y81000D02*Y80500D01*
X167509Y79500D02*X169009D01*
X169509Y80000D01*
X169009Y80500D02*X169509Y80000D01*
X167509Y80500D02*X169009D01*
X167009Y81000D02*X167509Y80500D01*
X167009Y81000D02*X167509Y81500D01*
X169009D01*
X169509Y81000D01*
X167009Y80000D02*X167509Y79500D01*
X170710Y82500D02*Y82000D01*
Y81000D02*Y79500D01*
X173211Y81500D02*X173711Y81000D01*
X172211Y81500D02*X173211D01*
X171711Y81000D02*X172211Y81500D01*
X171711Y81000D02*Y80000D01*
X172211Y79500D01*
X173211D01*
X173711Y80000D01*
X171711Y78500D02*X172211Y78000D01*
X173211D01*
X173711Y78500D01*
Y81500D02*Y78500D01*
X175412Y81000D02*Y79500D01*
Y81000D02*X175912Y81500D01*
X176412D01*
X176912Y81000D01*
Y79500D01*
X174912Y81500D02*X175412Y81000D01*
X178113Y82000D02*X178613D01*
X178113Y81000D02*X178613D01*
X181614Y83500D02*X182614D01*
X182114D02*Y79500D01*
X181614D02*X182614D01*
X183815Y83500D02*X185315D01*
Y80000D01*
X184815Y79500D02*X185315Y80000D01*
X184315Y79500D02*X184815D01*
X183815Y80000D02*X184315Y79500D01*
X188516Y83500D02*X189016Y83000D01*
X187016Y83500D02*X188516D01*
X186516Y83000D02*X187016Y83500D01*
X186516Y83000D02*Y82000D01*
X187016Y81500D01*
X188516D01*
X189016Y81000D01*
Y80000D01*
X188516Y79500D02*X189016Y80000D01*
X187016Y79500D02*X188516D01*
X186516Y80000D02*X187016Y79500D01*
X142000Y76500D02*Y72500D01*
X141500Y76500D02*X143500D01*
X144000Y76000D01*
Y75000D01*
X143500Y74500D02*X144000Y75000D01*
X142000Y74500D02*X143500D01*
X145701Y74000D02*Y72500D01*
Y74000D02*X146201Y74500D01*
X147201D01*
X145201D02*X145701Y74000D01*
X148402Y75500D02*Y75000D01*
Y74000D02*Y72500D01*
X149903Y74000D02*Y72500D01*
Y74000D02*X150403Y74500D01*
X150903D01*
X151403Y74000D01*
Y72500D01*
X149403Y74500D02*X149903Y74000D01*
X153104Y76500D02*Y73000D01*
X153604Y72500D01*
X152604Y75000D02*X153604D01*
X155105Y72500D02*X156605D01*
X154605Y73000D02*X155105Y72500D01*
X154605Y74000D02*Y73000D01*
Y74000D02*X155105Y74500D01*
X156105D01*
X156605Y74000D01*
X154605Y73500D02*X156605D01*
Y74000D02*Y73500D01*
X159806Y76500D02*Y72500D01*
X159306D02*X159806Y73000D01*
X158306Y72500D02*X159306D01*
X157806Y73000D02*X158306Y72500D01*
X157806Y74000D02*Y73000D01*
Y74000D02*X158306Y74500D01*
X159306D01*
X159806Y74000D01*
X163307Y72500D02*X164807D01*
X162807Y73000D02*X163307Y72500D01*
X162807Y76000D02*Y73000D01*
Y76000D02*X163307Y76500D01*
X164807D01*
X166008Y75500D02*Y75000D01*
Y74000D02*Y72500D01*
X167509Y74000D02*Y72500D01*
Y74000D02*X168009Y74500D01*
X169009D01*
X167009D02*X167509Y74000D01*
X170710Y74500D02*X172210D01*
X170210Y74000D02*X170710Y74500D01*
X170210Y74000D02*Y73000D01*
X170710Y72500D01*
X172210D01*
X173411Y74500D02*Y73000D01*
X173911Y72500D01*
X174911D01*
X175411Y73000D01*
Y74500D02*Y73000D01*
X176612Y75500D02*Y75000D01*
Y74000D02*Y72500D01*
X178113Y76500D02*Y73000D01*
X178613Y72500D01*
X177613Y75000D02*X178613D01*
X181414Y76000D02*Y72500D01*
Y76000D02*X181914Y76500D01*
X183414D01*
X183914Y76000D01*
Y72500D01*
X181414Y74500D02*X183914D01*
X185615Y74000D02*Y72500D01*
Y74000D02*X186115Y74500D01*
X187115D01*
X185115D02*X185615Y74000D01*
X188816Y76500D02*Y73000D01*
X189316Y72500D01*
X188316Y75000D02*X189316D01*
X190317Y74500D02*Y73000D01*
X190817Y72500D01*
X191317D01*
X191817Y73000D01*
Y74500D02*Y73000D01*
X192317Y72500D01*
X192817D01*
X193317Y73000D01*
Y74500D02*Y73000D01*
X194518Y74000D02*Y73000D01*
Y74000D02*X195018Y74500D01*
X196018D01*
X196518Y74000D01*
Y73000D01*
X196018Y72500D02*X196518Y73000D01*
X195018Y72500D02*X196018D01*
X194518Y73000D02*X195018Y72500D01*
X198219Y74000D02*Y72500D01*
Y74000D02*X198719Y74500D01*
X199719D01*
X197719D02*X198219Y74000D01*
X200920Y76500D02*Y72500D01*
Y74000D02*X202420Y72500D01*
X200920Y74000D02*X201920Y75000D01*
X203621D02*X204121D01*
X203621Y74000D02*X204121D01*
X207122Y74500D02*X208622D01*
X207122Y72500D02*X209122D01*
X207122Y76500D02*Y72500D01*
Y76500D02*X209122D01*
X210323Y74500D02*X211823D01*
X210323Y72500D02*X212323D01*
X210323Y76500D02*Y72500D01*
Y76500D02*X212323D01*
X213524D02*Y72500D01*
Y76500D02*X215524D01*
X213524Y74500D02*X215024D01*
X47000Y266500D02*Y268500D01*
X48000Y267500D01*
X47000Y268500D02*X46000Y267500D01*
X37500Y263500D02*X36000D01*
X47500D02*X46000D01*
X59500D02*X58000D01*
Y265000D02*Y262000D01*
X60000Y265000D02*X58000D01*
Y262000D02*X60000D01*
X55000Y259000D02*X54000Y260000D01*
X56000D02*X55000Y259000D01*
X56000Y265000D02*Y260000D01*
X55000Y262000D02*X56000D01*
X54000Y263000D02*X55000Y262000D01*
X54000Y264000D02*Y263000D01*
X55000Y265000D02*X54000Y264000D01*
X56000Y265000D02*X55000D01*
X52000Y262000D02*Y268000D01*
X51000Y262000D02*X52000D01*
X50000Y263000D02*X51000Y262000D01*
X50000Y264000D02*Y263000D01*
X51000Y265000D02*X50000Y264000D01*
X52000Y265000D02*X51000D01*
X46000D02*Y262000D01*
X48000Y265000D02*X46000D01*
Y262000D02*X48000D01*
X43000Y264000D02*X42000Y265000D01*
X40000Y262000D02*Y265000D01*
X41000D02*X40000Y264000D01*
X42000Y265000D02*X41000D01*
X36000D02*Y262000D01*
X38000Y265000D02*X36000D01*
Y262000D02*X38000D01*
X34000Y263000D02*Y265000D01*
X33000Y262000D02*X34000Y263000D01*
X32000D02*X33000Y262000D01*
X32000Y265000D02*Y263000D01*
X29000Y262000D02*X28000D01*
X30000Y263000D02*X29000Y262000D01*
X30000Y264000D02*Y263000D01*
X29000Y265000D02*X30000Y264000D01*
X28000Y265000D02*X29000D01*
X27000Y264000D02*X28000Y265000D01*
X27000Y263000D02*Y264000D01*
X28000Y262000D02*X27000Y263000D01*
X24000Y266000D02*X22000D01*
X23000Y268000D02*Y262000D01*
X17000D02*Y265000D01*
X18000D02*X17000Y264000D01*
X19000Y265000D02*X18000D01*
X20000Y264000D02*X19000Y265000D01*
X14000Y263000D02*X15000Y262000D01*
X13000Y265000D02*X12000D01*
X14000Y264000D02*X13000Y265000D01*
X14000Y263000D02*Y264000D01*
X13000Y262000D02*X14000Y263000D01*
X12000Y262000D02*X13000D01*
X11000Y263000D02*X12000Y262000D01*
X11000Y264000D02*Y263000D01*
X12000Y265000D02*X11000Y264000D01*
X9000Y265000D02*X7000D01*
X10000Y266000D02*X9000Y265000D01*
X10000Y267000D02*Y266000D01*
X9000Y268000D02*X10000Y267000D01*
X7000Y268000D02*X9000D01*
X7000D02*Y262000D01*
X37000Y255000D02*Y252500D01*
X38500Y253500D02*X37000Y255000D01*
X40000D02*X38500Y253500D01*
X40000Y252500D02*Y255000D01*
X41500Y256500D02*Y257500D01*
Y254500D02*Y252500D01*
X43500Y257500D02*Y252500D01*
X25000Y257500D02*X26000D01*
X24000Y256500D02*X25000Y257500D01*
X30000Y252500D02*X29000Y253500D01*
X31000Y252500D02*X30000D01*
X32000Y253500D02*X31000Y252500D01*
X32000Y254500D02*Y253500D01*
X31000Y255500D02*X32000Y254500D01*
X29000Y255500D02*X31000D01*
X29000Y257500D02*Y255500D01*
X32000Y257500D02*X29000D01*
X27000Y255500D02*X24000Y252500D01*
X27000Y256500D02*Y255500D01*
X26000Y257500D02*X27000Y256500D01*
X24000Y252500D02*X27000D01*
X4500Y212650D02*Y233500D01*
X62500Y251500D02*Y269850D01*
X4500D02*X62500D01*
X4500Y212650D02*X62500D01*
Y233500D01*
X4500Y251500D02*Y269820D01*
X147000Y266500D02*Y268500D01*
X148000Y267500D01*
X147000Y268500D02*X146000Y267500D01*
X137500Y263500D02*X136000D01*
X147500D02*X146000D01*
X159500D02*X158000D01*
Y265000D02*Y262000D01*
X160000Y265000D02*X158000D01*
Y262000D02*X160000D01*
X155000Y259000D02*X154000Y260000D01*
X156000D02*X155000Y259000D01*
X156000Y265000D02*Y260000D01*
X155000Y262000D02*X156000D01*
X154000Y263000D02*X155000Y262000D01*
X154000Y264000D02*Y263000D01*
X155000Y265000D02*X154000Y264000D01*
X156000Y265000D02*X155000D01*
X152000Y262000D02*Y268000D01*
X151000Y262000D02*X152000D01*
X150000Y263000D02*X151000Y262000D01*
X150000Y264000D02*Y263000D01*
X151000Y265000D02*X150000Y264000D01*
X152000Y265000D02*X151000D01*
X146000D02*Y262000D01*
X148000Y265000D02*X146000D01*
Y262000D02*X148000D01*
X143000Y264000D02*X142000Y265000D01*
X140000Y262000D02*Y265000D01*
X141000D02*X140000Y264000D01*
X142000Y265000D02*X141000D01*
X136000D02*Y262000D01*
X138000Y265000D02*X136000D01*
Y262000D02*X138000D01*
X134000Y263000D02*Y265000D01*
X133000Y262000D02*X134000Y263000D01*
X132000D02*X133000Y262000D01*
X132000Y265000D02*Y263000D01*
X129000Y262000D02*X128000D01*
X130000Y263000D02*X129000Y262000D01*
X130000Y264000D02*Y263000D01*
X129000Y265000D02*X130000Y264000D01*
X128000Y265000D02*X129000D01*
X127000Y264000D02*X128000Y265000D01*
X127000Y263000D02*Y264000D01*
X128000Y262000D02*X127000Y263000D01*
X124000Y266000D02*X122000D01*
X123000Y268000D02*Y262000D01*
X117000D02*Y265000D01*
X118000D02*X117000Y264000D01*
X119000Y265000D02*X118000D01*
X120000Y264000D02*X119000Y265000D01*
X114000Y263000D02*X115000Y262000D01*
X113000Y265000D02*X112000D01*
X114000Y264000D02*X113000Y265000D01*
X114000Y263000D02*Y264000D01*
X113000Y262000D02*X114000Y263000D01*
X112000Y262000D02*X113000D01*
X111000Y263000D02*X112000Y262000D01*
X111000Y264000D02*Y263000D01*
X112000Y265000D02*X111000Y264000D01*
X109000Y265000D02*X107000D01*
X110000Y266000D02*X109000Y265000D01*
X110000Y267000D02*Y266000D01*
X109000Y268000D02*X110000Y267000D01*
X107000Y268000D02*X109000D01*
X107000D02*Y262000D01*
X137000Y255000D02*Y252500D01*
X138500Y253500D02*X137000Y255000D01*
X140000D02*X138500Y253500D01*
X140000Y252500D02*Y255000D01*
X141500Y256500D02*Y257500D01*
Y254500D02*Y252500D01*
X143500Y257500D02*Y252500D01*
X125000Y257500D02*X126000D01*
X124000Y256500D02*X125000Y257500D01*
X130000Y252500D02*X129000Y253500D01*
X131000Y252500D02*X130000D01*
X132000Y253500D02*X131000Y252500D01*
X132000Y254500D02*Y253500D01*
X131000Y255500D02*X132000Y254500D01*
X129000Y255500D02*X131000D01*
X129000Y257500D02*Y255500D01*
X132000Y257500D02*X129000D01*
X127000Y255500D02*X124000Y252500D01*
X127000Y256500D02*Y255500D01*
X126000Y257500D02*X127000Y256500D01*
X124000Y252500D02*X127000D01*
X104500Y212650D02*Y233500D01*
X162500Y251500D02*Y269850D01*
X104500D02*X162500D01*
X104500Y212650D02*X162500D01*
Y233500D01*
X104500Y251500D02*Y269820D01*
X8500Y182500D02*X18500D01*
Y172500D01*
X8500Y182500D02*Y172500D01*
Y182500D02*X18500D01*
Y172500D01*
X8500D02*X18500D01*
X83500Y187500D02*G75*G03X83500Y187500I10000J0D01*G01*
X43500Y104200D02*Y110800D01*
X63500Y104200D02*X43500D01*
X63500Y110800D02*Y104200D01*
X43500Y110800D02*X63500D01*
Y107500D02*X73500D01*
X33500D02*X43500D01*
X153500Y99200D02*Y105800D01*
X173500Y99200D02*X153500D01*
X173500Y105800D02*Y99200D01*
X153500Y105800D02*X173500D01*
Y102500D02*X183500D01*
X143500D02*X153500D01*
X43500Y119200D02*Y125800D01*
X63500Y119200D02*X43500D01*
X63500Y125800D02*Y119200D01*
X43500Y125800D02*X63500D01*
Y122500D02*X73500D01*
X33500D02*X43500D01*
X128500Y137500D02*X113500D01*
X103500D02*X88500D01*
X128500D02*Y97500D01*
X88500D01*
Y137500D02*Y97500D01*
X103500Y137500D02*G75*G03X113500Y137500I5000J0D01*G01*
X138500Y127500D02*X148500D01*
Y117500D01*
X138500Y127500D02*Y117500D01*
Y127500D02*X148500D01*
Y117500D01*
X138500D02*X148500D01*
X60200Y70900D02*Y84100D01*
X46800D02*X60200Y77500D01*
X46800Y70900D02*Y84100D01*
X60200Y77500D02*X46800Y70900D01*
Y77500D02*X33500D01*
X73500D02*X60200D01*
X18500Y152500D02*X28500D01*
Y142500D01*
X18500Y152500D02*Y142500D01*
Y152500D02*X28500D01*
Y142500D01*
X18500D02*X28500D01*
X68500Y145000D02*X78500D01*
Y135000D01*
X68500Y145000D02*Y135000D01*
Y145000D02*X78500D01*
Y135000D01*
X68500D02*X78500D01*
X43500Y89200D02*Y95800D01*
X63500Y89200D02*X43500D01*
X63500Y95800D02*Y89200D01*
X43500Y95800D02*X63500D01*
Y92500D02*X73500D01*
X33500D02*X43500D01*
X98500Y161700D02*Y168300D01*
X118500Y161700D02*X98500D01*
X118500Y168300D02*Y161700D01*
X98500Y168300D02*X118500D01*
Y165000D02*X128500D01*
X88500D02*X98500D01*
X173500Y202500D02*X183500D01*
Y212500D02*Y202500D01*
X173500Y212500D02*X183500D01*
X173500D02*Y202500D01*
X183500Y212500D02*Y202500D01*
X173500Y212500D02*X183500D01*
X203500Y170000D02*X213500D01*
Y160000D01*
X203500Y170000D02*Y160000D01*
Y170000D02*X213500D01*
Y160000D01*
X203500D02*X213500D01*
X211800Y112500D02*X205200D01*
X211800D02*Y132500D01*
X205200D01*
Y112500D02*Y132500D01*
X208500D02*Y142500D01*
Y102500D02*Y112500D01*
X187500Y227500D02*X191500D01*
X189500Y229500D02*Y225500D01*
X215500Y227500D02*X219500D01*
X193500D02*G75*G03X193500Y227500I10000J0D01*G01*
G54D13*X272000Y206500D02*Y205500D01*
G54D12*X278500Y213500D02*Y263500D01*
X263500Y269000D02*Y270000D01*
X229500Y213500D02*X228500D01*
X278500D02*X277500D01*
X240500D02*X248000D01*
X259000D02*X266500D01*
X247000Y268000D02*Y270000D01*
X243500Y269000D02*Y270000D01*
X228500Y263500D02*X238000D01*
X249000D02*X258000D01*
X278500D02*X269000D01*
X238000Y264500D02*X235000D01*
Y270000D01*
X272000D01*
Y264500D01*
X269000D01*
X258000D02*X249000D01*
X260000Y268000D02*Y270000D01*
G54D13*X235000Y206500D02*Y205500D01*
X253500Y206500D02*Y205500D01*
G54D12*X228500Y263500D02*Y213500D01*
Y219500D02*X278500D01*
X253500Y259500D02*Y252000D01*
Y259500D02*X251000Y257000D01*
X256000D01*
X253500Y259500D01*
Y258500D02*X255000Y257000D01*
X252000D02*X253500Y258500D01*
X246500Y238500D02*Y234500D01*
X247500D01*
X248500Y235500D01*
Y237500D01*
X247500Y238500D01*
X246500D01*
X250500Y234500D02*Y238500D01*
X252000D01*
X252500Y238000D01*
Y237000D01*
X252000Y236500D01*
X251000D01*
X256500Y237500D02*X255500Y238500D01*
X254500D01*
X233500Y232500D02*X234000Y232000D01*
Y231000D01*
X233500Y230500D01*
X232500D01*
X232000Y226000D02*X233500D01*
X234000Y225500D01*
Y224500D01*
X233500Y224000D01*
X232500D01*
X233500Y230000D02*X234000Y228500D01*
X233500Y223500D02*X234000Y222000D01*
X274500Y261500D02*Y257500D01*
Y261500D02*X276000D01*
X276500Y261000D01*
Y260000D01*
X276000Y259500D01*
X275000D01*
X276000Y259000D02*X276500Y257500D01*
X230500Y261500D02*Y257500D01*
X232500D01*
X238000Y225500D02*Y224000D01*
X232000Y226000D02*Y222000D01*
X236000Y228500D02*X238000D01*
X237000D02*Y232500D01*
X236000Y231500D01*
X269000Y222000D02*X271000D01*
X236000D02*X238000D01*
X273500Y226000D02*X274500D01*
X273000Y225500D02*X273500Y226000D01*
X274500D02*X275000Y225500D01*
Y224000D01*
X273000Y222000D01*
X275000D01*
X269000Y232500D02*Y228500D01*
X271000D01*
X273000D02*X275000D01*
X274000D02*Y232500D01*
X273000Y231500D01*
X269000Y226000D02*Y222000D01*
X238000Y224000D02*X236000Y222000D01*
Y225500D02*X236500Y226000D01*
X237500D02*X238000Y225500D01*
X236500Y226000D02*X237500D01*
X232000Y232500D02*Y228500D01*
Y232500D02*X233500D01*
X254500Y238500D02*Y234500D01*
X255500D01*
X256500Y235500D01*
Y237500D01*
X258500Y238500D02*X260500D01*
X259500D02*Y234500D01*
X252000Y225000D02*Y223000D01*
Y231500D02*Y229500D01*
X253000Y232500D02*X252000Y231500D01*
Y229500D02*X253000Y228500D01*
X253500D02*X254500Y229500D01*
X253000Y228500D02*X253500D01*
Y232500D02*X253000D01*
X254500Y225000D02*X253500Y226000D01*
X253000D01*
X252000Y225000D01*
Y223000D02*X253000Y222000D01*
X253500D02*X254500Y223000D01*
X253000Y222000D02*X253500D01*
X254500Y231500D02*X253500Y232500D01*
X187500Y197500D02*X191500D01*
X189500Y199500D02*Y195500D01*
X215500Y197500D02*X219500D01*
X193500D02*G75*G03X193500Y197500I10000J0D01*G01*
X153500Y145800D02*Y139200D01*
X173500D01*
Y145800D02*Y139200D01*
X153500Y145800D02*X173500D01*
Y142500D02*X183500D01*
X143500D02*X153500D01*
X178500Y170000D02*X188500D01*
Y160000D01*
X178500Y170000D02*Y160000D01*
Y170000D02*X188500D01*
Y160000D01*
X178500D02*X188500D01*
X160500Y158000D02*X146500D01*
X160571Y157929D02*G75*G03X146428Y157928I-7071J7071D01*G01*
X173500Y190800D02*Y184200D01*
X153500Y190800D02*X173500D01*
X153500Y184200D02*Y190800D01*
X173500Y184200D02*X153500D01*
Y187500D02*X143500D01*
X183500D02*X173500D01*
X233500Y82500D02*X243500D01*
Y72500D01*
X233500Y82500D02*Y72500D01*
Y82500D02*X273500D01*
Y72500D01*
X233500D02*X273500D01*
X181000Y122500D02*G75*G03X181000Y122500I10000J0D01*G01*
X5640Y205760D02*X7140D01*
X5140Y206260D02*X5640Y205760D01*
X5140Y209260D02*Y206260D01*
Y209260D02*X5640Y209760D01*
X7140D01*
X8341Y209260D02*Y206260D01*
Y209260D02*X8841Y209760D01*
X9841D01*
X10341Y209260D01*
Y206260D01*
X9841Y205760D02*X10341Y206260D01*
X8841Y205760D02*X9841D01*
X8341Y206260D02*X8841Y205760D01*
X11542Y209760D02*Y205760D01*
Y209760D02*Y209260D01*
X14042Y206760D01*
Y209760D02*Y205760D01*
X15243Y209760D02*Y205760D01*
Y209760D02*Y209260D01*
X17743Y206760D01*
Y209760D02*Y205760D01*
X19444D02*X20444D01*
X19944Y209760D02*Y205760D01*
X18944Y208760D02*X19944Y209760D01*
X9000Y193500D02*X11000D01*
X10000D02*Y189500D01*
X12701Y193500D02*Y189500D01*
X12201Y193500D02*X14201D01*
X14701Y193000D01*
Y192000D01*
X14201Y191500D02*X14701Y192000D01*
X12701Y191500D02*X14201D01*
X16402Y189500D02*X17402D01*
X16902Y193500D02*Y189500D01*
X15902Y192500D02*X16902Y193500D01*
X18500Y163500D02*X20500D01*
X19500D02*Y159500D01*
X22201Y163500D02*Y159500D01*
X21701Y163500D02*X23701D01*
X24201Y163000D01*
Y162000D01*
X23701Y161500D02*X24201Y162000D01*
X22201Y161500D02*X23701D01*
X25402Y163000D02*X25902Y163500D01*
X27402D01*
X27902Y163000D01*
Y162000D01*
X25402Y159500D02*X27902Y162000D01*
X25402Y159500D02*X27902D01*
X62700Y83100D02*Y79100D01*
X64200Y83100D02*X64700Y82600D01*
Y79600D01*
X64200Y79100D02*X64700Y79600D01*
X62200Y79100D02*X64200D01*
X62200Y83100D02*X64200D01*
X66401Y79100D02*X67401D01*
X66901Y83100D02*Y79100D01*
X65901Y82100D02*X66901Y83100D01*
X105640Y205760D02*X107140D01*
X105140Y206260D02*X105640Y205760D01*
X105140Y209260D02*Y206260D01*
Y209260D02*X105640Y209760D01*
X107140D01*
X108341Y209260D02*Y206260D01*
Y209260D02*X108841Y209760D01*
X109841D01*
X110341Y209260D01*
Y206260D01*
X109841Y205760D02*X110341Y206260D01*
X108841Y205760D02*X109841D01*
X108341Y206260D02*X108841Y205760D01*
X111542Y209760D02*Y205760D01*
Y209760D02*Y209260D01*
X114042Y206760D01*
Y209760D02*Y205760D01*
X115243Y209760D02*Y205760D01*
Y209760D02*Y209260D01*
X117743Y206760D01*
Y209760D02*Y205760D01*
X118944Y209260D02*X119444Y209760D01*
X120944D01*
X121444Y209260D01*
Y208260D01*
X118944Y205760D02*X121444Y208260D01*
X118944Y205760D02*X121444D01*
X91000Y199000D02*X92500D01*
X90500Y199500D02*X91000Y199000D01*
X90500Y202500D02*Y199500D01*
Y202500D02*X91000Y203000D01*
X92500D01*
X93701Y202500D02*X94201Y203000D01*
X95701D01*
X96201Y202500D01*
Y201500D01*
X93701Y199000D02*X96201Y201500D01*
X93701Y199000D02*X96201D01*
X105500Y173700D02*X107500D01*
X108000Y173200D01*
Y172200D01*
X107500Y171700D02*X108000Y172200D01*
X106000Y171700D02*X107500D01*
X106000Y173700D02*Y169700D01*
Y171700D02*X108000Y169700D01*
X109201Y171700D02*X111201Y173700D01*
X109201Y171700D02*X111701D01*
X111201Y173700D02*Y169700D01*
X50500Y101200D02*X52500D01*
X53000Y100700D01*
Y99700D01*
X52500Y99200D02*X53000Y99700D01*
X51000Y99200D02*X52500D01*
X51000Y101200D02*Y97200D01*
Y99200D02*X53000Y97200D01*
X54201D02*X56201Y99200D01*
Y100700D02*Y99200D01*
X55701Y101200D02*X56201Y100700D01*
X54701Y101200D02*X55701D01*
X54201Y100700D02*X54701Y101200D01*
X54201Y100700D02*Y99700D01*
X54701Y99200D01*
X56201D01*
X50500Y116200D02*X52500D01*
X53000Y115700D01*
Y114700D01*
X52500Y114200D02*X53000Y114700D01*
X51000Y114200D02*X52500D01*
X51000Y116200D02*Y112200D01*
Y114200D02*X53000Y112200D01*
X54201Y112700D02*X54701Y112200D01*
X54201Y113700D02*Y112700D01*
Y113700D02*X54701Y114200D01*
X55701D01*
X56201Y113700D01*
Y112700D01*
X55701Y112200D02*X56201Y112700D01*
X54701Y112200D02*X55701D01*
X54201Y114700D02*X54701Y114200D01*
X54201Y115700D02*Y114700D01*
Y115700D02*X54701Y116200D01*
X55701D01*
X56201Y115700D01*
Y114700D01*
X55701Y114200D02*X56201Y114700D01*
X50500Y131200D02*X52500D01*
X53000Y130700D01*
Y129700D01*
X52500Y129200D02*X53000Y129700D01*
X51000Y129200D02*X52500D01*
X51000Y131200D02*Y127200D01*
Y129200D02*X53000Y127200D01*
X54201Y131200D02*X56201D01*
X54201D02*Y129200D01*
X54701Y129700D01*
X55701D01*
X56201Y129200D01*
Y127700D01*
X55701Y127200D02*X56201Y127700D01*
X54701Y127200D02*X55701D01*
X54201Y127700D02*X54701Y127200D01*
X68500Y156000D02*X70500D01*
X69500D02*Y152000D01*
X72201Y156000D02*Y152000D01*
X71701Y156000D02*X73701D01*
X74201Y155500D01*
Y154500D01*
X73701Y154000D02*X74201Y154500D01*
X72201Y154000D02*X73701D01*
X75402Y156000D02*X77402D01*
X75402D02*Y154000D01*
X75902Y154500D01*
X76902D01*
X77402Y154000D01*
Y152500D01*
X76902Y152000D02*X77402Y152500D01*
X75902Y152000D02*X76902D01*
X75402Y152500D02*X75902Y152000D01*
X106500Y143000D02*Y139500D01*
X107000Y139000D01*
X108000D01*
X108500Y139500D01*
Y143000D02*Y139500D01*
X110201Y139000D02*X111201D01*
X110701Y143000D02*Y139000D01*
X109701Y142000D02*X110701Y143000D01*
X204000Y181000D02*X206000D01*
X205000D02*Y177000D01*
X207701Y181000D02*Y177000D01*
X207201Y181000D02*X209201D01*
X209701Y180500D01*
Y179500D01*
X209201Y179000D02*X209701Y179500D01*
X207701Y179000D02*X209201D01*
X210902Y180500D02*X211402Y181000D01*
X212402D01*
X212902Y180500D01*
Y177500D01*
X212402Y177000D02*X212902Y177500D01*
X211402Y177000D02*X212402D01*
X210902Y177500D02*X211402Y177000D01*
Y179000D02*X212902D01*
X200500Y209000D02*X202000D01*
X200000Y209500D02*X200500Y209000D01*
X200000Y212500D02*Y209500D01*
Y212500D02*X200500Y213000D01*
X202000D01*
X203201Y211000D02*X205201Y213000D01*
X203201Y211000D02*X205701D01*
X205201Y213000D02*Y209000D01*
X178500Y182500D02*X180500D01*
X179500D02*Y178500D01*
X182201Y182500D02*Y178500D01*
X181701Y182500D02*X183701D01*
X184201Y182000D01*
Y181000D01*
X183701Y180500D02*X184201Y181000D01*
X182201Y180500D02*X183701D01*
X185402Y178500D02*X187902Y181000D01*
Y182500D02*Y181000D01*
X185402Y182500D02*X187902D01*
X173500Y223500D02*X175500D01*
X174500D02*Y219500D01*
X177201Y223500D02*Y219500D01*
X176701Y223500D02*X178701D01*
X179201Y223000D01*
Y222000D01*
X178701Y221500D02*X179201Y222000D01*
X177201Y221500D02*X178701D01*
X180402Y220000D02*X180902Y219500D01*
X180402Y221000D02*Y220000D01*
Y221000D02*X180902Y221500D01*
X181902D01*
X182402Y221000D01*
Y220000D01*
X181902Y219500D02*X182402Y220000D01*
X180902Y219500D02*X181902D01*
X180402Y222000D02*X180902Y221500D01*
X180402Y223000D02*Y222000D01*
Y223000D02*X180902Y223500D01*
X181902D01*
X182402Y223000D01*
Y222000D01*
X181902Y221500D02*X182402Y222000D01*
X201000Y239000D02*X202500D01*
X200500Y239500D02*X201000Y239000D01*
X200500Y242500D02*Y239500D01*
Y242500D02*X201000Y243000D01*
X202500D01*
X203701Y242500D02*X204201Y243000D01*
X205201D01*
X205701Y242500D01*
Y239500D01*
X205201Y239000D02*X205701Y239500D01*
X204201Y239000D02*X205201D01*
X203701Y239500D02*X204201Y239000D01*
Y241000D02*X205701D01*
X234000Y191000D02*X234500Y190500D01*
X232500Y191000D02*X234000D01*
X232000Y190500D02*X232500Y191000D01*
X232000Y190500D02*Y189500D01*
X232500Y189000D01*
X234000D01*
X234500Y188500D01*
Y187500D01*
X234000Y187000D02*X234500Y187500D01*
X232500Y187000D02*X234000D01*
X232000Y187500D02*X232500Y187000D01*
X236201D02*X237201D01*
X236701Y191000D02*Y187000D01*
X235701Y190000D02*X236701Y191000D01*
X234000Y83500D02*X235500D01*
X233500Y84000D02*X234000Y83500D01*
X233500Y87000D02*Y84000D01*
Y87000D02*X234000Y87500D01*
X235500D01*
X236701Y87000D02*Y84000D01*
Y87000D02*X237201Y87500D01*
X238201D01*
X238701Y87000D01*
Y84000D01*
X238201Y83500D02*X238701Y84000D01*
X237201Y83500D02*X238201D01*
X236701Y84000D02*X237201Y83500D01*
X239902Y87500D02*Y83500D01*
Y87500D02*Y87000D01*
X242402Y84500D01*
Y87500D02*Y83500D01*
X243603Y87500D02*Y83500D01*
Y87500D02*Y87000D01*
X246103Y84500D01*
Y87500D02*Y83500D01*
X247304Y87500D02*X249304D01*
X247304D02*Y85500D01*
X247804Y86000D01*
X248804D01*
X249304Y85500D01*
Y84000D01*
X248804Y83500D02*X249304Y84000D01*
X247804Y83500D02*X248804D01*
X247304Y84000D02*X247804Y83500D01*
X217200Y125500D02*Y123500D01*
X216700Y123000D01*
X215700D02*X216700D01*
X215200Y123500D02*X215700Y123000D01*
X215200Y125000D02*Y123500D01*
X213200Y125000D02*X217200D01*
X215200D02*X213200Y123000D01*
Y121799D02*X215700Y119299D01*
X217200D01*
Y121799D02*Y119299D01*
X160500Y111200D02*X162500D01*
X163000Y110700D01*
Y109700D01*
X162500Y109200D02*X163000Y109700D01*
X161000Y109200D02*X162500D01*
X161000Y111200D02*Y107200D01*
Y109200D02*X163000Y107200D01*
X164701D02*X165701D01*
X165201Y111200D02*Y107200D01*
X164201Y110200D02*X165201Y111200D01*
X160500Y151200D02*X162500D01*
X163000Y150700D01*
Y149700D01*
X162500Y149200D02*X163000Y149700D01*
X161000Y149200D02*X162500D01*
X161000Y151200D02*Y147200D01*
Y149200D02*X163000Y147200D01*
X164201Y150700D02*X164701Y151200D01*
X166201D01*
X166701Y150700D01*
Y149700D01*
X164201Y147200D02*X166701Y149700D01*
X164201Y147200D02*X166701D01*
X151000Y180000D02*Y177000D01*
Y180000D02*X151500Y180500D01*
X152500D01*
X153000Y180000D01*
Y177000D01*
X152500Y176500D02*X153000Y177000D01*
X151500Y176500D02*X152500D01*
X151000Y177000D02*X151500Y176500D01*
X152000Y177500D02*X153000Y176500D01*
X154701D02*X155701D01*
X155201Y180500D02*Y176500D01*
X154201Y179500D02*X155201Y180500D01*
X189000Y134000D02*X190500D01*
X188500Y134500D02*X189000Y134000D01*
X188500Y137500D02*Y134500D01*
Y137500D02*X189000Y138000D01*
X190500D01*
X192201Y134000D02*X193201D01*
X192701Y138000D02*Y134000D01*
X191701Y137000D02*X192701Y138000D01*
X138500Y133000D02*X140500D01*
X139500D02*Y129000D01*
X142201Y133000D02*Y129000D01*
X141701Y133000D02*X143701D01*
X144201Y132500D01*
Y131500D01*
X143701Y131000D02*X144201Y131500D01*
X142201Y131000D02*X143701D01*
X145402D02*X147402Y133000D01*
X145402Y131000D02*X147902D01*
X147402Y133000D02*Y129000D01*
X160500Y196200D02*X162500D01*
X163000Y195700D01*
Y194700D01*
X162500Y194200D02*X163000Y194700D01*
X161000Y194200D02*X162500D01*
X161000Y196200D02*Y192200D01*
Y194200D02*X163000Y192200D01*
X164201Y195700D02*X164701Y196200D01*
X165701D01*
X166201Y195700D01*
Y192700D01*
X165701Y192200D02*X166201Y192700D01*
X164701Y192200D02*X165701D01*
X164201Y192700D02*X164701Y192200D01*
Y194200D02*X166201D01*
M02*
