G04 start of page 8 for group -3984 idx -3984 *
G04 Title: (unknown), fab *
G04 Creator: pcb 20100929 *
G04 CreationDate: Thu Mar 10 15:56:12 2011 UTC *
G04 For: fosse *
G04 Format: Gerber/RS-274X *
G04 PCB-Dimensions: 282500 400000 *
G04 PCB-Coordinate-Origin: lower left *
%MOIN*%
%FSLAX25Y25*%
%LNFAB*%
%ADD12C,0.0100*%
%ADD22C,0.0080*%
%ADD41C,0.0060*%
G54D22*X112700Y242500D02*G75*G03X114300Y242500I800J0D01*G01*
G75*G03X112700Y242500I-800J0D01*G01*
X111100D02*G75*G03X115900Y242500I2400J0D01*G01*
G75*G03X111100Y242500I-2400J0D01*G01*
X152700D02*G75*G03X154300Y242500I800J0D01*G01*
G75*G03X152700Y242500I-800J0D01*G01*
X151100D02*G75*G03X155900Y242500I2400J0D01*G01*
G75*G03X151100Y242500I-2400J0D01*G01*
X12700D02*G75*G03X14300Y242500I800J0D01*G01*
G75*G03X12700Y242500I-800J0D01*G01*
X11100D02*G75*G03X15900Y242500I2400J0D01*G01*
G75*G03X11100Y242500I-2400J0D01*G01*
X52700D02*G75*G03X54300Y242500I800J0D01*G01*
G75*G03X52700Y242500I-800J0D01*G01*
X51100D02*G75*G03X55900Y242500I2400J0D01*G01*
G75*G03X51100Y242500I-2400J0D01*G01*
X14200Y411250D02*G75*G03X15800Y411250I800J0D01*G01*
G75*G03X14200Y411250I-800J0D01*G01*
X12600D02*G75*G03X17400Y411250I2400J0D01*G01*
G75*G03X12600Y411250I-2400J0D01*G01*
G54D41*X135000Y413500D02*Y412750D01*
X136500Y411250D01*
X138000Y412750D01*
Y413500D02*Y412750D01*
X136500Y411250D02*Y407500D01*
X139801Y410500D02*X142051D01*
X139801Y407500D02*X142801D01*
X139801Y413500D02*Y407500D01*
Y413500D02*X142801D01*
X147603D02*X148353Y412750D01*
X145353Y413500D02*X147603D01*
X144603Y412750D02*X145353Y413500D01*
X144603Y412750D02*Y411250D01*
X145353Y410500D01*
X147603D01*
X148353Y409750D01*
Y408250D01*
X147603Y407500D02*X148353Y408250D01*
X145353Y407500D02*X147603D01*
X144603Y408250D02*X145353Y407500D01*
X135000Y404249D02*X150154D01*
X98000Y410500D02*X101000Y413500D01*
X98000Y410500D02*X101750D01*
X101000Y413500D02*Y407500D01*
X98000Y404249D02*X103551D01*
X45000Y408250D02*X45750Y407500D01*
X45000Y412750D02*Y408250D01*
Y412750D02*X45750Y413500D01*
X47250D01*
X48000Y412750D01*
Y408250D01*
X47250Y407500D02*X48000Y408250D01*
X45750Y407500D02*X47250D01*
X45000Y409000D02*X48000Y412000D01*
X49801Y407500D02*X50551D01*
X52353Y408250D02*X53103Y407500D01*
X52353Y412750D02*Y408250D01*
Y412750D02*X53103Y413500D01*
X54603D01*
X55353Y412750D01*
Y408250D01*
X54603Y407500D02*X55353Y408250D01*
X53103Y407500D02*X54603D01*
X52353Y409000D02*X55353Y412000D01*
X57154Y407500D02*X60904Y411250D01*
Y413500D02*Y411250D01*
X57154Y413500D02*X60904D01*
X62706Y407500D02*X65706Y410500D01*
Y412750D02*Y410500D01*
X64956Y413500D02*X65706Y412750D01*
X63456Y413500D02*X64956D01*
X62706Y412750D02*X63456Y413500D01*
X62706Y412750D02*Y411250D01*
X63456Y410500D01*
X65706D01*
X45000Y404249D02*X67507D01*
X251100Y215900D02*X255900Y211100D01*
X251100D02*X255900Y215900D01*
X251900Y215100D02*X255100D01*
X251900D02*Y211900D01*
X255100D01*
Y215100D02*Y211900D01*
X232600Y215900D02*X237400Y211100D01*
X232600D02*X237400Y215900D01*
X233400Y215100D02*X236600D01*
X233400D02*Y211900D01*
X236600D01*
Y215100D02*Y211900D01*
X269600Y215900D02*X274400Y211100D01*
X269600D02*X274400Y215900D01*
X270400Y215100D02*X273600D01*
X270400D02*Y211900D01*
X273600D01*
Y215100D02*Y211900D01*
X232600Y200900D02*X237400Y196100D01*
X232600D02*X237400Y200900D01*
X233400Y200100D02*X236600D01*
X233400D02*Y196900D01*
X236600D01*
Y200100D02*Y196900D01*
X251100Y200900D02*X255900Y196100D01*
X251100D02*X255900Y200900D01*
X251900Y200100D02*X255100D01*
X251900D02*Y196900D01*
X255100D01*
Y200100D02*Y196900D01*
X269600Y200900D02*X274400Y196100D01*
X269600D02*X274400Y200900D01*
X270400Y200100D02*X273600D01*
X270400D02*Y196900D01*
X273600D01*
Y200100D02*Y196900D01*
X12600Y428650D02*X17400Y423850D01*
X12600D02*X17400Y428650D01*
X13400Y427850D02*X16600D01*
X13400D02*Y424650D01*
X16600D01*
Y427850D02*Y424650D01*
X135000Y428500D02*Y427750D01*
X136500Y426250D01*
X138000Y427750D01*
Y428500D02*Y427750D01*
X136500Y426250D02*Y422500D01*
X139801Y425500D02*X142051D01*
X139801Y422500D02*X142801D01*
X139801Y428500D02*Y422500D01*
Y428500D02*X142801D01*
X147603D02*X148353Y427750D01*
X145353Y428500D02*X147603D01*
X144603Y427750D02*X145353Y428500D01*
X144603Y427750D02*Y426250D01*
X145353Y425500D01*
X147603D01*
X148353Y424750D01*
Y423250D01*
X147603Y422500D02*X148353Y423250D01*
X145353Y422500D02*X147603D01*
X144603Y423250D02*X145353Y422500D01*
X135000Y419249D02*X150154D01*
X100250Y428500D02*X101000Y427750D01*
X98750Y428500D02*X100250D01*
X98000Y427750D02*X98750Y428500D01*
X98000Y427750D02*Y423250D01*
X98750Y422500D01*
X100250Y425500D02*X101000Y424750D01*
X98000Y425500D02*X100250D01*
X98750Y422500D02*X100250D01*
X101000Y423250D01*
Y424750D02*Y423250D01*
X98000Y419249D02*X102801D01*
X45000Y423250D02*X45750Y422500D01*
X45000Y427750D02*Y423250D01*
Y427750D02*X45750Y428500D01*
X47250D01*
X48000Y427750D01*
Y423250D01*
X47250Y422500D02*X48000Y423250D01*
X45750Y422500D02*X47250D01*
X45000Y424000D02*X48000Y427000D01*
X49801Y422500D02*X50551D01*
X52353Y423250D02*X53103Y422500D01*
X52353Y427750D02*Y423250D01*
Y427750D02*X53103Y428500D01*
X54603D01*
X55353Y427750D01*
Y423250D01*
X54603Y422500D02*X55353Y423250D01*
X53103Y422500D02*X54603D01*
X52353Y424000D02*X55353Y427000D01*
X57154Y422500D02*X60904Y426250D01*
Y428500D02*Y426250D01*
X57154Y428500D02*X60904D01*
X63456Y422500D02*X64956D01*
X64206Y428500D02*Y422500D01*
X62706Y427000D02*X64206Y428500D01*
X45000Y419249D02*X66757D01*
X243500Y266700D02*Y260300D01*
X240300Y263500D02*X246700D01*
X241900Y265100D02*X245100D01*
X241900D02*Y261900D01*
X245100D01*
Y265100D02*Y261900D01*
X263500Y266700D02*Y260300D01*
X260300Y263500D02*X266700D01*
X261900Y265100D02*X265100D01*
X261900D02*Y261900D01*
X265100D01*
Y265100D02*Y261900D01*
X15000Y444450D02*Y438050D01*
X11800Y441250D02*X18200D01*
X13400Y442850D02*X16600D01*
X13400D02*Y439650D01*
X16600D01*
Y442850D02*Y439650D01*
X135000Y443500D02*Y442750D01*
X136500Y441250D01*
X138000Y442750D01*
Y443500D02*Y442750D01*
X136500Y441250D02*Y437500D01*
X139801Y440500D02*X142051D01*
X139801Y437500D02*X142801D01*
X139801Y443500D02*Y437500D01*
Y443500D02*X142801D01*
X147603D02*X148353Y442750D01*
X145353Y443500D02*X147603D01*
X144603Y442750D02*X145353Y443500D01*
X144603Y442750D02*Y441250D01*
X145353Y440500D01*
X147603D01*
X148353Y439750D01*
Y438250D01*
X147603Y437500D02*X148353Y438250D01*
X145353Y437500D02*X147603D01*
X144603Y438250D02*X145353Y437500D01*
X135000Y434249D02*X150154D01*
X98000Y442750D02*X98750Y443500D01*
X101000D01*
X101750Y442750D01*
Y441250D01*
X98000Y437500D02*X101750Y441250D01*
X98000Y437500D02*X101750D01*
X98000Y434249D02*X103551D01*
X45000Y438250D02*X45750Y437500D01*
X45000Y442750D02*Y438250D01*
Y442750D02*X45750Y443500D01*
X47250D01*
X48000Y442750D01*
Y438250D01*
X47250Y437500D02*X48000Y438250D01*
X45750Y437500D02*X47250D01*
X45000Y439000D02*X48000Y442000D01*
X49801Y437500D02*X50551D01*
X52353Y438250D02*X53103Y437500D01*
X52353Y442750D02*Y438250D01*
Y442750D02*X53103Y443500D01*
X54603D01*
X55353Y442750D01*
Y438250D01*
X54603Y437500D02*X55353Y438250D01*
X53103Y437500D02*X54603D01*
X52353Y439000D02*X55353Y442000D01*
X59404Y443500D02*X60154Y442750D01*
X57904Y443500D02*X59404D01*
X57154Y442750D02*X57904Y443500D01*
X57154Y442750D02*Y438250D01*
X57904Y437500D01*
X59404Y440500D02*X60154Y439750D01*
X57154Y440500D02*X59404D01*
X57904Y437500D02*X59404D01*
X60154Y438250D01*
Y439750D02*Y438250D01*
X61956Y443500D02*X64956D01*
X61956D02*Y440500D01*
X62706Y441250D01*
X64206D01*
X64956Y440500D01*
Y438250D01*
X64206Y437500D02*X64956Y438250D01*
X62706Y437500D02*X64206D01*
X61956Y438250D02*X62706Y437500D01*
X45000Y434249D02*X66757D01*
X143500Y165000D02*Y161800D01*
Y165000D02*X146273Y166600D01*
X143500Y165000D02*X140727Y166600D01*
X141900Y165000D02*G75*G03X145100Y165000I1600J0D01*G01*
G75*G03X141900Y165000I-1600J0D01*G01*
X153500D02*Y161800D01*
Y165000D02*X156273Y166600D01*
X153500Y165000D02*X150727Y166600D01*
X151900Y165000D02*G75*G03X155100Y165000I1600J0D01*G01*
G75*G03X151900Y165000I-1600J0D01*G01*
X163500D02*Y161800D01*
Y165000D02*X166273Y166600D01*
X163500Y165000D02*X160727Y166600D01*
X161900Y165000D02*G75*G03X165100Y165000I1600J0D01*G01*
G75*G03X161900Y165000I-1600J0D01*G01*
X15000Y456250D02*Y453050D01*
Y456250D02*X17773Y457850D01*
X15000Y456250D02*X12227Y457850D01*
X13400Y456250D02*G75*G03X16600Y456250I1600J0D01*G01*
G75*G03X13400Y456250I-1600J0D01*G01*
X135000Y458500D02*Y457750D01*
X136500Y456250D01*
X138000Y457750D01*
Y458500D02*Y457750D01*
X136500Y456250D02*Y452500D01*
X139801Y455500D02*X142051D01*
X139801Y452500D02*X142801D01*
X139801Y458500D02*Y452500D01*
Y458500D02*X142801D01*
X147603D02*X148353Y457750D01*
X145353Y458500D02*X147603D01*
X144603Y457750D02*X145353Y458500D01*
X144603Y457750D02*Y456250D01*
X145353Y455500D01*
X147603D01*
X148353Y454750D01*
Y453250D01*
X147603Y452500D02*X148353Y453250D01*
X145353Y452500D02*X147603D01*
X144603Y453250D02*X145353Y452500D01*
X135000Y449249D02*X150154D01*
X98000Y457750D02*X98750Y458500D01*
X100250D01*
X101000Y457750D01*
Y453250D01*
X100250Y452500D02*X101000Y453250D01*
X98750Y452500D02*X100250D01*
X98000Y453250D02*X98750Y452500D01*
Y455500D02*X101000D01*
X98000Y449249D02*X102801D01*
X45000Y453250D02*X45750Y452500D01*
X45000Y457750D02*Y453250D01*
Y457750D02*X45750Y458500D01*
X47250D01*
X48000Y457750D01*
Y453250D01*
X47250Y452500D02*X48000Y453250D01*
X45750Y452500D02*X47250D01*
X45000Y454000D02*X48000Y457000D01*
X49801Y452500D02*X50551D01*
X52353Y453250D02*X53103Y452500D01*
X52353Y457750D02*Y453250D01*
Y457750D02*X53103Y458500D01*
X54603D01*
X55353Y457750D01*
Y453250D01*
X54603Y452500D02*X55353Y453250D01*
X53103Y452500D02*X54603D01*
X52353Y454000D02*X55353Y457000D01*
X57154Y455500D02*X60154Y458500D01*
X57154Y455500D02*X60904D01*
X60154Y458500D02*Y452500D01*
X62706Y457750D02*X63456Y458500D01*
X65706D01*
X66456Y457750D01*
Y456250D01*
X62706Y452500D02*X66456Y456250D01*
X62706Y452500D02*X66456D01*
X45000Y449249D02*X68257D01*
X176900Y209100D02*X180100D01*
X176900D02*Y205900D01*
X180100D01*
Y209100D02*Y205900D01*
X236900Y79100D02*X240100D01*
X236900D02*Y75900D01*
X240100D01*
Y79100D02*Y75900D01*
X246900Y79100D02*X250100D01*
X246900D02*Y75900D01*
X250100D01*
Y79100D02*Y75900D01*
X256900Y79100D02*X260100D01*
X256900D02*Y75900D01*
X260100D01*
Y79100D02*Y75900D01*
X266900Y79100D02*X270100D01*
X266900D02*Y75900D01*
X270100D01*
Y79100D02*Y75900D01*
X141900Y124100D02*X145100D01*
X141900D02*Y120900D01*
X145100D01*
Y124100D02*Y120900D01*
X181900Y166600D02*X185100D01*
X181900D02*Y163400D01*
X185100D01*
Y166600D02*Y163400D01*
X71900Y141600D02*X75100D01*
X71900D02*Y138400D01*
X75100D01*
Y141600D02*Y138400D01*
X21900Y149100D02*X25100D01*
X21900D02*Y145900D01*
X25100D01*
Y149100D02*Y145900D01*
X11900Y179100D02*X15100D01*
X11900D02*Y175900D01*
X15100D01*
Y179100D02*Y175900D01*
X206900Y166600D02*X210100D01*
X206900D02*Y163400D01*
X210100D01*
Y166600D02*Y163400D01*
X13400Y472850D02*X16600D01*
X13400D02*Y469650D01*
X16600D01*
Y472850D02*Y469650D01*
X135000Y473500D02*Y472750D01*
X136500Y471250D01*
X138000Y472750D01*
Y473500D02*Y472750D01*
X136500Y471250D02*Y467500D01*
X139801Y470500D02*X142051D01*
X139801Y467500D02*X142801D01*
X139801Y473500D02*Y467500D01*
Y473500D02*X142801D01*
X147603D02*X148353Y472750D01*
X145353Y473500D02*X147603D01*
X144603Y472750D02*X145353Y473500D01*
X144603Y472750D02*Y471250D01*
X145353Y470500D01*
X147603D01*
X148353Y469750D01*
Y468250D01*
X147603Y467500D02*X148353Y468250D01*
X145353Y467500D02*X147603D01*
X144603Y468250D02*X145353Y467500D01*
X135000Y464249D02*X150154D01*
X98750Y467500D02*X100250D01*
X99500Y473500D02*Y467500D01*
X98000Y472000D02*X99500Y473500D01*
X102801Y467500D02*X104301D01*
X103551Y473500D02*Y467500D01*
X102051Y472000D02*X103551Y473500D01*
X98000Y464249D02*X106103D01*
X45000Y468250D02*X45750Y467500D01*
X45000Y472750D02*Y468250D01*
Y472750D02*X45750Y473500D01*
X47250D01*
X48000Y472750D01*
Y468250D01*
X47250Y467500D02*X48000Y468250D01*
X45750Y467500D02*X47250D01*
X45000Y469000D02*X48000Y472000D01*
X49801Y467500D02*X50551D01*
X52353Y468250D02*X53103Y467500D01*
X52353Y472750D02*Y468250D01*
Y472750D02*X53103Y473500D01*
X54603D01*
X55353Y472750D01*
Y468250D01*
X54603Y467500D02*X55353Y468250D01*
X53103Y467500D02*X54603D01*
X52353Y469000D02*X55353Y472000D01*
X57154Y472750D02*X57904Y473500D01*
X59404D01*
X60154Y472750D01*
Y468250D01*
X59404Y467500D02*X60154Y468250D01*
X57904Y467500D02*X59404D01*
X57154Y468250D02*X57904Y467500D01*
Y470500D02*X60154D01*
X61956Y468250D02*X62706Y467500D01*
X61956Y469750D02*Y468250D01*
Y469750D02*X62706Y470500D01*
X64206D01*
X64956Y469750D01*
Y468250D01*
X64206Y467500D02*X64956Y468250D01*
X62706Y467500D02*X64206D01*
X61956Y471250D02*X62706Y470500D01*
X61956Y472750D02*Y471250D01*
Y472750D02*X62706Y473500D01*
X64206D01*
X64956Y472750D01*
Y471250D01*
X64206Y470500D02*X64956Y471250D01*
X45000Y464249D02*X66757D01*
X122700Y218500D02*G75*G03X124300Y218500I800J0D01*G01*
G75*G03X122700Y218500I-800J0D01*G01*
X132700D02*G75*G03X134300Y218500I800J0D01*G01*
G75*G03X132700Y218500I-800J0D01*G01*
X22700D02*G75*G03X24300Y218500I800J0D01*G01*
G75*G03X22700Y218500I-800J0D01*G01*
X32700D02*G75*G03X34300Y218500I800J0D01*G01*
G75*G03X32700Y218500I-800J0D01*G01*
X14200Y486250D02*G75*G03X15800Y486250I800J0D01*G01*
G75*G03X14200Y486250I-800J0D01*G01*
X135000Y488500D02*Y487750D01*
X136500Y486250D01*
X138000Y487750D01*
Y488500D02*Y487750D01*
X136500Y486250D02*Y482500D01*
X139801Y485500D02*X142051D01*
X139801Y482500D02*X142801D01*
X139801Y488500D02*Y482500D01*
Y488500D02*X142801D01*
X147603D02*X148353Y487750D01*
X145353Y488500D02*X147603D01*
X144603Y487750D02*X145353Y488500D01*
X144603Y487750D02*Y486250D01*
X145353Y485500D01*
X147603D01*
X148353Y484750D01*
Y483250D01*
X147603Y482500D02*X148353Y483250D01*
X145353Y482500D02*X147603D01*
X144603Y483250D02*X145353Y482500D01*
X135000Y479249D02*X150154D01*
X98000Y485500D02*X101000Y488500D01*
X98000Y485500D02*X101750D01*
X101000Y488500D02*Y482500D01*
X98000Y479249D02*X103551D01*
X45000Y483250D02*X45750Y482500D01*
X45000Y487750D02*Y483250D01*
Y487750D02*X45750Y488500D01*
X47250D01*
X48000Y487750D01*
Y483250D01*
X47250Y482500D02*X48000Y483250D01*
X45750Y482500D02*X47250D01*
X45000Y484000D02*X48000Y487000D01*
X49801Y482500D02*X50551D01*
X52353Y483250D02*X53103Y482500D01*
X52353Y487750D02*Y483250D01*
Y487750D02*X53103Y488500D01*
X54603D01*
X55353Y487750D01*
Y483250D01*
X54603Y482500D02*X55353Y483250D01*
X53103Y482500D02*X54603D01*
X52353Y484000D02*X55353Y487000D01*
X57154Y487750D02*X57904Y488500D01*
X59404D01*
X60154Y487750D01*
Y483250D01*
X59404Y482500D02*X60154Y483250D01*
X57904Y482500D02*X59404D01*
X57154Y483250D02*X57904Y482500D01*
Y485500D02*X60154D01*
X61956Y487750D02*X62706Y488500D01*
X64956D01*
X65706Y487750D01*
Y486250D01*
X61956Y482500D02*X65706Y486250D01*
X61956Y482500D02*X65706D01*
X45000Y479249D02*X67507D01*
X184800Y123700D02*X187200Y121300D01*
X184800D02*X187200Y123700D01*
X194800D02*X197200Y121300D01*
X194800D02*X197200Y123700D01*
X87300Y166200D02*X89700Y163800D01*
X87300D02*X89700Y166200D01*
X127300D02*X129700Y163800D01*
X127300D02*X129700Y166200D01*
X32300Y93700D02*X34700Y91300D01*
X32300D02*X34700Y93700D01*
X72300D02*X74700Y91300D01*
X72300D02*X74700Y93700D01*
X182300Y188700D02*X184700Y186300D01*
X182300D02*X184700Y188700D01*
X142300D02*X144700Y186300D01*
X142300D02*X144700Y188700D01*
X87300D02*X89700Y186300D01*
X87300D02*X89700Y188700D01*
X97300D02*X99700Y186300D01*
X97300D02*X99700Y188700D01*
X72300Y78700D02*X74700Y76300D01*
X72300D02*X74700Y78700D01*
X32300D02*X34700Y76300D01*
X32300D02*X34700Y78700D01*
X197300Y228700D02*X199700Y226300D01*
X197300D02*X199700Y228700D01*
X207300D02*X209700Y226300D01*
X207300D02*X209700Y228700D01*
X142300Y143700D02*X144700Y141300D01*
X142300D02*X144700Y143700D01*
X182300D02*X184700Y141300D01*
X182300D02*X184700Y143700D01*
X32300Y123700D02*X34700Y121300D01*
X32300D02*X34700Y123700D01*
X72300D02*X74700Y121300D01*
X72300D02*X74700Y123700D01*
X142300Y103700D02*X144700Y101300D01*
X142300D02*X144700Y103700D01*
X182300D02*X184700Y101300D01*
X182300D02*X184700Y103700D01*
X197300Y198700D02*X199700Y196300D01*
X197300D02*X199700Y198700D01*
X207300D02*X209700Y196300D01*
X207300D02*X209700Y198700D01*
X32300Y108700D02*X34700Y106300D01*
X32300D02*X34700Y108700D01*
X72300D02*X74700Y106300D01*
X72300D02*X74700Y108700D01*
X207300Y103700D02*X209700Y101300D01*
X207300D02*X209700Y103700D01*
X207300Y143700D02*X209700Y141300D01*
X207300D02*X209700Y143700D01*
X13800Y502450D02*X16200Y500050D01*
X13800D02*X16200Y502450D01*
X135000Y503500D02*Y502750D01*
X136500Y501250D01*
X138000Y502750D01*
Y503500D02*Y502750D01*
X136500Y501250D02*Y497500D01*
X139801Y500500D02*X142051D01*
X139801Y497500D02*X142801D01*
X139801Y503500D02*Y497500D01*
Y503500D02*X142801D01*
X147603D02*X148353Y502750D01*
X145353Y503500D02*X147603D01*
X144603Y502750D02*X145353Y503500D01*
X144603Y502750D02*Y501250D01*
X145353Y500500D01*
X147603D01*
X148353Y499750D01*
Y498250D01*
X147603Y497500D02*X148353Y498250D01*
X145353Y497500D02*X147603D01*
X144603Y498250D02*X145353Y497500D01*
X135000Y494249D02*X150154D01*
X98000Y502750D02*X98750Y503500D01*
X101000D01*
X101750Y502750D01*
Y501250D01*
X98000Y497500D02*X101750Y501250D01*
X98000Y497500D02*X101750D01*
X105801Y503500D02*X106551Y502750D01*
X104301Y503500D02*X105801D01*
X103551Y502750D02*X104301Y503500D01*
X103551Y502750D02*Y498250D01*
X104301Y497500D01*
X105801Y500500D02*X106551Y499750D01*
X103551Y500500D02*X105801D01*
X104301Y497500D02*X105801D01*
X106551Y498250D01*
Y499750D02*Y498250D01*
X98000Y494249D02*X108353D01*
X45000Y498250D02*X45750Y497500D01*
X45000Y502750D02*Y498250D01*
Y502750D02*X45750Y503500D01*
X47250D01*
X48000Y502750D01*
Y498250D01*
X47250Y497500D02*X48000Y498250D01*
X45750Y497500D02*X47250D01*
X45000Y499000D02*X48000Y502000D01*
X49801Y497500D02*X50551D01*
X52353Y498250D02*X53103Y497500D01*
X52353Y502750D02*Y498250D01*
Y502750D02*X53103Y503500D01*
X54603D01*
X55353Y502750D01*
Y498250D01*
X54603Y497500D02*X55353Y498250D01*
X53103Y497500D02*X54603D01*
X52353Y499000D02*X55353Y502000D01*
X57154Y502750D02*X57904Y503500D01*
X59404D01*
X60154Y502750D01*
Y498250D01*
X59404Y497500D02*X60154Y498250D01*
X57904Y497500D02*X59404D01*
X57154Y498250D02*X57904Y497500D01*
Y500500D02*X60154D01*
X61956Y498250D02*X62706Y497500D01*
X61956Y502750D02*Y498250D01*
Y502750D02*X62706Y503500D01*
X64206D01*
X64956Y502750D01*
Y498250D01*
X64206Y497500D02*X64956Y498250D01*
X62706Y497500D02*X64206D01*
X61956Y499000D02*X64956Y502000D01*
X45000Y494249D02*X66757D01*
X93500Y134100D02*Y130900D01*
X91900Y132500D02*X95100D01*
X93500Y124100D02*Y120900D01*
X91900Y122500D02*X95100D01*
X93500Y114100D02*Y110900D01*
X91900Y112500D02*X95100D01*
X93500Y104100D02*Y100900D01*
X91900Y102500D02*X95100D01*
X123500Y104100D02*Y100900D01*
X121900Y102500D02*X125100D01*
X123500Y114100D02*Y110900D01*
X121900Y112500D02*X125100D01*
X123500Y124100D02*Y120900D01*
X121900Y122500D02*X125100D01*
X123500Y134100D02*Y130900D01*
X121900Y132500D02*X125100D01*
X15000Y517850D02*Y514650D01*
X13400Y516250D02*X16600D01*
X135000Y518500D02*Y517750D01*
X136500Y516250D01*
X138000Y517750D01*
Y518500D02*Y517750D01*
X136500Y516250D02*Y512500D01*
X139801Y515500D02*X142051D01*
X139801Y512500D02*X142801D01*
X139801Y518500D02*Y512500D01*
Y518500D02*X142801D01*
X147603D02*X148353Y517750D01*
X145353Y518500D02*X147603D01*
X144603Y517750D02*X145353Y518500D01*
X144603Y517750D02*Y516250D01*
X145353Y515500D01*
X147603D01*
X148353Y514750D01*
Y513250D01*
X147603Y512500D02*X148353Y513250D01*
X145353Y512500D02*X147603D01*
X144603Y513250D02*X145353Y512500D01*
X135000Y509249D02*X150154D01*
X98000Y513250D02*X98750Y512500D01*
X98000Y514750D02*Y513250D01*
Y514750D02*X98750Y515500D01*
X100250D01*
X101000Y514750D01*
Y513250D01*
X100250Y512500D02*X101000Y513250D01*
X98750Y512500D02*X100250D01*
X98000Y516250D02*X98750Y515500D01*
X98000Y517750D02*Y516250D01*
Y517750D02*X98750Y518500D01*
X100250D01*
X101000Y517750D01*
Y516250D01*
X100250Y515500D02*X101000Y516250D01*
X98000Y509249D02*X102801D01*
X45000Y513250D02*X45750Y512500D01*
X45000Y517750D02*Y513250D01*
Y517750D02*X45750Y518500D01*
X47250D01*
X48000Y517750D01*
Y513250D01*
X47250Y512500D02*X48000Y513250D01*
X45750Y512500D02*X47250D01*
X45000Y514000D02*X48000Y517000D01*
X49801Y512500D02*X50551D01*
X52353Y513250D02*X53103Y512500D01*
X52353Y517750D02*Y513250D01*
Y517750D02*X53103Y518500D01*
X54603D01*
X55353Y517750D01*
Y513250D01*
X54603Y512500D02*X55353Y513250D01*
X53103Y512500D02*X54603D01*
X52353Y514000D02*X55353Y517000D01*
X57154Y517750D02*X57904Y518500D01*
X60154D01*
X60904Y517750D01*
Y516250D01*
X57154Y512500D02*X60904Y516250D01*
X57154Y512500D02*X60904D01*
X62706Y513250D02*X63456Y512500D01*
X62706Y514750D02*Y513250D01*
Y514750D02*X63456Y515500D01*
X64956D01*
X65706Y514750D01*
Y513250D01*
X64956Y512500D02*X65706Y513250D01*
X63456Y512500D02*X64956D01*
X62706Y516250D02*X63456Y515500D01*
X62706Y517750D02*Y516250D01*
Y517750D02*X63456Y518500D01*
X64956D01*
X65706Y517750D01*
Y516250D01*
X64956Y515500D02*X65706Y516250D01*
X45000Y509249D02*X67507D01*
X33500Y314300D02*Y312700D01*
Y314300D02*X34886Y315100D01*
X33500Y314300D02*X32114Y315100D01*
X133500Y314300D02*Y312700D01*
Y314300D02*X134886Y315100D01*
X133500Y314300D02*X132114Y315100D01*
X253500Y303000D02*Y301400D01*
Y303000D02*X254886Y303800D01*
X253500Y303000D02*X252114Y303800D01*
X243500Y281000D02*Y279400D01*
Y281000D02*X244886Y281800D01*
X243500Y281000D02*X242114Y281800D01*
X263500Y281000D02*Y279400D01*
Y281000D02*X264886Y281800D01*
X263500Y281000D02*X262114Y281800D01*
X53500Y281000D02*Y279400D01*
Y281000D02*X54886Y281800D01*
X53500Y281000D02*X52114Y281800D01*
X13500Y281000D02*Y279400D01*
Y281000D02*X14886Y281800D01*
X13500Y281000D02*X12114Y281800D01*
X113500Y281000D02*Y279400D01*
Y281000D02*X114886Y281800D01*
X113500Y281000D02*X112114Y281800D01*
X153500Y281000D02*Y279400D01*
Y281000D02*X154886Y281800D01*
X153500Y281000D02*X152114Y281800D01*
X15000Y531250D02*Y529650D01*
Y531250D02*X16386Y532050D01*
X15000Y531250D02*X13614Y532050D01*
X135000Y533500D02*Y532750D01*
X136500Y531250D01*
X138000Y532750D01*
Y533500D02*Y532750D01*
X136500Y531250D02*Y527500D01*
X139801Y530500D02*X142051D01*
X139801Y527500D02*X142801D01*
X139801Y533500D02*Y527500D01*
Y533500D02*X142801D01*
X147603D02*X148353Y532750D01*
X145353Y533500D02*X147603D01*
X144603Y532750D02*X145353Y533500D01*
X144603Y532750D02*Y531250D01*
X145353Y530500D01*
X147603D01*
X148353Y529750D01*
Y528250D01*
X147603Y527500D02*X148353Y528250D01*
X145353Y527500D02*X147603D01*
X144603Y528250D02*X145353Y527500D01*
X135000Y524249D02*X150154D01*
X98000Y527500D02*X101000Y530500D01*
Y532750D02*Y530500D01*
X100250Y533500D02*X101000Y532750D01*
X98750Y533500D02*X100250D01*
X98000Y532750D02*X98750Y533500D01*
X98000Y532750D02*Y531250D01*
X98750Y530500D01*
X101000D01*
X98000Y524249D02*X102801D01*
X45000Y528250D02*X45750Y527500D01*
X45000Y532750D02*Y528250D01*
Y532750D02*X45750Y533500D01*
X47250D01*
X48000Y532750D01*
Y528250D01*
X47250Y527500D02*X48000Y528250D01*
X45750Y527500D02*X47250D01*
X45000Y529000D02*X48000Y532000D01*
X49801Y527500D02*X50551D01*
X52353Y528250D02*X53103Y527500D01*
X52353Y532750D02*Y528250D01*
Y532750D02*X53103Y533500D01*
X54603D01*
X55353Y532750D01*
Y528250D01*
X54603Y527500D02*X55353Y528250D01*
X53103Y527500D02*X54603D01*
X52353Y529000D02*X55353Y532000D01*
X57154Y528250D02*X57904Y527500D01*
X57154Y532750D02*Y528250D01*
Y532750D02*X57904Y533500D01*
X59404D01*
X60154Y532750D01*
Y528250D01*
X59404Y527500D02*X60154Y528250D01*
X57904Y527500D02*X59404D01*
X57154Y529000D02*X60154Y532000D01*
X61956Y530500D02*X64956Y533500D01*
X61956Y530500D02*X65706D01*
X64956Y533500D02*Y527500D01*
X45000Y524249D02*X67507D01*
X3000Y548500D02*X3750Y547750D01*
X750Y548500D02*X3000D01*
X0Y547750D02*X750Y548500D01*
X0Y547750D02*Y546250D01*
X750Y545500D01*
X3000D01*
X3750Y544750D01*
Y543250D01*
X3000Y542500D02*X3750Y543250D01*
X750Y542500D02*X3000D01*
X0Y543250D02*X750Y542500D01*
X5551Y545500D02*Y543250D01*
X6301Y542500D01*
X8551Y545500D02*Y541000D01*
X7801Y540250D02*X8551Y541000D01*
X6301Y540250D02*X7801D01*
X5551Y541000D02*X6301Y540250D01*
Y542500D02*X7801D01*
X8551Y543250D01*
X11103Y544750D02*Y542500D01*
Y544750D02*X11853Y545500D01*
X12603D01*
X13353Y544750D01*
Y542500D01*
Y544750D02*X14103Y545500D01*
X14853D01*
X15603Y544750D01*
Y542500D01*
X10353Y545500D02*X11103Y544750D01*
X17404Y548500D02*Y542500D01*
Y543250D02*X18154Y542500D01*
X19654D01*
X20404Y543250D01*
Y544750D02*Y543250D01*
X19654Y545500D02*X20404Y544750D01*
X18154Y545500D02*X19654D01*
X17404Y544750D02*X18154Y545500D01*
X22206Y544750D02*Y543250D01*
Y544750D02*X22956Y545500D01*
X24456D01*
X25206Y544750D01*
Y543250D01*
X24456Y542500D02*X25206Y543250D01*
X22956Y542500D02*X24456D01*
X22206Y543250D02*X22956Y542500D01*
X27007Y548500D02*Y543250D01*
X27757Y542500D01*
X41750Y548500D02*Y542500D01*
X44000Y548500D02*X44750Y547750D01*
Y543250D01*
X44000Y542500D02*X44750Y543250D01*
X41000Y542500D02*X44000D01*
X41000Y548500D02*X44000D01*
X46551Y547000D02*Y546250D01*
Y544750D02*Y542500D01*
X50303Y545500D02*X51053Y544750D01*
X48803Y545500D02*X50303D01*
X48053Y544750D02*X48803Y545500D01*
X48053Y544750D02*Y543250D01*
X48803Y542500D01*
X51053Y545500D02*Y543250D01*
X51803Y542500D01*
X48803D02*X50303D01*
X51053Y543250D01*
X54354Y544750D02*Y542500D01*
Y544750D02*X55104Y545500D01*
X55854D01*
X56604Y544750D01*
Y542500D01*
Y544750D02*X57354Y545500D01*
X58104D01*
X58854Y544750D01*
Y542500D01*
X53604Y545500D02*X54354Y544750D01*
X60656Y542500D02*X61406D01*
X65907Y543250D02*X66657Y542500D01*
X65907Y547750D02*X66657Y548500D01*
X65907Y547750D02*Y543250D01*
X68459Y548500D02*X69959D01*
X69209D02*Y542500D01*
X68459D02*X69959D01*
X72510Y544750D02*Y542500D01*
Y544750D02*X73260Y545500D01*
X74010D01*
X74760Y544750D01*
Y542500D01*
X71760Y545500D02*X72510Y544750D01*
X77312Y545500D02*X79562D01*
X76562Y544750D02*X77312Y545500D01*
X76562Y544750D02*Y543250D01*
X77312Y542500D01*
X79562D01*
X81363Y548500D02*Y542500D01*
Y544750D02*X82113Y545500D01*
X83613D01*
X84363Y544750D01*
Y542500D01*
X86165Y548500D02*X86915Y547750D01*
Y543250D01*
X86165Y542500D02*X86915Y543250D01*
X95750Y542500D02*X98000D01*
X95000Y543250D02*X95750Y542500D01*
X95000Y547750D02*Y543250D01*
Y547750D02*X95750Y548500D01*
X98000D01*
X99801Y544750D02*Y543250D01*
Y544750D02*X100551Y545500D01*
X102051D01*
X102801Y544750D01*
Y543250D01*
X102051Y542500D02*X102801Y543250D01*
X100551Y542500D02*X102051D01*
X99801Y543250D02*X100551Y542500D01*
X104603Y545500D02*Y543250D01*
X105353Y542500D01*
X106853D01*
X107603Y543250D01*
Y545500D02*Y543250D01*
X110154Y544750D02*Y542500D01*
Y544750D02*X110904Y545500D01*
X111654D01*
X112404Y544750D01*
Y542500D01*
X109404Y545500D02*X110154Y544750D01*
X114956Y548500D02*Y543250D01*
X115706Y542500D01*
X114206Y546250D02*X115706D01*
X130750Y548500D02*Y542500D01*
X130000Y548500D02*X133000D01*
X133750Y547750D01*
Y546250D01*
X133000Y545500D02*X133750Y546250D01*
X130750Y545500D02*X133000D01*
X135551Y548500D02*Y543250D01*
X136301Y542500D01*
X140053Y545500D02*X140803Y544750D01*
X138553Y545500D02*X140053D01*
X137803Y544750D02*X138553Y545500D01*
X137803Y544750D02*Y543250D01*
X138553Y542500D01*
X140803Y545500D02*Y543250D01*
X141553Y542500D01*
X138553D02*X140053D01*
X140803Y543250D01*
X144104Y548500D02*Y543250D01*
X144854Y542500D01*
X143354Y546250D02*X144854D01*
X147106Y542500D02*X149356D01*
X146356Y543250D02*X147106Y542500D01*
X146356Y544750D02*Y543250D01*
Y544750D02*X147106Y545500D01*
X148606D01*
X149356Y544750D01*
X146356Y544000D02*X149356D01*
Y544750D02*Y544000D01*
X154157Y548500D02*Y542500D01*
X153407D02*X154157Y543250D01*
X151907Y542500D02*X153407D01*
X151157Y543250D02*X151907Y542500D01*
X151157Y544750D02*Y543250D01*
Y544750D02*X151907Y545500D01*
X153407D01*
X154157Y544750D01*
X157459Y545500D02*Y544750D01*
Y543250D02*Y542500D01*
X155959Y547750D02*Y547000D01*
Y547750D02*X156709Y548500D01*
X158209D01*
X158959Y547750D01*
Y547000D01*
X157459Y545500D02*X158959Y547000D01*
X0Y563500D02*X3000D01*
X1500D02*Y557500D01*
X4801Y563500D02*Y557500D01*
Y559750D02*X5551Y560500D01*
X7051D01*
X7801Y559750D01*
Y557500D01*
X10353D02*X12603D01*
X9603Y558250D02*X10353Y557500D01*
X9603Y559750D02*Y558250D01*
Y559750D02*X10353Y560500D01*
X11853D01*
X12603Y559750D01*
X9603Y559000D02*X12603D01*
Y559750D02*Y559000D01*
X15154Y559750D02*Y557500D01*
Y559750D02*X15904Y560500D01*
X17404D01*
X14404D02*X15154Y559750D01*
X19956Y557500D02*X22206D01*
X19206Y558250D02*X19956Y557500D01*
X19206Y559750D02*Y558250D01*
Y559750D02*X19956Y560500D01*
X21456D01*
X22206Y559750D01*
X19206Y559000D02*X22206D01*
Y559750D02*Y559000D01*
X28957Y560500D02*X29707Y559750D01*
X27457Y560500D02*X28957D01*
X26707Y559750D02*X27457Y560500D01*
X26707Y559750D02*Y558250D01*
X27457Y557500D01*
X29707Y560500D02*Y558250D01*
X30457Y557500D01*
X27457D02*X28957D01*
X29707Y558250D01*
X33009Y559750D02*Y557500D01*
Y559750D02*X33759Y560500D01*
X35259D01*
X32259D02*X33009Y559750D01*
X37810Y557500D02*X40060D01*
X37060Y558250D02*X37810Y557500D01*
X37060Y559750D02*Y558250D01*
Y559750D02*X37810Y560500D01*
X39310D01*
X40060Y559750D01*
X37060Y559000D02*X40060D01*
Y559750D02*Y559000D01*
X44562Y557500D02*X47562Y560500D01*
Y562750D02*Y560500D01*
X46812Y563500D02*X47562Y562750D01*
X45312Y563500D02*X46812D01*
X44562Y562750D02*X45312Y563500D01*
X44562Y562750D02*Y561250D01*
X45312Y560500D01*
X47562D01*
X55063Y563500D02*Y557500D01*
X54313D02*X55063Y558250D01*
X52813Y557500D02*X54313D01*
X52063Y558250D02*X52813Y557500D01*
X52063Y559750D02*Y558250D01*
Y559750D02*X52813Y560500D01*
X54313D01*
X55063Y559750D01*
X56865Y562000D02*Y561250D01*
Y559750D02*Y557500D01*
X59116Y562750D02*Y557500D01*
Y562750D02*X59866Y563500D01*
X60616D01*
X58366Y560500D02*X59866D01*
X62868Y562750D02*Y557500D01*
Y562750D02*X63618Y563500D01*
X64368D01*
X62118Y560500D02*X63618D01*
X66619Y557500D02*X68869D01*
X65869Y558250D02*X66619Y557500D01*
X65869Y559750D02*Y558250D01*
Y559750D02*X66619Y560500D01*
X68119D01*
X68869Y559750D01*
X65869Y559000D02*X68869D01*
Y559750D02*Y559000D01*
X71421Y559750D02*Y557500D01*
Y559750D02*X72171Y560500D01*
X73671D01*
X70671D02*X71421Y559750D01*
X76222Y557500D02*X78472D01*
X75472Y558250D02*X76222Y557500D01*
X75472Y559750D02*Y558250D01*
Y559750D02*X76222Y560500D01*
X77722D01*
X78472Y559750D01*
X75472Y559000D02*X78472D01*
Y559750D02*Y559000D01*
X81024Y559750D02*Y557500D01*
Y559750D02*X81774Y560500D01*
X82524D01*
X83274Y559750D01*
Y557500D01*
X80274Y560500D02*X81024Y559750D01*
X85825Y563500D02*Y558250D01*
X86575Y557500D01*
X85075Y561250D02*X86575D01*
X93777Y563500D02*Y557500D01*
X93027D02*X93777Y558250D01*
X91527Y557500D02*X93027D01*
X90777Y558250D02*X91527Y557500D01*
X90777Y559750D02*Y558250D01*
Y559750D02*X91527Y560500D01*
X93027D01*
X93777Y559750D01*
X96328D02*Y557500D01*
Y559750D02*X97078Y560500D01*
X98578D01*
X95578D02*X96328Y559750D01*
X100380Y562000D02*Y561250D01*
Y559750D02*Y557500D01*
X101881Y563500D02*Y558250D01*
X102631Y557500D01*
X104133Y563500D02*Y558250D01*
X104883Y557500D01*
X109834D02*X112084D01*
X112834Y558250D01*
X112084Y559000D02*X112834Y558250D01*
X109834Y559000D02*X112084D01*
X109084Y559750D02*X109834Y559000D01*
X109084Y559750D02*X109834Y560500D01*
X112084D01*
X112834Y559750D01*
X109084Y558250D02*X109834Y557500D01*
X114636Y562000D02*Y561250D01*
Y559750D02*Y557500D01*
X116137Y560500D02*X119137D01*
X116137Y557500D02*X119137Y560500D01*
X116137Y557500D02*X119137D01*
X121689D02*X123939D01*
X120939Y558250D02*X121689Y557500D01*
X120939Y559750D02*Y558250D01*
Y559750D02*X121689Y560500D01*
X123189D01*
X123939Y559750D01*
X120939Y559000D02*X123939D01*
Y559750D02*Y559000D01*
X126490Y557500D02*X128740D01*
X129490Y558250D01*
X128740Y559000D02*X129490Y558250D01*
X126490Y559000D02*X128740D01*
X125740Y559750D02*X126490Y559000D01*
X125740Y559750D02*X126490Y560500D01*
X128740D01*
X129490Y559750D01*
X125740Y558250D02*X126490Y557500D01*
X133992Y560500D02*Y558250D01*
X134742Y557500D01*
X136242D01*
X136992Y558250D01*
Y560500D02*Y558250D01*
X139543Y557500D02*X141793D01*
X142543Y558250D01*
X141793Y559000D02*X142543Y558250D01*
X139543Y559000D02*X141793D01*
X138793Y559750D02*X139543Y559000D01*
X138793Y559750D02*X139543Y560500D01*
X141793D01*
X142543Y559750D01*
X138793Y558250D02*X139543Y557500D01*
X145095D02*X147345D01*
X144345Y558250D02*X145095Y557500D01*
X144345Y559750D02*Y558250D01*
Y559750D02*X145095Y560500D01*
X146595D01*
X147345Y559750D01*
X144345Y559000D02*X147345D01*
Y559750D02*Y559000D01*
X152146Y563500D02*Y557500D01*
X151396D02*X152146Y558250D01*
X149896Y557500D02*X151396D01*
X149146Y558250D02*X149896Y557500D01*
X149146Y559750D02*Y558250D01*
Y559750D02*X149896Y560500D01*
X151396D01*
X152146Y559750D01*
X156648Y562000D02*Y561250D01*
Y559750D02*Y557500D01*
X158899Y559750D02*Y557500D01*
Y559750D02*X159649Y560500D01*
X160399D01*
X161149Y559750D01*
Y557500D01*
X158149Y560500D02*X158899Y559750D01*
X166401Y563500D02*Y558250D01*
X167151Y557500D01*
X165651Y561250D02*X167151D01*
X168652Y563500D02*Y557500D01*
Y559750D02*X169402Y560500D01*
X170902D01*
X171652Y559750D01*
Y557500D01*
X173454Y562000D02*Y561250D01*
Y559750D02*Y557500D01*
X175705D02*X177955D01*
X178705Y558250D01*
X177955Y559000D02*X178705Y558250D01*
X175705Y559000D02*X177955D01*
X174955Y559750D02*X175705Y559000D01*
X174955Y559750D02*X175705Y560500D01*
X177955D01*
X178705Y559750D01*
X174955Y558250D02*X175705Y557500D01*
X183207Y563500D02*Y558250D01*
X183957Y557500D01*
X187708Y560500D02*X188458Y559750D01*
X186208Y560500D02*X187708D01*
X185458Y559750D02*X186208Y560500D01*
X185458Y559750D02*Y558250D01*
X186208Y557500D01*
X188458Y560500D02*Y558250D01*
X189208Y557500D01*
X186208D02*X187708D01*
X188458Y558250D01*
X191010Y560500D02*Y558250D01*
X191760Y557500D01*
X194010Y560500D02*Y556000D01*
X193260Y555250D02*X194010Y556000D01*
X191760Y555250D02*X193260D01*
X191010Y556000D02*X191760Y555250D01*
Y557500D02*X193260D01*
X194010Y558250D01*
X195811Y559750D02*Y558250D01*
Y559750D02*X196561Y560500D01*
X198061D01*
X198811Y559750D01*
Y558250D01*
X198061Y557500D02*X198811Y558250D01*
X196561Y557500D02*X198061D01*
X195811Y558250D02*X196561Y557500D01*
X200613Y560500D02*Y558250D01*
X201363Y557500D01*
X202863D01*
X203613Y558250D01*
Y560500D02*Y558250D01*
X206164Y563500D02*Y558250D01*
X206914Y557500D01*
X205414Y561250D02*X206914D01*
X208416Y556000D02*X209916Y557500D01*
X214417D02*X218167Y561250D01*
Y563500D02*Y561250D01*
X214417Y563500D02*X218167D01*
X219969Y562750D02*X220719Y563500D01*
X222219D01*
X222969Y562750D01*
Y558250D01*
X222219Y557500D02*X222969Y558250D01*
X220719Y557500D02*X222219D01*
X219969Y558250D02*X220719Y557500D01*
Y560500D02*X222969D01*
X227470Y563500D02*Y557500D01*
Y559750D02*X228220Y560500D01*
X229720D01*
X230470Y559750D01*
Y557500D01*
X232272Y559750D02*Y558250D01*
Y559750D02*X233022Y560500D01*
X234522D01*
X235272Y559750D01*
Y558250D01*
X234522Y557500D02*X235272Y558250D01*
X233022Y557500D02*X234522D01*
X232272Y558250D02*X233022Y557500D01*
X237073Y563500D02*Y558250D01*
X237823Y557500D01*
X240075D02*X242325D01*
X239325Y558250D02*X240075Y557500D01*
X239325Y559750D02*Y558250D01*
Y559750D02*X240075Y560500D01*
X241575D01*
X242325Y559750D01*
X239325Y559000D02*X242325D01*
Y559750D02*Y559000D01*
X244876Y557500D02*X247126D01*
X247876Y558250D01*
X247126Y559000D02*X247876Y558250D01*
X244876Y559000D02*X247126D01*
X244126Y559750D02*X244876Y559000D01*
X244126Y559750D02*X244876Y560500D01*
X247126D01*
X247876Y559750D01*
X244126Y558250D02*X244876Y557500D01*
X253128Y563500D02*Y558250D01*
X253878Y557500D01*
X252378Y561250D02*X253878D01*
X255379Y559750D02*Y558250D01*
Y559750D02*X256129Y560500D01*
X257629D01*
X258379Y559750D01*
Y558250D01*
X257629Y557500D02*X258379Y558250D01*
X256129Y557500D02*X257629D01*
X255379Y558250D02*X256129Y557500D01*
X260931Y563500D02*Y558250D01*
X261681Y557500D01*
X260181Y561250D02*X261681D01*
X265432Y560500D02*X266182Y559750D01*
X263932Y560500D02*X265432D01*
X263182Y559750D02*X263932Y560500D01*
X263182Y559750D02*Y558250D01*
X263932Y557500D01*
X266182Y560500D02*Y558250D01*
X266932Y557500D01*
X263932D02*X265432D01*
X266182Y558250D01*
X268734Y563500D02*Y558250D01*
X269484Y557500D01*
G54D12*X0Y400000D02*X282500D01*
X0D02*Y0D01*
X282500Y400000D02*Y0D01*
X0D02*X282500D01*
G54D41*X200000Y413500D02*Y407500D01*
Y413500D02*X202250Y411250D01*
X204500Y413500D01*
Y407500D01*
X208551Y410500D02*X209301Y409750D01*
X207051Y410500D02*X208551D01*
X206301Y409750D02*X207051Y410500D01*
X206301Y409750D02*Y408250D01*
X207051Y407500D01*
X209301Y410500D02*Y408250D01*
X210051Y407500D01*
X207051D02*X208551D01*
X209301Y408250D01*
X211853Y410500D02*X214853Y407500D01*
X211853D02*X214853Y410500D01*
X216654Y412000D02*Y411250D01*
Y409750D02*Y407500D01*
X218906Y409750D02*Y407500D01*
Y409750D02*X219656Y410500D01*
X220406D01*
X221156Y409750D01*
Y407500D01*
Y409750D02*X221906Y410500D01*
X222656D01*
X223406Y409750D01*
Y407500D01*
X218156Y410500D02*X218906Y409750D01*
X225207Y410500D02*Y408250D01*
X225957Y407500D01*
X227457D01*
X228207Y408250D01*
Y410500D02*Y408250D01*
X230759Y409750D02*Y407500D01*
Y409750D02*X231509Y410500D01*
X232259D01*
X233009Y409750D01*
Y407500D01*
Y409750D02*X233759Y410500D01*
X234509D01*
X235259Y409750D01*
Y407500D01*
X230009Y410500D02*X230759Y409750D01*
X240510Y413500D02*Y407500D01*
X242760Y413500D02*X243510Y412750D01*
Y408250D01*
X242760Y407500D02*X243510Y408250D01*
X239760Y407500D02*X242760D01*
X239760Y413500D02*X242760D01*
X245312Y412000D02*Y411250D01*
Y409750D02*Y407500D01*
X247563Y409750D02*Y407500D01*
Y409750D02*X248313Y410500D01*
X249063D01*
X249813Y409750D01*
Y407500D01*
Y409750D02*X250563Y410500D01*
X251313D01*
X252063Y409750D01*
Y407500D01*
X246813Y410500D02*X247563Y409750D01*
X254615Y407500D02*X256865D01*
X253865Y408250D02*X254615Y407500D01*
X253865Y409750D02*Y408250D01*
Y409750D02*X254615Y410500D01*
X256115D01*
X256865Y409750D01*
X253865Y409000D02*X256865D01*
Y409750D02*Y409000D01*
X259416Y409750D02*Y407500D01*
Y409750D02*X260166Y410500D01*
X260916D01*
X261666Y409750D01*
Y407500D01*
X258666Y410500D02*X259416Y409750D01*
X264218Y407500D02*X266468D01*
X267218Y408250D01*
X266468Y409000D02*X267218Y408250D01*
X264218Y409000D02*X266468D01*
X263468Y409750D02*X264218Y409000D01*
X263468Y409750D02*X264218Y410500D01*
X266468D01*
X267218Y409750D01*
X263468Y408250D02*X264218Y407500D01*
X269019Y412000D02*Y411250D01*
Y409750D02*Y407500D01*
X270521Y409750D02*Y408250D01*
Y409750D02*X271271Y410500D01*
X272771D01*
X273521Y409750D01*
Y408250D01*
X272771Y407500D02*X273521Y408250D01*
X271271Y407500D02*X272771D01*
X270521Y408250D02*X271271Y407500D01*
X276072Y409750D02*Y407500D01*
Y409750D02*X276822Y410500D01*
X277572D01*
X278322Y409750D01*
Y407500D01*
X275322Y410500D02*X276072Y409750D01*
X280874Y407500D02*X283124D01*
X283874Y408250D01*
X283124Y409000D02*X283874Y408250D01*
X280874Y409000D02*X283124D01*
X280124Y409750D02*X280874Y409000D01*
X280124Y409750D02*X280874Y410500D01*
X283124D01*
X283874Y409750D01*
X280124Y408250D02*X280874Y407500D01*
X285675Y411250D02*X286425D01*
X285675Y409750D02*X286425D01*
X290927Y412750D02*X291677Y413500D01*
X293927D01*
X294677Y412750D01*
Y411250D01*
X290927Y407500D02*X294677Y411250D01*
X290927Y407500D02*X294677D01*
X296478Y408250D02*X297228Y407500D01*
X296478Y409750D02*Y408250D01*
Y409750D02*X297228Y410500D01*
X298728D01*
X299478Y409750D01*
Y408250D01*
X298728Y407500D02*X299478Y408250D01*
X297228Y407500D02*X298728D01*
X296478Y411250D02*X297228Y410500D01*
X296478Y412750D02*Y411250D01*
Y412750D02*X297228Y413500D01*
X298728D01*
X299478Y412750D01*
Y411250D01*
X298728Y410500D02*X299478Y411250D01*
X301280Y412750D02*X302030Y413500D01*
X304280D01*
X305030Y412750D01*
Y411250D01*
X301280Y407500D02*X305030Y411250D01*
X301280Y407500D02*X305030D01*
X306831Y413500D02*X309831D01*
X306831D02*Y410500D01*
X307581Y411250D01*
X309081D01*
X309831Y410500D01*
Y408250D01*
X309081Y407500D02*X309831Y408250D01*
X307581Y407500D02*X309081D01*
X306831Y408250D02*X307581Y407500D01*
X315083Y409750D02*Y407500D01*
Y409750D02*X315833Y410500D01*
X316583D01*
X317333Y409750D01*
Y407500D01*
Y409750D02*X318083Y410500D01*
X318833D01*
X319583Y409750D01*
Y407500D01*
X314333Y410500D02*X315083Y409750D01*
X321384Y412000D02*Y411250D01*
Y409750D02*Y407500D01*
X322886Y413500D02*Y408250D01*
X323636Y407500D01*
X325887D02*X328137D01*
X328887Y408250D01*
X328137Y409000D02*X328887Y408250D01*
X325887Y409000D02*X328137D01*
X325137Y409750D02*X325887Y409000D01*
X325137Y409750D02*X325887Y410500D01*
X328137D01*
X328887Y409750D01*
X325137Y408250D02*X325887Y407500D01*
X333389Y410500D02*Y408250D01*
X334139Y407500D01*
X334889D01*
X335639Y408250D01*
Y410500D02*Y408250D01*
X336389Y407500D01*
X337139D01*
X337889Y408250D01*
Y410500D02*Y408250D01*
X339690Y412000D02*Y411250D01*
Y409750D02*Y407500D01*
X344192Y413500D02*Y407500D01*
X343442D02*X344192Y408250D01*
X341942Y407500D02*X343442D01*
X341192Y408250D02*X341942Y407500D01*
X341192Y409750D02*Y408250D01*
Y409750D02*X341942Y410500D01*
X343442D01*
X344192Y409750D01*
X346743Y407500D02*X348993D01*
X345993Y408250D02*X346743Y407500D01*
X345993Y409750D02*Y408250D01*
Y409750D02*X346743Y410500D01*
X348243D01*
X348993Y409750D01*
X345993Y409000D02*X348993D01*
Y409750D02*Y409000D01*
X350795Y406000D02*X352295Y407500D01*
X356796Y410500D02*X359796Y413500D01*
X356796Y410500D02*X360546D01*
X359796Y413500D02*Y407500D01*
X362348Y408250D02*X363098Y407500D01*
X362348Y412750D02*Y408250D01*
Y412750D02*X363098Y413500D01*
X364598D01*
X365348Y412750D01*
Y408250D01*
X364598Y407500D02*X365348Y408250D01*
X363098Y407500D02*X364598D01*
X362348Y409000D02*X365348Y412000D01*
X367149Y408250D02*X367899Y407500D01*
X367149Y412750D02*Y408250D01*
Y412750D02*X367899Y413500D01*
X369399D01*
X370149Y412750D01*
Y408250D01*
X369399Y407500D02*X370149Y408250D01*
X367899Y407500D02*X369399D01*
X367149Y409000D02*X370149Y412000D01*
X371951Y408250D02*X372701Y407500D01*
X371951Y412750D02*Y408250D01*
Y412750D02*X372701Y413500D01*
X374201D01*
X374951Y412750D01*
Y408250D01*
X374201Y407500D02*X374951Y408250D01*
X372701Y407500D02*X374201D01*
X371951Y409000D02*X374951Y412000D01*
X380202Y409750D02*Y407500D01*
Y409750D02*X380952Y410500D01*
X381702D01*
X382452Y409750D01*
Y407500D01*
Y409750D02*X383202Y410500D01*
X383952D01*
X384702Y409750D01*
Y407500D01*
X379452Y410500D02*X380202Y409750D01*
X386504Y412000D02*Y411250D01*
Y409750D02*Y407500D01*
X388005Y413500D02*Y408250D01*
X388755Y407500D01*
X391007D02*X393257D01*
X394007Y408250D01*
X393257Y409000D02*X394007Y408250D01*
X391007Y409000D02*X393257D01*
X390257Y409750D02*X391007Y409000D01*
X390257Y409750D02*X391007Y410500D01*
X393257D01*
X394007Y409750D01*
X390257Y408250D02*X391007Y407500D01*
X398508Y413500D02*Y407500D01*
Y409750D02*X399258Y410500D01*
X400758D01*
X401508Y409750D01*
Y407500D01*
X403310Y412000D02*Y411250D01*
Y409750D02*Y407500D01*
X407061Y410500D02*X407811Y409750D01*
X405561Y410500D02*X407061D01*
X404811Y409750D02*X405561Y410500D01*
X404811Y409750D02*Y408250D01*
X405561Y407500D01*
X407061D01*
X407811Y408250D01*
X404811Y406000D02*X405561Y405250D01*
X407061D01*
X407811Y406000D01*
Y410500D02*Y406000D01*
X409613Y413500D02*Y407500D01*
Y409750D02*X410363Y410500D01*
X411863D01*
X412613Y409750D01*
Y407500D01*
X0Y-9500D02*X3000D01*
X3750Y-8750D01*
Y-7250D02*Y-8750D01*
X3000Y-6500D02*X3750Y-7250D01*
X750Y-6500D02*X3000D01*
X750Y-3500D02*Y-9500D01*
X0Y-3500D02*X3000D01*
X3750Y-4250D01*
Y-5750D01*
X3000Y-6500D02*X3750Y-5750D01*
X5551Y-7250D02*Y-8750D01*
Y-7250D02*X6301Y-6500D01*
X7801D01*
X8551Y-7250D01*
Y-8750D01*
X7801Y-9500D02*X8551Y-8750D01*
X6301Y-9500D02*X7801D01*
X5551Y-8750D02*X6301Y-9500D01*
X12603Y-6500D02*X13353Y-7250D01*
X11103Y-6500D02*X12603D01*
X10353Y-7250D02*X11103Y-6500D01*
X10353Y-7250D02*Y-8750D01*
X11103Y-9500D01*
X13353Y-6500D02*Y-8750D01*
X14103Y-9500D01*
X11103D02*X12603D01*
X13353Y-8750D01*
X16654Y-7250D02*Y-9500D01*
Y-7250D02*X17404Y-6500D01*
X18904D01*
X15904D02*X16654Y-7250D01*
X23706Y-3500D02*Y-9500D01*
X22956D02*X23706Y-8750D01*
X21456Y-9500D02*X22956D01*
X20706Y-8750D02*X21456Y-9500D01*
X20706Y-7250D02*Y-8750D01*
Y-7250D02*X21456Y-6500D01*
X22956D01*
X23706Y-7250D01*
X28207D02*Y-8750D01*
Y-7250D02*X28957Y-6500D01*
X30457D01*
X31207Y-7250D01*
Y-8750D01*
X30457Y-9500D02*X31207Y-8750D01*
X28957Y-9500D02*X30457D01*
X28207Y-8750D02*X28957Y-9500D01*
X33009Y-6500D02*Y-8750D01*
X33759Y-9500D01*
X35259D01*
X36009Y-8750D01*
Y-6500D02*Y-8750D01*
X38560Y-3500D02*Y-8750D01*
X39310Y-9500D01*
X37810Y-5750D02*X39310D01*
X40812Y-3500D02*Y-8750D01*
X41562Y-9500D01*
X43063Y-5000D02*Y-5750D01*
Y-7250D02*Y-9500D01*
X45315Y-7250D02*Y-9500D01*
Y-7250D02*X46065Y-6500D01*
X46815D01*
X47565Y-7250D01*
Y-9500D01*
X44565Y-6500D02*X45315Y-7250D01*
X50116Y-9500D02*X52366D01*
X49366Y-8750D02*X50116Y-9500D01*
X49366Y-7250D02*Y-8750D01*
Y-7250D02*X50116Y-6500D01*
X51616D01*
X52366Y-7250D01*
X49366Y-8000D02*X52366D01*
Y-7250D02*Y-8000D01*
X56868Y-5000D02*Y-5750D01*
Y-7250D02*Y-9500D01*
X59119D02*X61369D01*
X62119Y-8750D01*
X61369Y-8000D02*X62119Y-8750D01*
X59119Y-8000D02*X61369D01*
X58369Y-7250D02*X59119Y-8000D01*
X58369Y-7250D02*X59119Y-6500D01*
X61369D01*
X62119Y-7250D01*
X58369Y-8750D02*X59119Y-9500D01*
X67371Y-3500D02*Y-8750D01*
X68121Y-9500D01*
X66621Y-5750D02*X68121D01*
X69622Y-3500D02*Y-9500D01*
Y-7250D02*X70372Y-6500D01*
X71872D01*
X72622Y-7250D01*
Y-9500D01*
X75174D02*X77424D01*
X74424Y-8750D02*X75174Y-9500D01*
X74424Y-7250D02*Y-8750D01*
Y-7250D02*X75174Y-6500D01*
X76674D01*
X77424Y-7250D01*
X74424Y-8000D02*X77424D01*
Y-7250D02*Y-8000D01*
X82675Y-6500D02*X84925D01*
X81925Y-7250D02*X82675Y-6500D01*
X81925Y-7250D02*Y-8750D01*
X82675Y-9500D01*
X84925D01*
X87477D02*X89727D01*
X86727Y-8750D02*X87477Y-9500D01*
X86727Y-7250D02*Y-8750D01*
Y-7250D02*X87477Y-6500D01*
X88977D01*
X89727Y-7250D01*
X86727Y-8000D02*X89727D01*
Y-7250D02*Y-8000D01*
X92278Y-7250D02*Y-9500D01*
Y-7250D02*X93028Y-6500D01*
X93778D01*
X94528Y-7250D01*
Y-9500D01*
X91528Y-6500D02*X92278Y-7250D01*
X97080Y-3500D02*Y-8750D01*
X97830Y-9500D01*
X96330Y-5750D02*X97830D01*
X100081Y-9500D02*X102331D01*
X99331Y-8750D02*X100081Y-9500D01*
X99331Y-7250D02*Y-8750D01*
Y-7250D02*X100081Y-6500D01*
X101581D01*
X102331Y-7250D01*
X99331Y-8000D02*X102331D01*
Y-7250D02*Y-8000D01*
X104883Y-7250D02*Y-9500D01*
Y-7250D02*X105633Y-6500D01*
X107133D01*
X104133D02*X104883Y-7250D01*
X108934Y-3500D02*Y-8750D01*
X109684Y-9500D01*
X111186Y-5000D02*Y-5750D01*
Y-7250D02*Y-9500D01*
X113437Y-7250D02*Y-9500D01*
Y-7250D02*X114187Y-6500D01*
X114937D01*
X115687Y-7250D01*
Y-9500D01*
X112687Y-6500D02*X113437Y-7250D01*
X118239Y-9500D02*X120489D01*
X117489Y-8750D02*X118239Y-9500D01*
X117489Y-7250D02*Y-8750D01*
Y-7250D02*X118239Y-6500D01*
X119739D01*
X120489Y-7250D01*
X117489Y-8000D02*X120489D01*
Y-7250D02*Y-8000D01*
X124990Y-7250D02*Y-8750D01*
Y-7250D02*X125740Y-6500D01*
X127240D01*
X127990Y-7250D01*
Y-8750D01*
X127240Y-9500D02*X127990Y-8750D01*
X125740Y-9500D02*X127240D01*
X124990Y-8750D02*X125740Y-9500D01*
X130542Y-4250D02*Y-9500D01*
Y-4250D02*X131292Y-3500D01*
X132042D01*
X129792Y-6500D02*X131292D01*
X136993Y-3500D02*Y-8750D01*
X137743Y-9500D01*
X136243Y-5750D02*X137743D01*
X139245Y-3500D02*Y-9500D01*
Y-7250D02*X139995Y-6500D01*
X141495D01*
X142245Y-7250D01*
Y-9500D01*
X144046Y-5000D02*Y-5750D01*
Y-7250D02*Y-9500D01*
X146298D02*X148548D01*
X149298Y-8750D01*
X148548Y-8000D02*X149298Y-8750D01*
X146298Y-8000D02*X148548D01*
X145548Y-7250D02*X146298Y-8000D01*
X145548Y-7250D02*X146298Y-6500D01*
X148548D01*
X149298Y-7250D01*
X145548Y-8750D02*X146298Y-9500D01*
X154549D02*X156049D01*
X155299Y-3500D02*Y-9500D01*
X153799Y-5000D02*X155299Y-3500D01*
X157851Y-8750D02*X158601Y-9500D01*
X157851Y-4250D02*Y-8750D01*
Y-4250D02*X158601Y-3500D01*
X160101D01*
X160851Y-4250D01*
Y-8750D01*
X160101Y-9500D02*X160851Y-8750D01*
X158601Y-9500D02*X160101D01*
X157851Y-8000D02*X160851Y-5000D01*
X166102Y-7250D02*Y-9500D01*
Y-7250D02*X166852Y-6500D01*
X167602D01*
X168352Y-7250D01*
Y-9500D01*
Y-7250D02*X169102Y-6500D01*
X169852D01*
X170602Y-7250D01*
Y-9500D01*
X165352Y-6500D02*X166102Y-7250D01*
X172404Y-5000D02*Y-5750D01*
Y-7250D02*Y-9500D01*
X173905Y-3500D02*Y-8750D01*
X174655Y-9500D01*
X179607Y-7250D02*Y-9500D01*
Y-7250D02*X180357Y-6500D01*
X181857D01*
X178857D02*X179607Y-7250D01*
X184408Y-9500D02*X186658D01*
X183658Y-8750D02*X184408Y-9500D01*
X183658Y-7250D02*Y-8750D01*
Y-7250D02*X184408Y-6500D01*
X185908D01*
X186658Y-7250D01*
X183658Y-8000D02*X186658D01*
Y-7250D02*Y-8000D01*
X189210Y-6500D02*X191460D01*
X188460Y-7250D02*X189210Y-6500D01*
X188460Y-7250D02*Y-8750D01*
X189210Y-9500D01*
X191460D01*
X194011Y-3500D02*Y-8750D01*
X194761Y-9500D01*
X193261Y-5750D02*X194761D01*
X198513Y-6500D02*X199263Y-7250D01*
X197013Y-6500D02*X198513D01*
X196263Y-7250D02*X197013Y-6500D01*
X196263Y-7250D02*Y-8750D01*
X197013Y-9500D01*
X199263Y-6500D02*Y-8750D01*
X200013Y-9500D01*
X197013D02*X198513D01*
X199263Y-8750D01*
X202564Y-7250D02*Y-9500D01*
Y-7250D02*X203314Y-6500D01*
X204064D01*
X204814Y-7250D01*
Y-9500D01*
X201814Y-6500D02*X202564Y-7250D01*
X208866Y-6500D02*X209616Y-7250D01*
X207366Y-6500D02*X208866D01*
X206616Y-7250D02*X207366Y-6500D01*
X206616Y-7250D02*Y-8750D01*
X207366Y-9500D01*
X208866D01*
X209616Y-8750D01*
X206616Y-11000D02*X207366Y-11750D01*
X208866D01*
X209616Y-11000D01*
Y-6500D02*Y-11000D01*
X211417Y-3500D02*Y-8750D01*
X212167Y-9500D01*
X214419D02*X216669D01*
X213669Y-8750D02*X214419Y-9500D01*
X213669Y-7250D02*Y-8750D01*
Y-7250D02*X214419Y-6500D01*
X215919D01*
X216669Y-7250D01*
X213669Y-8000D02*X216669D01*
Y-7250D02*Y-8000D01*
X221170Y-6500D02*X224170D01*
X228672Y-8750D02*X229422Y-9500D01*
X228672Y-4250D02*Y-8750D01*
Y-4250D02*X229422Y-3500D01*
X230922D01*
X231672Y-4250D01*
Y-8750D01*
X230922Y-9500D02*X231672Y-8750D01*
X229422Y-9500D02*X230922D01*
X228672Y-8000D02*X231672Y-5000D01*
X233473Y-11000D02*X234973Y-9500D01*
X236775Y-8750D02*X237525Y-9500D01*
X236775Y-4250D02*Y-8750D01*
Y-4250D02*X237525Y-3500D01*
X239025D01*
X239775Y-4250D01*
Y-8750D01*
X239025Y-9500D02*X239775Y-8750D01*
X237525Y-9500D02*X239025D01*
X236775Y-8000D02*X239775Y-5000D01*
X245026Y-3500D02*Y-8750D01*
X245776Y-9500D01*
X244276Y-5750D02*X245776D01*
X247278Y-7250D02*Y-8750D01*
Y-7250D02*X248028Y-6500D01*
X249528D01*
X250278Y-7250D01*
Y-8750D01*
X249528Y-9500D02*X250278Y-8750D01*
X248028Y-9500D02*X249528D01*
X247278Y-8750D02*X248028Y-9500D01*
X254779Y-4250D02*X255529Y-3500D01*
X257779D01*
X258529Y-4250D01*
Y-5750D01*
X254779Y-9500D02*X258529Y-5750D01*
X254779Y-9500D02*X258529D01*
X260331Y-8750D02*X261081Y-9500D01*
X260331Y-7250D02*Y-8750D01*
Y-7250D02*X261081Y-6500D01*
X262581D01*
X263331Y-7250D01*
Y-8750D01*
X262581Y-9500D02*X263331Y-8750D01*
X261081Y-9500D02*X262581D01*
X260331Y-5750D02*X261081Y-6500D01*
X260331Y-4250D02*Y-5750D01*
Y-4250D02*X261081Y-3500D01*
X262581D01*
X263331Y-4250D01*
Y-5750D01*
X262581Y-6500D02*X263331Y-5750D01*
X265132Y-4250D02*X265882Y-3500D01*
X268132D01*
X268882Y-4250D01*
Y-5750D01*
X265132Y-9500D02*X268882Y-5750D01*
X265132Y-9500D02*X268882D01*
X270684Y-3500D02*X273684D01*
X270684D02*Y-6500D01*
X271434Y-5750D01*
X272934D01*
X273684Y-6500D01*
Y-8750D01*
X272934Y-9500D02*X273684Y-8750D01*
X271434Y-9500D02*X272934D01*
X270684Y-8750D02*X271434Y-9500D01*
X275485Y-11000D02*X276985Y-9500D01*
X278787Y-6500D02*X281787Y-3500D01*
X278787Y-6500D02*X282537D01*
X281787Y-3500D02*Y-9500D01*
X284338Y-8750D02*X285088Y-9500D01*
X284338Y-4250D02*Y-8750D01*
Y-4250D02*X285088Y-3500D01*
X286588D01*
X287338Y-4250D01*
Y-8750D01*
X286588Y-9500D02*X287338Y-8750D01*
X285088Y-9500D02*X286588D01*
X284338Y-8000D02*X287338Y-5000D01*
X289140Y-8750D02*X289890Y-9500D01*
X289140Y-4250D02*Y-8750D01*
Y-4250D02*X289890Y-3500D01*
X291390D01*
X292140Y-4250D01*
Y-8750D01*
X291390Y-9500D02*X292140Y-8750D01*
X289890Y-9500D02*X291390D01*
X289140Y-8000D02*X292140Y-5000D01*
X293941Y-8750D02*X294691Y-9500D01*
X293941Y-4250D02*Y-8750D01*
Y-4250D02*X294691Y-3500D01*
X296191D01*
X296941Y-4250D01*
Y-8750D01*
X296191Y-9500D02*X296941Y-8750D01*
X294691Y-9500D02*X296191D01*
X293941Y-8000D02*X296941Y-5000D01*
X302193Y-7250D02*Y-9500D01*
Y-7250D02*X302943Y-6500D01*
X303693D01*
X304443Y-7250D01*
Y-9500D01*
Y-7250D02*X305193Y-6500D01*
X305943D01*
X306693Y-7250D01*
Y-9500D01*
X301443Y-6500D02*X302193Y-7250D01*
X308494Y-5000D02*Y-5750D01*
Y-7250D02*Y-9500D01*
X309996Y-3500D02*Y-8750D01*
X310746Y-9500D01*
X312997D02*X315247D01*
X315997Y-8750D01*
X315247Y-8000D02*X315997Y-8750D01*
X312997Y-8000D02*X315247D01*
X312247Y-7250D02*X312997Y-8000D01*
X312247Y-7250D02*X312997Y-6500D01*
X315247D01*
X315997Y-7250D01*
X312247Y-8750D02*X312997Y-9500D01*
X200750Y428500D02*Y422500D01*
X203000Y428500D02*X203750Y427750D01*
Y423250D01*
X203000Y422500D02*X203750Y423250D01*
X200000Y422500D02*X203000D01*
X200000Y428500D02*X203000D01*
X207801Y425500D02*X208551Y424750D01*
X206301Y425500D02*X207801D01*
X205551Y424750D02*X206301Y425500D01*
X205551Y424750D02*Y423250D01*
X206301Y422500D01*
X208551Y425500D02*Y423250D01*
X209301Y422500D01*
X206301D02*X207801D01*
X208551Y423250D01*
X211853Y428500D02*Y423250D01*
X212603Y422500D01*
X211103Y426250D02*X212603D01*
X214854Y422500D02*X217104D01*
X214104Y423250D02*X214854Y422500D01*
X214104Y424750D02*Y423250D01*
Y424750D02*X214854Y425500D01*
X216354D01*
X217104Y424750D01*
X214104Y424000D02*X217104D01*
Y424750D02*Y424000D01*
X218906Y426250D02*X219656D01*
X218906Y424750D02*X219656D01*
X224157Y428500D02*X227157D01*
X225657D02*Y422500D01*
X228959Y428500D02*Y422500D01*
Y424750D02*X229709Y425500D01*
X231209D01*
X231959Y424750D01*
Y422500D01*
X233760Y425500D02*Y423250D01*
X234510Y422500D01*
X236010D01*
X236760Y423250D01*
Y425500D02*Y423250D01*
X241262Y428500D02*Y422500D01*
Y428500D02*X243512Y426250D01*
X245762Y428500D01*
Y422500D01*
X249813Y425500D02*X250563Y424750D01*
X248313Y425500D02*X249813D01*
X247563Y424750D02*X248313Y425500D01*
X247563Y424750D02*Y423250D01*
X248313Y422500D01*
X250563Y425500D02*Y423250D01*
X251313Y422500D01*
X248313D02*X249813D01*
X250563Y423250D01*
X253865Y424750D02*Y422500D01*
Y424750D02*X254615Y425500D01*
X256115D01*
X253115D02*X253865Y424750D01*
X261366Y422500D02*X262866D01*
X262116Y428500D02*Y422500D01*
X260616Y427000D02*X262116Y428500D01*
X264668Y423250D02*X265418Y422500D01*
X264668Y427750D02*Y423250D01*
Y427750D02*X265418Y428500D01*
X266918D01*
X267668Y427750D01*
Y423250D01*
X266918Y422500D02*X267668Y423250D01*
X265418Y422500D02*X266918D01*
X264668Y424000D02*X267668Y427000D01*
X272919Y422500D02*X274419D01*
X273669Y428500D02*Y422500D01*
X272169Y427000D02*X273669Y428500D01*
X276221D02*X279221D01*
X276221D02*Y425500D01*
X276971Y426250D01*
X278471D01*
X279221Y425500D01*
Y423250D01*
X278471Y422500D02*X279221Y423250D01*
X276971Y422500D02*X278471D01*
X276221Y423250D02*X276971Y422500D01*
X281022Y426250D02*X281772D01*
X281022Y424750D02*X281772D01*
X283574Y428500D02*X286574D01*
X283574D02*Y425500D01*
X284324Y426250D01*
X285824D01*
X286574Y425500D01*
Y423250D01*
X285824Y422500D02*X286574Y423250D01*
X284324Y422500D02*X285824D01*
X283574Y423250D02*X284324Y422500D01*
X290625Y428500D02*X291375Y427750D01*
X289125Y428500D02*X290625D01*
X288375Y427750D02*X289125Y428500D01*
X288375Y427750D02*Y423250D01*
X289125Y422500D01*
X290625Y425500D02*X291375Y424750D01*
X288375Y425500D02*X290625D01*
X289125Y422500D02*X290625D01*
X291375Y423250D01*
Y424750D02*Y423250D01*
X293177Y426250D02*X293927D01*
X293177Y424750D02*X293927D01*
X296478Y422500D02*X297978D01*
X297228Y428500D02*Y422500D01*
X295728Y427000D02*X297228Y428500D01*
X299780Y427750D02*X300530Y428500D01*
X302780D01*
X303530Y427750D01*
Y426250D01*
X299780Y422500D02*X303530Y426250D01*
X299780Y422500D02*X303530D01*
X308031Y427750D02*X308781Y428500D01*
X311031D01*
X311781Y427750D01*
Y426250D01*
X308031Y422500D02*X311781Y426250D01*
X308031Y422500D02*X311781D01*
X313583Y423250D02*X314333Y422500D01*
X313583Y427750D02*Y423250D01*
Y427750D02*X314333Y428500D01*
X315833D01*
X316583Y427750D01*
Y423250D01*
X315833Y422500D02*X316583Y423250D01*
X314333Y422500D02*X315833D01*
X313583Y424000D02*X316583Y427000D01*
X319134Y422500D02*X320634D01*
X319884Y428500D02*Y422500D01*
X318384Y427000D02*X319884Y428500D01*
X323186Y422500D02*X324686D01*
X323936Y428500D02*Y422500D01*
X322436Y427000D02*X323936Y428500D01*
X329187D02*Y423250D01*
X329937Y422500D01*
X331437D01*
X332187Y423250D01*
Y428500D02*Y423250D01*
X333989Y428500D02*X336989D01*
X335489D02*Y422500D01*
X339540D02*X341790D01*
X338790Y423250D02*X339540Y422500D01*
X338790Y427750D02*Y423250D01*
Y427750D02*X339540Y428500D01*
X341790D01*
X200000Y442750D02*Y437500D01*
Y442750D02*X200750Y443500D01*
X203000D01*
X203750Y442750D01*
Y437500D01*
X200000Y440500D02*X203750D01*
X205551D02*Y438250D01*
X206301Y437500D01*
X207801D01*
X208551Y438250D01*
Y440500D02*Y438250D01*
X211103Y443500D02*Y438250D01*
X211853Y437500D01*
X210353Y441250D02*X211853D01*
X213354Y443500D02*Y437500D01*
Y439750D02*X214104Y440500D01*
X215604D01*
X216354Y439750D01*
Y437500D01*
X218156Y439750D02*Y438250D01*
Y439750D02*X218906Y440500D01*
X220406D01*
X221156Y439750D01*
Y438250D01*
X220406Y437500D02*X221156Y438250D01*
X218906Y437500D02*X220406D01*
X218156Y438250D02*X218906Y437500D01*
X223707Y439750D02*Y437500D01*
Y439750D02*X224457Y440500D01*
X225957D01*
X222957D02*X223707Y439750D01*
X227759Y441250D02*X228509D01*
X227759Y439750D02*X228509D01*
X200000Y458500D02*X203000D01*
X201500D02*Y452500D01*
X204801Y457000D02*Y456250D01*
Y454750D02*Y452500D01*
X207053Y458500D02*Y453250D01*
X207803Y452500D01*
X206303Y456250D02*X207803D01*
X209304Y458500D02*Y453250D01*
X210054Y452500D01*
X212306D02*X214556D01*
X211556Y453250D02*X212306Y452500D01*
X211556Y454750D02*Y453250D01*
Y454750D02*X212306Y455500D01*
X213806D01*
X214556Y454750D01*
X211556Y454000D02*X214556D01*
Y454750D02*Y454000D01*
X216357Y456250D02*X217107D01*
X216357Y454750D02*X217107D01*
X221609Y453250D02*X222359Y452500D01*
X221609Y457750D02*X222359Y458500D01*
X221609Y457750D02*Y453250D01*
X224160Y455500D02*Y453250D01*
X224910Y452500D01*
X226410D01*
X227160Y453250D01*
Y455500D02*Y453250D01*
X229712Y454750D02*Y452500D01*
Y454750D02*X230462Y455500D01*
X231212D01*
X231962Y454750D01*
Y452500D01*
X228962Y455500D02*X229712Y454750D01*
X233763Y458500D02*Y452500D01*
Y454750D02*X236013Y452500D01*
X233763Y454750D02*X235263Y456250D01*
X238565Y454750D02*Y452500D01*
Y454750D02*X239315Y455500D01*
X240065D01*
X240815Y454750D01*
Y452500D01*
X237815Y455500D02*X238565Y454750D01*
X242616D02*Y453250D01*
Y454750D02*X243366Y455500D01*
X244866D01*
X245616Y454750D01*
Y453250D01*
X244866Y452500D02*X245616Y453250D01*
X243366Y452500D02*X244866D01*
X242616Y453250D02*X243366Y452500D01*
X247418Y455500D02*Y453250D01*
X248168Y452500D01*
X248918D01*
X249668Y453250D01*
Y455500D02*Y453250D01*
X250418Y452500D01*
X251168D01*
X251918Y453250D01*
Y455500D02*Y453250D01*
X254469Y454750D02*Y452500D01*
Y454750D02*X255219Y455500D01*
X255969D01*
X256719Y454750D01*
Y452500D01*
X253719Y455500D02*X254469Y454750D01*
X258521Y458500D02*X259271Y457750D01*
Y453250D01*
X258521Y452500D02*X259271Y453250D01*
X263772Y455500D02*X266772D01*
X271274Y458500D02*Y452500D01*
Y458500D02*X274274D01*
X271274Y455500D02*X273524D01*
X278325D02*X279075Y454750D01*
X276825Y455500D02*X278325D01*
X276075Y454750D02*X276825Y455500D01*
X276075Y454750D02*Y453250D01*
X276825Y452500D01*
X279075Y455500D02*Y453250D01*
X279825Y452500D01*
X276825D02*X278325D01*
X279075Y453250D01*
X281627Y458500D02*Y452500D01*
Y453250D02*X282377Y452500D01*
X283877D01*
X284627Y453250D01*
Y454750D02*Y453250D01*
X283877Y455500D02*X284627Y454750D01*
X282377Y455500D02*X283877D01*
X281627Y454750D02*X282377Y455500D01*
X287178Y454750D02*Y452500D01*
Y454750D02*X287928Y455500D01*
X289428D01*
X286428D02*X287178Y454750D01*
X291230Y457000D02*Y456250D01*
Y454750D02*Y452500D01*
X293481Y455500D02*X295731D01*
X292731Y454750D02*X293481Y455500D01*
X292731Y454750D02*Y453250D01*
X293481Y452500D01*
X295731D01*
X299783Y455500D02*X300533Y454750D01*
X298283Y455500D02*X299783D01*
X297533Y454750D02*X298283Y455500D01*
X297533Y454750D02*Y453250D01*
X298283Y452500D01*
X300533Y455500D02*Y453250D01*
X301283Y452500D01*
X298283D02*X299783D01*
X300533Y453250D01*
X303834Y458500D02*Y453250D01*
X304584Y452500D01*
X303084Y456250D02*X304584D01*
X306086Y457000D02*Y456250D01*
Y454750D02*Y452500D01*
X307587Y454750D02*Y453250D01*
Y454750D02*X308337Y455500D01*
X309837D01*
X310587Y454750D01*
Y453250D01*
X309837Y452500D02*X310587Y453250D01*
X308337Y452500D02*X309837D01*
X307587Y453250D02*X308337Y452500D01*
X313139Y454750D02*Y452500D01*
Y454750D02*X313889Y455500D01*
X314639D01*
X315389Y454750D01*
Y452500D01*
X312389Y455500D02*X313139Y454750D01*
X320640Y458500D02*Y452500D01*
X322890Y458500D02*X323640Y457750D01*
Y453250D01*
X322890Y452500D02*X323640Y453250D01*
X319890Y452500D02*X322890D01*
X319890Y458500D02*X322890D01*
X326192Y454750D02*Y452500D01*
Y454750D02*X326942Y455500D01*
X328442D01*
X325442D02*X326192Y454750D01*
X332493Y455500D02*X333243Y454750D01*
X330993Y455500D02*X332493D01*
X330243Y454750D02*X330993Y455500D01*
X330243Y454750D02*Y453250D01*
X330993Y452500D01*
X333243Y455500D02*Y453250D01*
X333993Y452500D01*
X330993D02*X332493D01*
X333243Y453250D01*
X335795Y455500D02*Y453250D01*
X336545Y452500D01*
X337295D01*
X338045Y453250D01*
Y455500D02*Y453250D01*
X338795Y452500D01*
X339545D01*
X340295Y453250D01*
Y455500D02*Y453250D01*
X342096Y457000D02*Y456250D01*
Y454750D02*Y452500D01*
X344348Y454750D02*Y452500D01*
Y454750D02*X345098Y455500D01*
X345848D01*
X346598Y454750D01*
Y452500D01*
X343598Y455500D02*X344348Y454750D01*
X350649Y455500D02*X351399Y454750D01*
X349149Y455500D02*X350649D01*
X348399Y454750D02*X349149Y455500D01*
X348399Y454750D02*Y453250D01*
X349149Y452500D01*
X350649D01*
X351399Y453250D01*
X348399Y451000D02*X349149Y450250D01*
X350649D01*
X351399Y451000D01*
Y455500D02*Y451000D01*
M02*
