M48
INCH
T23C0.032
T24C0.079
T25C0.038
T26C0.030
T27C0.071
T28C0.065
T29C0.042
T30C0.028
T31C0.004
%
T31
X025350Y030300
X024350Y028100
X005350Y028100
X001350Y028100
X011350Y028100
X015350Y028100
X003350Y031430
X013350Y031430
X026350Y028100
T30
X009350Y013250
X009350Y012250
X009350Y011250
X009350Y010250
X012350Y010250
X012350Y011250
X012350Y012250
X012350Y013250
T26
X019850Y019750
X020850Y019750
X020850Y010250
X020850Y014250
X018350Y010250
X018600Y012250
X019600Y012250
X018350Y014250
X018350Y018750
X019850Y022750
X020850Y022750
X003350Y010750
X003350Y007750
X003350Y009250
X003350Y012250
X007350Y010750
X007350Y007750
X007350Y009250
X014350Y010250
X014350Y014250
X007350Y012250
X008850Y018750
X009850Y018750
X008850Y016500
X014350Y018750
X012850Y016500
T23
X002350Y021850
X003350Y021850
X012350Y021850
X013350Y021850
T25
X020850Y016500
X023850Y007750
X024850Y007750
X025850Y007750
X026850Y007750
X018350Y016500
X017850Y020750
X001350Y017750
X002350Y014750
X014350Y012250
X007350Y014000
T29
X014350Y016500
X015350Y016500
X016350Y016500
T28
X024350Y026350
X026350Y026350
T27
X023500Y021350
X025350Y021350
X027200Y021350
X023500Y019850
X025350Y019850
X027200Y019850
T24
X001350Y024250
X005350Y024250
X011350Y024250
X015350Y024250
M30
